<?xml version="1.0" encoding="UTF-8" standalone="no"?><svg xmlns="http://www.w3.org/2000/svg" xmlns:xlink="http://www.w3.org/1999/xlink" contentScriptType="text/ecmascript" fill="#000000" width="65" zoomAndPan="magnify" contentStyleType="text/css" viewBox="0.0 0.0 65.0 60.0" height="60" preserveAspectRatio="xMidYMid meet" version="1"><g id="change1_12"><path fill="#ef4434" d="M60 10L60 5 55 5 55 0 45 0 40 0 40 5 35 5 35 10 30 10 30 5 25 5 25 0 15 0 10 0 10 5 5 5 5 10 0 10 0 30 5 30 5 35 10 35 10 40 15 40 15 45 20 45 20 50 25 50 25 55 30 55 30 60 35 60 35 55 40 55 40 50 45 50 45 45 50 45 50 40 55 40 55 35 60 35 60 30 65 30 65 10z"/></g><g><g id="change2_1"><path fill="#2e1b5b" d="M60 10L60 5 55 5 55 0 40 0 40 5 35 5 35 10 30 10 30 5 25 5 25 0 10 0 10 5 5 5 5 10 0 10 0 30 5 30 5 35 10 35 10 40 15 40 15 45 20 45 20 50 25 50 25 55 30 55 30 60 35 60 35 55 40 55 40 50 45 50 45 45 50 45 50 40 55 40 55 35 60 35 60 30 65 30 65 10z"/></g><g id="change1_1"><path fill="#ef4434" d="M10 0H15V5H10z"/></g><g id="change1_2"><path fill="#ef4434" d="M5 5H10V10H5z"/></g><g id="change1_3"><path fill="#ef4434" d="M0 10H5V30H0z"/></g><g id="change1_4"><path fill="#ef4434" d="M5 30H10V35H5z"/></g><g id="change1_5"><path fill="#ef4434" d="M10 35H15V40H10z"/></g><g id="change1_6"><path fill="#ef4434" d="M15 40H20V45H15z"/></g><g id="change1_7"><path fill="#ef4434" d="M20 45H25V50H20z"/></g><g id="change1_8"><path fill="#ef4434" d="M25 50H30V55H25z"/></g><g id="change1_9"><path fill="#ef4434" d="M30 55H35V60H30z"/></g><g id="change1_10"><path fill="#ef4434" d="M35 5H40V10H35z"/></g><g id="change1_11"><path fill="#ef4434" d="M40 0H45V5H40z"/></g><g id="change3_1"><path fill="#ef4434" d="M15 35H20V40H15z"/></g><g id="change3_2"><path fill="#ef4434" d="M20 40H25V45H20z"/></g><g id="change3_3"><path fill="#ef4434" d="M25 45H30V50H25z"/></g><g id="change3_4"><path fill="#ef4434" d="M30 50H35V55H30z"/></g><g id="change3_5"><path fill="#ef4434" d="M10 5H15V10H10z"/></g><g id="change3_6"><path fill="#ef4434" d="M15 20L15 15 10 15 10 10 5 10 5 30 10 30 10 35 15 35 15 30 15 25 10 25 10 20z"/></g><g id="change3_7"><path fill="#ef4434" d="M20 30H25V35H20z"/></g><g id="change3_8"><path fill="#ef4434" d="M25 25H30V30H25z"/></g><g id="change3_9"><path fill="#ef4434" d="M30 40H35V45H30z"/></g><g id="change3_10"><path fill="#ef4434" d="M25 35H30V40H25z"/></g><g id="change3_11"><path fill="#ef4434" d="M40 35H45V40H40z"/></g><g id="change3_12"><path fill="#ef4434" d="M35 45H40V50H35z"/></g><g id="change4_1"><path fill="#f8fffb" d="M15 15H20V20H15z"/></g><g id="change4_2"><path fill="#f8fffb" d="M10 20H15V25H10z"/></g><g id="change4_3"><path fill="#f8fffb" d="M10 10H15V15H10z"/></g><g fill="#2e1b5b" id="change5_1"><path d="M15 10H25V15H15z"/><path d="M10 15H15V20H10z"/><path d="M15 30L20 30 25 30 25 25 20 25 20 20 15 20 15 25z"/></g></g></svg>