<?xml version="1.0" encoding="UTF-8" standalone="no"?><svg xmlns="http://www.w3.org/2000/svg" xmlns:xlink="http://www.w3.org/1999/xlink" contentScriptType="text/ecmascript" fill="#000000" width="500" zoomAndPan="magnify" contentStyleType="text/css" viewBox="0.0 0.0 500.0 424.1" height="424.1" preserveAspectRatio="xMidYMid meet" version="1"><g id="change1_1"><path fill="#ef4434" d="M420.4,143.6v141.8l-13,9.5l-6.4,9l-2.9,19.1l-9.2,9.3l-18.5,18.1L351.9,369l-18.6,18.1l-6.4,9.2h-15l-15.6,9.3 l-18.5,9.2H213h-64.9l-18.5-9.2l-15.5-9.3H99l-6.4-9.2L74.1,369l-18.5-18.6L37,332.3l-9.2-9.3L25,303.9l-6.5-9l-13-9.5V143.6 l13-14.4l9.3-9.2V98.4l9.2-6.2l18.6-18.5l18.5-18.6L92.6,37l5.1-6.4l18.2-2.8l13.7-9.3l9.3-9.2L213,5.5l74,3.8l9.3,9.2l13.7,9.3 l18.2,2.8l5.1,6.4l18.6,18.1l18.5,18.6l18.5,18.5l9.2,6.2V120l9.3,9.2L420.4,143.6z"/></g><g id="change2_1"><path fill="#f7f7f0" d="M159.5,331.7l109-5l-3.3,17.6l-5.9,7l-18.6,18.5l-15.6,9.3l-39.9-9.3l-18.5-18.5L159.5,331.7z M55.6,185.1 l-9.3,9.2v39.8l9.3,6.5l18.5,18.6l11.1,7.7h16.7v-32.4l-9.3-12.3l-9.3-9.3l9.3-9.2l9.3-9.3V153l-27.8,13.6L55.6,185.1z M240.7,55.5 l-9.2-9.3H213h-18.6l-9.2,9.3L166.7,74l-9.3,12.5v14.9h32.8l13.5-8.9l9.3-9.3l9.2,9.3l13.6,8.9h32.7V86.5L259.3,74L240.7,55.5z M351.9,166.6l-11.2-9.3l-14.2,8.9l6.8,37.5v18.5l-6.8,40.8l18,1.6l7.4-5.4l18.5-18.6l9.2-9.2v-37.1l-9.2-9.2L351.9,166.6z M481.5,257.6l-7.4-9.2l-57.4-3V283l-9.3,11.9l-6.4,9l2.9,14.7l19.2,3.9l2.8-9.3l13.5-11.3l5,11.3l9.3,9.3h34.7v-59.1L481.5,257.6z M111.1,73.6h18.5V55.1h-18.5C111.1,55.1,111.1,73.6,111.1,73.6z M92.6,92.2H74.1v18.5h18.5h18.5V92.2V73.7H92.6V92.2z M55.6,129.2 h18.5v-18.5H55.6V129.2z"/></g><g id="change3_1"><path fill="#635c8a" d="M166.7,55.5h18.5V74h-18.5V55.5z M222.2,36.9h-18.5h-18.5v18.6h18.5h18.5h18.5V36.9H222.2z M259.2,74V55.5 h-18.5V74H259.2z M148.1,92.5v18.4v0.1v18.4h18.6v18.5h18.5v18.6h18.5h18.5h18.5v-18.6h18.6v-18.5h18.5V111v-0.1V92.5V74h-18.5v18.5 h-18.6h-18.5V74h-18.5v18.5h-18.5h-18.5V74h-18.6V92.5z M203.7,185.1v18.5h18.5v-18.5H203.7z M185.2,203.6v18.5h18.5v-18.5H185.2z M240.7,222.1v-18.5h-18.5v18.5H240.7z M203.7,240.6h18.5v-18.5h-18.5V240.6z M92.6,185.1v18.6H74.1v18.5h18.5v18.5v18.5H74.1v18.5 h18.5h18.5h18.5v-18.5h18.5v-18.6h18.6v-18.5v-18.5v-18.5h-18.6v-18.5h-18.5V148h-18.5H92.6H74.1v18.6h18.5V185.1z M74.1,166.6H55.6 v18.5h18.5V166.6z M37,203.6v18.5v18.5h18.6v-18.5v-18.5v-18.5H37V203.6z M74.1,259.1v-18.5H55.6v18.5H74.1z M333.3,148h-18.5h-18.5 v18.6h-18.5v18.5h-18.5v18.5v18.5v18.5h18.5v18.6h18.5v18.5h18.5h18.5h18.6v-18.5h-18.6v-18.5v-18.5h18.6v-18.5h-18.6v-18.6v-18.5 h18.6V148H333.3z M370.4,185.1v-18.5h-18.5v18.5H370.4z M370.4,222.1v18.5h18.5v-18.5v-18.5v-18.5h-18.5v18.5V222.1z M351.9,259.1 h18.5v-18.5h-18.5V259.1z M259.2,351.3h-18.5v18.5h18.5V351.3z M203.7,388.4h18.5h18.5v-18.6h-18.5h-18.5h-18.5v18.6H203.7z M185.2,369.8v-18.5h-18.5v18.5H185.2z M277.8,351.3v-18.5v-18.5v-18.5h-18.5v-18.5h-18.6v-18.6h-18.5h-18.5h-18.5v18.6h-18.5v18.5 h-18.6v18.5v0.4v18.1v0.4v18.1h18.6v-18.1v-0.4h18.5h18.5v18.5h18.5v-18.5h18.5h18.6v18.5H277.8z M92.6,18.5V37h18.5h18.5V18.5 h-18.5H92.6z M74.1,55.1H55.6v18.6h18.5V55.6h18.5V37H74.1V55.1z M55.5,73.7H37v18.5h18.5V73.7z M37,110.7V92.2H18.5v18.5v18.5H37 V110.7z M18.5,276.4v-18.6v-17.7v-0.8v-17.1v-0.7v-17.8v-0.4V203v-18.2v-18.6v-18.5v-18.5H0v18.5v18.5v18.6V203v0.3v0.4v17.8v0.7 v17.1v0.8v17.7v18.6v18.5h18.5V276.4z M74.1,368.5v-18.1H55.6V369h18.5v18.1h18.5v-18.6H74.1z M37,331.9v-18.1v-18.5H18.5v18.5v18.5 H37v18.1h18.6v-18.5H37z M111.1,387.1H92.6v18.5h18.5h18.5v-18.5H111.1z M314.8,18.5h-18.5V37h18.5h18.5V18.5H314.8z M351.9,55.1V37 h-18.6v18.6h18.6v18.1h18.5V55.1H351.9z M370.4,73.7v18.5h18.5V73.7H370.4z M277.8,0h-18.5h-18.6h-18.5h-18.5h-18.5h-18.5h-18.6 h-18.5v18.5h18.5h18.6h18.5h18.5h18.5h18.5h18.6h18.5h18.5V0H277.8z M407.4,92.2h-18.5v18.5v18.5h18.5v-18.5V92.2z M351.9,368.5 h-18.6v18.6h18.6V369h18.5v-18.6h-18.5V368.5z M370.4,350.4h18.5v-18.5h-18.5V350.4z M259.3,405.6h-18.6h-18.5h-18.5h-18.5h-18.5 h-18.6h-18.5v18.5h18.5h18.6h18.5h18.5h18.5h18.5h18.6h18.5h18.5v-18.5h-18.5H259.3z M296.3,387.1v18.5h18.5h18.5v-18.5h-18.5H296.3 z M407.4,294.9h-18.5v18.5v18.5h18.5v-0.2h18.5v-18.5h-18.5V294.9z M425.9,294.7v-18.3v-18.6v-0.2h18.5H463h18.5v-18.5H463h-18.6 h-18.5v-16.9v-0.7v-17.8v-0.4V203v-18.2v-18.6v-18.5v-18.5h-18.5v18.5v18.5v18.6V203v0.3v0.4v17.8v0.7v17.1v0.8v17.7v18.6v18.5h18.5 v18.3h18.5v-18.5H425.9z M481.5,257.6v18.6v18.5v18.5H463h-18.6v18.5H463h18.5H500v-18.5v-18.5v-18.5v-18.6H481.5z"/></g></svg>