<?xml version="1.0" encoding="UTF-8" standalone="no"?><svg xmlns="http://www.w3.org/2000/svg" xmlns:xlink="http://www.w3.org/1999/xlink" contentScriptType="text/ecmascript" fill="#000000" width="500" zoomAndPan="magnify" contentStyleType="text/css" viewBox="0.0 0.0 500.0 446.4" height="446.4" preserveAspectRatio="xMidYMid meet" version="1"><g id="change1_1"><path fill="#ef4434" d="M491.1,262v95.1l-9,17.9l-8.9,8.9h-17.8l-9-8.9l-8.9-8.9v-71.5l-8.9-8.9l-9-8.9l-8.9,8.9l-8.9,8.9v62.5 l-8.9,17.9l-13.8,5.5l-26,6.1l-4.9,19.9l-8.9,22.1l-8.9,13h-31.3l-13.4-13l-8.9-9l8.9-26.7l8.9-9h53.6v-32.4l-8.9-12.2l-5.5-8.9H250 h-83.8l-5.5,8.9l-8.9,12.2v32.4h53.6l8.9,9l8.9,26.7l-8.9,9l-13.4,13h-31.3l-8.9-13l-8.9-22.1l-4.9-19.9l-26-6.1l-13.8-5.5 l-8.9-17.9v-62.5l-8.9-8.9l-8.9-8.9l-9,8.9l-8.9,8.9v71.5l-8.9,8.9l-9,8.9H26.8l-8.9-8.9l-9-17.9V262l9-12l22.5-8.9l13.2-9 l17.8-35.7l17.9-17.8l17.8-35.7l9-17.9l8.9-35.7l4.5-17.9l-7.4-8.9l-15-8.9l-8.9-11.8v-15l8.9-8.9l14.4-9l21.4,9l8.9,11.8l-8.9,23.9 l-5.1,14.2l1.8,9.7l21.1,11.8l17.9,35.7l6.4,6.3l65,2.6l65-2.6l6.4-6.3l17.9-35.7l21.1-11.8l1.8-9.7l-5.1-14.2l-8.9-23.9l8.9-11.8 l21.4-9l14.4,9l8.9,8.9v15l-8.9,11.8l-15,8.9l-7.4,8.9l4.5,17.9l8.9,35.7l9,17.9l17.8,35.7l17.9,17.8l17.8,35.7l13.2,9l22.5,8.9 L491.1,262z"/></g><g id="change2_1"><path fill="#f7f7f0" d="M125,89.3h17.9v17.8v0.1V125v17.9H125V125v-17.8v-0.1V89.3z M125,17.9h-17.9v17.9H125V17.9z M107.1,160.7 L107.1,160.7v17.9H89.3v17.8H71.4v17.9h17.9v-17.8h17.9v-17.9H125v-17.8v-0.1v-17.8h-17.9V160.7z M357.1,17.9v17.9H375V17.9H357.1z"/></g><g id="change3_1"><path fill="#635c8a" d="M160.7,178.6h17.9v17.8v17.9v17.8V250h-17.9v-17.9v-17.8v-17.9V178.6z M321.4,196.4v17.9v17.8V250h17.9v-17.9 v-17.8v-17.9v-17.8h-17.9V196.4z M142.9,17.9V0H125h-17.9v17.9H125H142.9z M142.9,53.6h17.8V35.7V17.9h-17.8v17.8V53.6z M107.1,17.9 H89.3v17.8v17.9h17.8V35.7C107.1,35.7,107.1,17.9,107.1,17.9z M160.7,89.3V71.4h-17.8V53.6H125h-17.9v17.8H125v17.9h17.9 C142.9,89.3,160.7,89.3,160.7,89.3z M160.7,125h17.9v-17.9V89.3h-17.9v17.8V125z M125,125v-17.9V89.3h-17.9v17.8V125v17.9H125V125z M107.1,160.7v-17.8H89.3v17.8v17.9h17.8C107.1,178.6,107.1,160.7,107.1,160.7z M71.4,214.3v-17.8h17.9v-17.9H71.4v17.8H53.6v17.9 v17.8h17.8C71.4,232.1,71.4,214.3,71.4,214.3z M196.4,142.9h17.9h17.8H250h17.9h17.8h17.9h17.8V125h-17.8h-17.9h-17.8H250h-17.9 h-17.8h-17.9h-17.8v17.9H196.4z M53.6,250v-17.9H35.7H17.9V250h17.8H53.6z M17.9,339.3v-17.9v-17.8v-17.9v-17.8V250H0v17.9v17.8 v17.9v17.8v17.9v17.8V375h17.9v-17.9V339.3z M107.1,339.3v-17.9v-17.8v-17.9H89.3v-17.8H71.4v17.8H53.6v17.9v17.8v17.9v17.8V375 h17.8v-17.9v-17.8v-17.9v-17.8v-17.8h17.9v17.8v17.8v17.9v17.8V375h17.8v-17.9C107.1,357.1,107.1,339.3,107.1,339.3z M17.9,375v17.9 h17.8h17.9V375H35.7H17.9z M142.9,357.1V375H125h-17.9v17.9H125h17.9v17.8v17.9h17.8v-17.9v-17.8h17.9h17.8h17.9V375h-17.9h-17.8 h-17.9v-17.9v-17.8h-17.8V357.1z M214.3,428.6h17.8v-17.9v-17.8h-17.8v17.8V428.6z M178.6,428.6h-17.9v17.8h17.9h17.8h17.9v-17.8 h-17.9H178.6z M392.9,17.9V0H375h-17.9v17.9H375H392.9z M392.9,53.6h17.8V35.7V17.9h-17.8v17.8V53.6z M357.1,17.9h-17.8v17.8v17.9 h17.8V35.7V17.9z M375,89.3V71.4h17.9V53.6H375h-17.9v17.8h-17.8v17.9h17.8C357.1,89.3,375,89.3,375,89.3z M375,125v17.9h17.9V125 v-17.9V89.3H375v17.8V125z M339.3,107.1V89.3h-17.9v17.8V125h17.9V107.1z M392.9,178.6h17.8v-17.9v-17.8h-17.8v17.8V178.6z M428.6,196.5v17.8v17.8h17.8v-17.8v-17.9L428.6,196.5v-17.9h-17.9v17.9H428.6z M464.3,250h17.8v-17.9h-17.8h-17.9V250H464.3z M482.1,250v17.9v17.8v17.9v17.8v17.9v17.8V375H500v-17.9v-17.8v-17.9v-17.8v-17.9v-17.8V250H482.1z M446.4,339.3v-17.9v-17.8v-17.9 h-17.8v-17.8h-17.9v17.8h-17.8v17.9v17.8v17.9v17.8V375h17.8v-17.9v-17.8v-17.9v-17.8v-17.8h17.9v17.8v17.8v17.9v17.8V375h17.8 v-17.9V339.3z M446.4,375v17.9h17.9h17.8V375h-17.8H446.4z M357.1,375v-17.9v-17.8h-17.8v17.8V375h-17.9h-17.8h-17.9v17.9h17.9h17.8 h17.9v17.8v17.9h17.8v-17.9v-17.8H375h17.9V375H375H357.1z M321.4,321.4h-17.8h-17.9h-17.8H250h-17.9h-17.8h-17.9h-17.8h-17.9v17.9 h17.9h17.8h17.9h17.8H250h17.9h17.8h17.9h17.8h17.9v-17.9H321.4z M285.7,392.9h-17.8v17.8v17.9h17.8v-17.9V392.9z M303.6,428.6 h-17.9v17.8h17.9h17.8h17.9v-17.8h-17.9H303.6z"/></g></svg>