<?xml version="1.0" encoding="utf-8"?>
<!-- Generator: Adobe Illustrator 27.5.0, SVG Export Plug-In . SVG Version: 6.00 Build 0)  -->
<svg version="1.1" id="Layer_1" xmlns="http://www.w3.org/2000/svg" xmlns:xlink="http://www.w3.org/1999/xlink" x="0px" y="0px"
	 viewBox="0 0 2372 1898" style="enable-background:new 0 0 2372 1898;" xml:space="preserve">
<g>
	<rect transform="matrix(-1 -1.224647e-16 1.224647e-16 -1 2371.7083 1897.3666)" width="2371.708" height="1897.367"/>
	<polygon style="fill:#FFFFFF;" points="2081.665,1014.926 1902.951,1006.778 2081.665,998.645 2089.798,819.925 2097.941,998.645 
		2276.656,1006.778 2097.941,1014.926 2089.798,1193.624 	"/>
	<!--<g>
		<g>
			<polygon style="fill:#FFFFFF;" points="178.827,1140.87 181.652,1059.161 175.24,1059.161 178.065,1140.87 			"/>
			<polygon style="fill:#FFFFFF;" points="181.059,1141.959 235.746,1081.179 230.834,1077.064 180.481,1141.471 			"/>
			<polygon style="fill:#FFFFFF;" points="182.061,1144.228 263.032,1132.817 261.916,1126.505 181.931,1143.479 			"/>
			<polygon style="fill:#FFFFFF;" points="181.383,1146.61 250.742,1189.918 253.935,1184.365 181.762,1145.952 			"/>
			<polygon style="fill:#FFFFFF;" points="179.326,1147.994 204.618,1225.755 210.642,1223.564 180.033,1147.733 			"/>
			<polygon style="fill:#FFFFFF;" points="176.854,1147.733 146.255,1223.564 152.288,1225.755 177.577,1147.994 			"/>
			<polygon style="fill:#FFFFFF;" points="175.156,1145.952 102.957,1184.365 106.16,1189.918 175.529,1146.61 			"/>
			<polygon style="fill:#FFFFFF;" points="174.981,1143.485 94.976,1126.51 93.865,1132.819 174.846,1144.236 			"/>
			<polygon style="fill:#FFFFFF;" points="176.426,1141.488 126.054,1077.064 121.136,1081.179 175.853,1141.974 			"/>
		</g>
		<path style="fill:#FFFFFF;" d="M171.235,1144.472c0,3.98,3.228,7.211,7.214,7.211c3.976,0,7.204-3.231,7.204-7.211
			c0-3.978-3.228-7.204-7.204-7.204C174.463,1137.268,171.235,1140.495,171.235,1144.472z"/>
	</g>
	<g>
		<g>
			<polygon style="fill:#FFFFFF;" points="1961.615,626.784 1964.441,545.075 1958.029,545.075 1960.853,626.784 			"/>
			<polygon style="fill:#FFFFFF;" points="1963.848,627.873 2018.535,567.093 2013.623,562.978 1963.27,627.385 			"/>
			<polygon style="fill:#FFFFFF;" points="1964.849,630.142 2045.82,618.731 2044.705,612.419 1964.719,629.393 			"/>
			<polygon style="fill:#FFFFFF;" points="1964.172,632.523 2033.53,675.831 2036.724,670.279 1964.55,631.866 			"/>
			<polygon style="fill:#FFFFFF;" points="1962.114,633.908 1987.407,711.669 1993.431,709.477 1962.821,633.647 			"/>
			<polygon style="fill:#FFFFFF;" points="1959.643,633.647 1929.043,709.477 1935.077,711.669 1960.365,633.908 			"/>
			<polygon style="fill:#FFFFFF;" points="1957.944,631.866 1885.745,670.279 1888.948,675.831 1958.318,632.523 			"/>
			<polygon style="fill:#FFFFFF;" points="1957.769,629.4 1877.764,612.424 1876.653,618.733 1957.635,630.15 			"/>
			<polygon style="fill:#FFFFFF;" points="1959.214,627.402 1908.842,562.978 1903.924,567.093 1958.642,627.887 			"/>
		</g>
		<path style="fill:#FFFFFF;" d="M1954.023,630.386c0,3.98,3.229,7.211,7.215,7.211c3.975,0,7.203-3.231,7.203-7.211
			c0-3.978-3.228-7.204-7.203-7.204C1957.252,623.182,1954.023,626.408,1954.023,630.386z"/>
	</g>
	<polygon style="fill:#FFFFFF;" points="1013.752,261.277 951.444,224.077 1013.752,186.889 1050.962,124.556 1088.154,186.879 
		1150.479,224.077 1088.154,261.263 1050.962,323.595 	"/>
	<g>
		<polygon style="fill:#FFFFFF;" points="693.777,1625.244 631.641,1618.648 693.777,1612.051 700.383,1549.909 706.969,1612.051 
			769.114,1618.648 706.969,1625.244 700.383,1687.384 		"/>
		<polygon style="fill:#FFFFFF;" points="635.736,1695.908 602.328,1692.361 635.736,1688.814 639.284,1655.402 642.831,1688.814 
			676.24,1692.361 642.831,1695.908 639.284,1729.315 		"/>
		<polygon style="fill:#FFFFFF;" points="582.13,1564.912 548.732,1561.363 582.13,1557.816 585.688,1524.406 589.235,1557.816 
			622.634,1561.363 589.235,1564.912 585.688,1598.319 		"/>
	</g>
	<g>
		<g>
			<path style="fill:#FF4106;" d="M1200.495,1246.762c0-38.277-29.337-89.033-51.463-89.033c-1.821,0-3.294-1.473-3.294-3.294
				c0-1.821,1.473-3.294,3.294-3.294c22.125,0,51.463-50.755,51.463-89.032c0-1.821,1.473-3.294,3.294-3.294
				s3.294,1.473,3.294,3.294c0,38.277,29.334,89.032,51.453,89.032c1.82,0,3.294,1.473,3.294,3.294c0,1.821-1.474,3.294-3.294,3.294
				c-22.119,0-51.453,50.755-51.453,89.033c0,1.82-1.473,3.294-3.294,3.294S1200.495,1248.583,1200.495,1246.762z
				 M1203.789,1087.555c-7.196,29.215-25.098,57.462-42.864,66.881c17.766,9.419,35.668,37.666,42.864,66.881
				c7.193-29.216,25.095-57.463,42.858-66.881C1228.884,1145.017,1210.982,1116.77,1203.789,1087.555z"/>
		</g>
		<g>
			<path style="fill:#FF4106;" d="M1090.119,1331.339c0-28.704-22.212-63.23-36.164-63.23c-1.82,0-3.294-1.473-3.294-3.294
				c0-1.821,1.474-3.294,3.294-3.294c13.951,0,36.164-34.526,36.164-63.23c0-1.821,1.473-3.294,3.294-3.294s3.294,1.473,3.294,3.294
				c0,28.704,22.203,63.23,36.151,63.23c1.821,0,3.294,1.473,3.294,3.294c0,1.821-1.473,3.294-3.294,3.294
				c-13.948,0-36.151,34.526-36.151,63.23c0,1.82-1.473,3.294-3.294,3.294S1090.119,1333.16,1090.119,1331.339z M1093.413,1219.728
				c-5.385,18.88-16.696,37.682-28.916,45.087c12.221,7.405,23.531,26.207,28.916,45.088c5.382-18.88,16.689-37.682,28.907-45.088
				C1110.102,1257.41,1098.795,1238.608,1093.413,1219.728z"/>
		</g>
		<g>
			<path style="fill:#FF4106;" d="M1057.149,1167.673c0-18.831-14.286-41.481-23.258-41.481c-1.82,0-3.294-1.473-3.294-3.294
				c0-1.821,1.474-3.294,3.294-3.294c8.972,0,23.258-22.646,23.258-41.478c0-1.821,1.473-3.294,3.294-3.294s3.294,1.473,3.294,3.294
				c0,18.831,14.28,41.478,23.248,41.478c1.821,0,3.294,1.473,3.294,3.294c0,1.821-1.473,3.294-3.294,3.294
				c-8.968,0-23.248,22.65-23.248,41.481c0,1.821-1.473,3.294-3.294,3.294S1057.149,1169.494,1057.149,1167.673z M1060.443,1096.04
				c-3.78,11.095-10.39,21.685-17.628,26.858c7.238,5.173,13.849,15.763,17.628,26.858c3.777-11.095,10.387-21.685,17.622-26.858
				C1070.831,1117.725,1064.22,1107.135,1060.443,1096.04z"/>
		</g>
	</g>
	<path style="fill:#FFFFFF;" d="M2163.474,735.701c-27.059,17.941-19.931,35.147,11.888,28.7
		c-6.447,31.82,10.759,38.947,28.7,11.888c17.941,27.059,35.147,19.932,28.7-11.888c31.82,6.447,38.947-10.759,11.888-28.7
		c27.059-17.941,19.932-35.147-11.888-28.7c6.447-31.82-10.76-38.947-28.7-11.888c-17.941-27.059-35.147-19.932-28.7,11.888
		C2143.543,700.554,2136.415,717.761,2163.474,735.701z"/>
	<path style="fill:#FFFFFF;" d="M211.896,194.411c-69.735,57.77-22.903,104.602,34.867,34.867
		c57.77,69.734,104.602,22.902,34.867-34.867c69.734-57.77,22.903-104.602-34.867-34.867
		C188.993,89.809,142.161,136.641,211.896,194.411z"/>
	<path style="fill:#FFFFFF;" d="M376.459,194.411c-29.991,24.846-9.85,44.987,14.996,14.996
		c24.846,29.991,44.987,9.85,14.996-14.996c29.991-24.845,9.85-44.987-14.996-14.995
		C366.609,149.424,346.468,169.566,376.459,194.411z"/>
	<g>
		<g>
			<path style="fill:#FFFFFF;" d="M471.467,1118.195c1.276,0,2.31-1.034,2.31-2.31c0-1.275-1.034-2.31-2.31-2.31
				c-1.276,0-2.31,1.034-2.31,2.31C469.157,1117.161,470.19,1118.195,471.467,1118.195z"/>
			<path style="fill:#FFFFFF;" d="M523.816,1135.052c1.45,0,2.625-1.175,2.625-2.625c0-1.449-1.175-2.625-2.625-2.625
				c-1.449,0-2.624,1.175-2.624,2.625C521.192,1133.877,522.367,1135.052,523.816,1135.052z"/>
			<path style="fill:#FFFFFF;" d="M577.828,1145.278c1.624,0,2.94-1.316,2.94-2.939s-1.316-2.939-2.94-2.939
				c-1.623,0-2.939,1.316-2.939,2.939S576.204,1145.278,577.828,1145.278z"/>
			<path style="fill:#FFFFFF;" d="M632.657,1148.772c1.797,0,3.253-1.457,3.253-3.255c0-1.797-1.456-3.253-3.253-3.253
				c-1.797,0-3.254,1.457-3.254,3.253C629.403,1147.315,630.86,1148.772,632.657,1148.772z"/>
			<path style="fill:#FFFFFF;" d="M687.49,1145.548c1.971,0,3.567-1.598,3.567-3.569c0-1.97-1.597-3.568-3.567-3.568
				c-1.971,0-3.569,1.598-3.569,3.568C683.922,1143.95,685.519,1145.548,687.49,1145.548z"/>
			<path style="fill:#FFFFFF;" d="M741.453,1135.584c2.144,0,3.883-1.738,3.883-3.882c0-2.145-1.739-3.884-3.883-3.884
				c-2.145,0-3.883,1.739-3.883,3.884C737.57,1133.846,739.308,1135.584,741.453,1135.584z"/>
			<path style="fill:#FFFFFF;" d="M793.712,1118.994c2.318,0,4.198-1.879,4.198-4.198c0-2.318-1.88-4.197-4.198-4.197
				c-2.318,0-4.198,1.879-4.198,4.197C789.514,1117.115,791.394,1118.994,793.712,1118.994z"/>
			<path style="fill:#FFFFFF;" d="M843.465,1096.047c2.492,0,4.513-2.02,4.513-4.512c0-2.492-2.021-4.513-4.513-4.513
				c-2.492,0-4.513,2.021-4.513,4.513C838.952,1094.027,840.973,1096.047,843.465,1096.047z"/>
			<path style="fill:#FFFFFF;" d="M889.961,1067.13c2.666,0,4.826-2.161,4.826-4.827c0-2.666-2.161-4.827-4.826-4.827
				c-2.665,0-4.827,2.161-4.827,4.827C885.134,1064.968,887.296,1067.13,889.961,1067.13z"/>
			<path style="fill:#FFFFFF;" d="M932.523,1032.704c2.839,0,5.141-2.302,5.141-5.142c0-2.839-2.302-5.142-5.141-5.142
				c-2.84,0-5.142,2.302-5.142,5.142C927.381,1030.402,929.683,1032.704,932.523,1032.704z"/>
			<path style="fill:#FFFFFF;" d="M970.51,993.326c3.013,0,5.456-2.443,5.456-5.456c0-3.013-2.443-5.456-5.456-5.456
				s-5.456,2.443-5.456,5.456C965.053,990.883,967.496,993.326,970.51,993.326z"/>
			<path style="fill:#FFFFFF;" d="M1003.332,949.588c3.187,0,5.771-2.583,5.771-5.771c0-3.187-2.584-5.771-5.771-5.771
				s-5.771,2.584-5.771,5.771C997.562,947.005,1000.145,949.588,1003.332,949.588z"/>
			<path style="fill:#FFFFFF;" d="M1030.427,902.127c3.361,0,6.086-2.725,6.086-6.086c0-3.361-2.725-6.085-6.086-6.085
				c-3.361,0-6.085,2.725-6.085,6.085C1024.342,899.402,1027.067,902.127,1030.427,902.127z"/>
			<circle style="fill:#FFFFFF;" cx="1051.368" cy="845.27" r="6.4"/>
			<path style="fill:#FFFFFF;" d="M1065.851,799.016c3.708,0,6.715-3.006,6.715-6.715c0-3.708-3.006-6.714-6.715-6.714
				s-6.715,3.006-6.715,6.714C1059.136,796.01,1062.142,799.016,1065.851,799.016z"/>
			<circle style="fill:#FFFFFF;" cx="1073.689" cy="737.961" r="7.03"/>
			<path style="fill:#FFFFFF;" d="M1074.792,690.422c4.056,0,7.344-3.288,7.344-7.344c0-4.056-3.288-7.344-7.344-7.344
				c-4.057,0-7.344,3.288-7.344,7.344C1067.447,687.134,1070.735,690.422,1074.792,690.422z"/>
			<path style="fill:#FFFFFF;" d="M1069.147,636.14c4.23,0,7.659-3.429,7.659-7.659c0-4.23-3.428-7.659-7.659-7.659
				s-7.659,3.429-7.659,7.659C1061.488,632.711,1064.917,636.14,1069.147,636.14z"/>
			
				<ellipse transform="matrix(0.7071 -0.7071 0.7071 0.7071 -97.0467 915.6997)" style="fill:#FFFFFF;" cx="1056.824" cy="574.996" rx="7.974" ry="7.974"/>
			<path style="fill:#FFFFFF;" d="M1037.976,531.731c4.577,0,8.288-3.71,8.288-8.288s-3.71-8.288-8.288-8.288
				s-8.288,3.71-8.288,8.288S1033.399,531.731,1037.976,531.731z"/>
			<path style="fill:#FFFFFF;" d="M1012.864,483.226c4.751,0,8.603-3.851,8.603-8.603c0-4.751-3.851-8.603-8.603-8.603
				s-8.603,3.851-8.603,8.603C1004.26,479.374,1008.112,483.226,1012.864,483.226z"/>
			<path style="fill:#FFFFFF;" d="M981.873,438.208c4.925,0,8.918-3.992,8.918-8.918c0-4.925-3.992-8.917-8.918-8.917
				c-4.925,0-8.917,3.992-8.917,8.917C972.956,434.216,976.947,438.208,981.873,438.208z"/>
			
				<ellipse transform="matrix(0.9991 -0.0428 0.0428 0.9991 -15.7361 40.8202)" style="fill:#FFFFFF;" cx="945.253" cy="387.836" rx="9.232" ry="9.232"/>
		</g>
		<g>
			<path style="fill:#FFFFFF;" d="M631.211,260.009c1.276,0,2.31-1.034,2.31-2.31c0-1.276-1.034-2.31-2.31-2.31
				c-1.275,0-2.31,1.034-2.31,2.31C628.901,258.975,629.936,260.009,631.211,260.009z"/>
			<circle style="fill:#FFFFFF;" cx="576.268" cy="260.892" r="2.674"/>
			<path style="fill:#FFFFFF;" d="M522.114,273.713c1.678,0,3.038-1.36,3.038-3.038c0-1.679-1.36-3.039-3.038-3.039
				c-1.678,0-3.038,1.361-3.038,3.039C519.075,272.353,520.436,273.713,522.114,273.713z"/>
			<path style="fill:#FFFFFF;" d="M469.593,290.59c1.879,0,3.403-1.524,3.403-3.403c0-1.88-1.524-3.403-3.403-3.403
				c-1.88,0-3.403,1.524-3.403,3.403C466.19,289.066,467.713,290.59,469.593,290.59z"/>
			<path style="fill:#FFFFFF;" d="M419.643,314.06c2.081,0,3.768-1.686,3.768-3.767s-1.687-3.767-3.768-3.767
				s-3.767,1.687-3.767,3.767S417.563,314.06,419.643,314.06z"/>
			<path style="fill:#FFFFFF;" d="M373.091,343.761c2.281,0,4.131-1.85,4.131-4.132c0-2.281-1.85-4.131-4.131-4.131
				c-2.282,0-4.131,1.85-4.131,4.131C368.959,341.911,370.809,343.761,373.091,343.761z"/>
			<path style="fill:#FFFFFF;" d="M330.661,379.137c2.484,0,4.496-2.013,4.496-4.496c0-2.483-2.013-4.496-4.496-4.496
				c-2.482,0-4.495,2.013-4.495,4.496C326.166,377.125,328.178,379.137,330.661,379.137z"/>
			<path style="fill:#FFFFFF;" d="M292.947,419.524c2.685,0,4.861-2.175,4.861-4.859c0-2.685-2.176-4.861-4.861-4.861
				c-2.683,0-4.86,2.176-4.86,4.861C288.087,417.349,290.263,419.524,292.947,419.524z"/>
			<path style="fill:#FFFFFF;" d="M260.391,464.255c2.885,0,5.224-2.339,5.224-5.224c0-2.886-2.339-5.225-5.224-5.225
				c-2.886,0-5.224,2.339-5.224,5.225C255.167,461.915,257.506,464.255,260.391,464.255z"/>
			<path style="fill:#FFFFFF;" d="M233.409,512.579c3.087,0,5.589-2.503,5.589-5.589c0-3.087-2.502-5.589-5.589-5.589
				s-5.589,2.502-5.589,5.589C227.82,510.076,230.322,512.579,233.409,512.579z"/>
			<path style="fill:#FFFFFF;" d="M212.336,563.776c3.288,0,5.953-2.666,5.953-5.953c0-3.288-2.665-5.954-5.953-5.954
				c-3.288,0-5.953,2.665-5.953,5.954C206.383,561.111,209.048,563.776,212.336,563.776z"/>
			<path style="fill:#FFFFFF;" d="M197.472,617.121c3.489,0,6.317-2.828,6.317-6.317c0-3.489-2.828-6.317-6.317-6.317
				c-3.489,0-6.318,2.828-6.318,6.317C191.154,614.293,193.983,617.121,197.472,617.121z"/>
			<path style="fill:#FFFFFF;" d="M189.094,671.869c3.691,0,6.682-2.992,6.682-6.682s-2.991-6.682-6.682-6.682
				c-3.69,0-6.682,2.992-6.682,6.682S185.404,671.869,189.094,671.869z"/>
			<path style="fill:#FFFFFF;" d="M187.44,727.23c3.891,0,7.047-3.155,7.047-7.047c0-3.891-3.155-7.045-7.047-7.045
				c-3.892,0-7.045,3.154-7.045,7.045C180.395,724.075,183.548,727.23,187.44,727.23z"/>
			<path style="fill:#FFFFFF;" d="M192.675,782.365c4.093,0,7.411-3.318,7.411-7.41c0-4.093-3.318-7.41-7.411-7.41
				c-4.092,0-7.41,3.318-7.41,7.41C185.265,779.047,188.582,782.365,192.675,782.365z"/>
			<path style="fill:#FFFFFF;" d="M204.845,836.388c4.294,0,7.775-3.481,7.775-7.775c0-4.294-3.481-7.775-7.775-7.775
				c-4.294,0-7.775,3.481-7.775,7.775C197.07,832.906,200.551,836.388,204.845,836.388z"/>
			
				<ellipse transform="matrix(0.3328 -0.943 0.943 0.3328 -680.7462 798.3613)" style="fill:#FFFFFF;" cx="223.822" cy="880.258" rx="8.139" ry="8.139"/>
			<path style="fill:#FFFFFF;" d="M249.27,937.549c4.697,0,8.503-3.807,8.503-8.503c0-4.697-3.807-8.504-8.503-8.504
				c-4.696,0-8.503,3.807-8.503,8.504C240.767,933.742,244.574,937.549,249.27,937.549z"/>
			<path style="fill:#FFFFFF;" d="M280.628,983.107c4.898,0,8.868-3.971,8.868-8.868c0-4.898-3.971-8.867-8.868-8.867
				c-4.897,0-8.867,3.97-8.867,8.867C271.761,979.136,275.732,983.107,280.628,983.107z"/>
			<path style="fill:#FFFFFF;" d="M317.327,1024.703c5.098,0,9.232-4.133,9.232-9.233c0-5.098-4.133-9.232-9.232-9.232
				c-5.099,0-9.233,4.134-9.233,9.232C308.095,1020.569,312.228,1024.703,317.327,1024.703z"/>
		</g>
		<g>
			<path style="fill:#FFFFFF;" d="M1004.77,601.837c1.275,0,2.309-1.034,2.309-2.31c0-1.276-1.034-2.31-2.309-2.31
				c-1.276,0-2.31,1.034-2.31,2.31C1002.459,600.802,1003.494,601.837,1004.77,601.837z"/>
			<path style="fill:#FFFFFF;" d="M986.174,549.18c1.376,0,2.492-1.115,2.492-2.492c0-1.376-1.116-2.492-2.492-2.492
				c-1.376,0-2.492,1.116-2.492,2.492C983.682,548.065,984.798,549.18,986.174,549.18z"/>
			<path style="fill:#FFFFFF;" d="M960.159,499.776c1.477,0,2.674-1.197,2.674-2.674c0-1.477-1.197-2.673-2.674-2.673
				c-1.477,0-2.674,1.196-2.674,2.673C957.485,498.578,958.682,499.776,960.159,499.776z"/>
			<path style="fill:#FFFFFF;" d="M927.224,454.681c1.578,0,2.856-1.279,2.856-2.856c0-1.578-1.278-2.857-2.856-2.857
				c-1.577,0-2.857,1.279-2.857,2.857C924.367,453.402,925.647,454.681,927.224,454.681z"/>
			<path style="fill:#FFFFFF;" d="M888.082,414.833c1.678,0,3.038-1.36,3.038-3.038s-1.36-3.038-3.038-3.038
				c-1.679,0-3.039,1.36-3.039,3.038S886.404,414.833,888.082,414.833z"/>
			<path style="fill:#FFFFFF;" d="M843.555,381.018c1.779,0,3.22-1.442,3.22-3.221c0-1.778-1.441-3.22-3.22-3.22
				s-3.221,1.442-3.221,3.22C840.334,379.575,841.776,381.018,843.555,381.018z"/>
			<path style="fill:#FFFFFF;" d="M794.641,353.933c1.879,0,3.403-1.523,3.403-3.403c0-1.88-1.524-3.403-3.403-3.403
				c-1.88,0-3.403,1.523-3.403,3.403C791.238,352.409,792.761,353.933,794.641,353.933z"/>
			<path style="fill:#FFFFFF;" d="M742.324,334.138c1.98,0,3.585-1.605,3.585-3.585c0-1.98-1.605-3.584-3.585-3.584
				c-1.98,0-3.585,1.605-3.585,3.584C738.738,332.533,740.344,334.138,742.324,334.138z"/>
			<path style="fill:#FFFFFF;" d="M687.675,322.144c2.081,0,3.768-1.687,3.768-3.767s-1.687-3.767-3.768-3.767
				c-2.081,0-3.767,1.687-3.767,3.767S685.594,322.144,687.675,322.144z"/>
			<path style="fill:#FFFFFF;" d="M631.845,318.213c2.181,0,3.949-1.768,3.949-3.95c0-2.181-1.768-3.95-3.949-3.95
				s-3.95,1.768-3.95,3.95C627.895,316.444,629.664,318.213,631.845,318.213z"/>
			<circle style="fill:#FFFFFF;" cx="576.017" cy="318.255" r="4.131"/>
			<path style="fill:#FFFFFF;" d="M521.351,334.535c2.382,0,4.313-1.931,4.313-4.313c0-2.382-1.931-4.314-4.313-4.314
				c-2.382,0-4.314,1.932-4.314,4.314C517.037,332.604,518.969,334.535,521.351,334.535z"/>
			<path style="fill:#FFFFFF;" d="M468.972,354.396c2.483,0,4.496-2.013,4.496-4.496c0-2.482-2.013-4.496-4.496-4.496
				c-2.482,0-4.495,2.013-4.495,4.496C464.477,352.383,466.49,354.396,468.972,354.396z"/>
			<circle style="fill:#FFFFFF;" cx="419.97" cy="376.905" r="4.678"/>
			<path style="fill:#FFFFFF;" d="M375.383,415.575c2.685,0,4.861-2.176,4.861-4.86s-2.176-4.86-4.861-4.86
				c-2.684,0-4.86,2.176-4.86,4.86S372.699,415.575,375.383,415.575z"/>
			<path style="fill:#FFFFFF;" d="M336.167,455.693c2.785,0,5.043-2.258,5.043-5.042c0-2.785-2.257-5.043-5.043-5.043
				c-2.785,0-5.042,2.258-5.042,5.043C331.125,453.435,333.382,455.693,336.167,455.693z"/>
			<path style="fill:#FFFFFF;" d="M303.121,501.081c2.886,0,5.224-2.339,5.224-5.224c0-2.886-2.339-5.224-5.224-5.224
				c-2.885,0-5.224,2.339-5.224,5.224C297.897,498.743,300.236,501.081,303.121,501.081z"/>
			<path style="fill:#FFFFFF;" d="M276.876,550.722c2.986,0,5.406-2.42,5.406-5.407c0-2.986-2.421-5.406-5.406-5.406
				c-2.987,0-5.407,2.421-5.407,5.406C271.47,548.302,273.889,550.722,276.876,550.722z"/>
			<path style="fill:#FFFFFF;" d="M258.002,603.604c3.087,0,5.589-2.502,5.589-5.589s-2.502-5.589-5.589-5.589
				c-3.086,0-5.589,2.502-5.589,5.589S254.915,603.604,258.002,603.604z"/>
			<path style="fill:#FFFFFF;" d="M246.938,658.654c3.187,0,5.77-2.584,5.77-5.771c0-3.188-2.584-5.771-5.77-5.771
				c-3.188,0-5.771,2.583-5.771,5.771C241.167,656.07,243.75,658.654,246.938,658.654z"/>
			<path style="fill:#FFFFFF;" d="M243.948,714.732c3.287,0,5.953-2.666,5.953-5.954c0-3.287-2.666-5.953-5.953-5.953
				c-3.288,0-5.954,2.666-5.954,5.953C237.994,712.067,240.66,714.732,243.948,714.732z"/>
			<path style="fill:#FFFFFF;" d="M249.085,770.646c3.388,0,6.136-2.747,6.136-6.136c0-3.388-2.747-6.135-6.136-6.135
				c-3.388,0-6.135,2.747-6.135,6.135C242.949,767.898,245.696,770.646,249.085,770.646z"/>
			<path style="fill:#FFFFFF;" d="M262.155,825.29c3.489,0,6.318-2.829,6.318-6.318c0-3.489-2.829-6.317-6.318-6.317
				c-3.489,0-6.317,2.828-6.317,6.317C255.837,822.461,258.666,825.29,262.155,825.29z"/>
			<path style="fill:#FFFFFF;" d="M282.619,877.588c3.59,0,6.5-2.91,6.5-6.5c0-3.589-2.91-6.499-6.5-6.499
				c-3.59,0-6.5,2.91-6.5,6.499C276.12,874.678,279.029,877.588,282.619,877.588z"/>
			<circle style="fill:#FFFFFF;" cx="310.35" cy="919.723" r="6.682"/>
			<path style="fill:#FFFFFF;" d="M345.01,970.567c3.791,0,6.864-3.073,6.864-6.864s-3.073-6.864-6.864-6.864
				c-3.791,0-6.864,3.073-6.864,6.864S341.219,970.567,345.01,970.567z"/>
			<path style="fill:#FFFFFF;" d="M385.863,1009.023c3.892,0,7.046-3.155,7.046-7.046c0-3.892-3.154-7.047-7.046-7.047
				s-7.046,3.155-7.046,7.047C378.817,1005.868,381.971,1009.023,385.863,1009.023z"/>
			<path style="fill:#FFFFFF;" d="M431.926,1040.987c3.992,0,7.228-3.236,7.228-7.227c0-3.992-3.236-7.228-7.228-7.228
				s-7.228,3.236-7.228,7.228C424.697,1037.751,427.933,1040.987,431.926,1040.987z"/>
			<path style="fill:#FFFFFF;" d="M482.092,1065.928c4.092,0,7.41-3.318,7.41-7.41c0-4.093-3.318-7.41-7.41-7.41
				s-7.41,3.317-7.41,7.41C474.682,1062.61,477.999,1065.928,482.092,1065.928z"/>
			<path style="fill:#FFFFFF;" d="M535.3,1083.522c4.193,0,7.593-3.4,7.593-7.593c0-4.193-3.399-7.592-7.593-7.592
				c-4.193,0-7.592,3.399-7.592,7.592C527.708,1080.123,531.108,1083.522,535.3,1083.522z"/>
			<path style="fill:#FFFFFF;" d="M590.417,1093.527c4.294,0,7.775-3.481,7.775-7.775c0-4.294-3.481-7.775-7.775-7.775
				c-4.294,0-7.775,3.481-7.775,7.775C582.642,1090.046,586.123,1093.527,590.417,1093.527z"/>
			<path style="fill:#FFFFFF;" d="M646.362,1095.785c4.394,0,7.956-3.563,7.956-7.957c0-4.394-3.563-7.956-7.956-7.956
				c-4.395,0-7.957,3.562-7.957,7.956C638.405,1092.222,641.967,1095.785,646.362,1095.785z"/>
			<circle style="fill:#FFFFFF;" cx="702.043" cy="1082.052" r="8.139"/>
			<path style="fill:#FFFFFF;" d="M756.328,1076.709c4.596,0,8.321-3.726,8.321-8.321c0-4.596-3.726-8.321-8.321-8.321
				c-4.595,0-8.321,3.726-8.321,8.321C748.007,1072.983,751.733,1076.709,756.328,1076.709z"/>
			<path style="fill:#FFFFFF;" d="M808.03,1055.44c4.696,0,8.504-3.807,8.504-8.503c0-4.697-3.808-8.504-8.504-8.504
				c-4.697,0-8.503,3.807-8.503,8.504C799.527,1051.633,803.333,1055.44,808.03,1055.44z"/>
			<path style="fill:#FFFFFF;" d="M855.956,1026.701c4.797,0,8.685-3.888,8.685-8.685c0-4.797-3.888-8.686-8.685-8.686
				c-4.797,0-8.686,3.888-8.686,8.686C847.27,1022.813,851.159,1026.701,855.956,1026.701z"/>
			<path style="fill:#FFFFFF;" d="M899.005,991.099c4.897,0,8.867-3.97,8.867-8.868c0-4.897-3.97-8.867-8.867-8.867
				c-4.898,0-8.868,3.971-8.868,8.867C890.136,987.129,894.106,991.099,899.005,991.099z"/>
			<path style="fill:#FFFFFF;" d="M936.285,949.556c4.998,0,9.05-4.052,9.05-9.05c0-4.998-4.052-9.049-9.05-9.049
				c-4.998,0-9.049,4.052-9.049,9.049C927.236,945.505,931.287,949.556,936.285,949.556z"/>
			<path style="fill:#FFFFFF;" d="M967.52,902.781c5.099,0,9.233-4.133,9.233-9.233c0-5.098-4.133-9.232-9.233-9.232
				c-5.099,0-9.232,4.133-9.232,9.232C958.288,898.648,962.421,902.781,967.52,902.781z"/>
		</g>
	</g>-->
	<g>
		<path style="fill:#FF4106;" d="M1961.204,327.426c67.473,41.473,101.091,75.092,142.569,142.576
			c41.473-67.484,75.099-101.103,142.568-142.576c-67.469-41.474-101.095-75.1-142.568-142.576
			C2062.295,252.325,2028.677,285.952,1961.204,327.426z"/>
		<path style="fill:#FF4106;" d="M1818.142,411.956c34.095,20.957,51.083,37.945,72.041,72.045
			c20.956-34.1,37.948-51.088,72.041-72.045c-34.093-20.957-51.085-37.948-72.041-72.045
			C1869.224,374.008,1852.236,390.999,1818.142,411.956z"/>
		<path style="fill:#FF4106;" d="M1920.186,180.575c19.694,12.106,29.507,21.918,41.614,41.616
			c12.105-19.698,21.92-29.51,41.613-41.616c-19.693-12.106-29.508-21.921-41.613-41.615
			C1949.692,158.654,1939.88,168.469,1920.186,180.575z"/>
	</g>
	<path style="fill:#FFFFFF;" d="M1634.363,1113.937c15.531,77.909,132.09,29.625,87.965-36.421
		c44.125,66.046,133.337-23.177,67.28-67.304c66.057,44.127,114.33-72.434,36.433-87.953c77.897,15.52,77.897-110.663,0-95.166
		c77.897-15.497,29.625-132.056-36.433-87.931c66.057-44.125-23.155-133.349-67.28-67.314
		c44.125-66.036-72.434-114.318-87.965-36.408c15.531-77.91-110.663-77.91-95.179,0c-15.485-77.91-132.068-29.627-87.918,36.408
		c-44.149-66.036-133.359,23.189-67.302,67.314c-66.057-44.125-114.33,72.434-36.408,87.931c-77.922-15.497-77.922,110.686,0,95.166
		c-77.922,15.52-29.649,132.08,36.408,87.953c-66.057,44.127,23.152,133.349,67.302,67.304
		c-44.149,66.046,72.434,114.33,87.918,36.421C1523.7,1191.847,1649.895,1191.847,1634.363,1113.937z"/>
	<g>
		<path style="fill:#FF4106;" d="M297.794,1586.26c-10.68-46.513-46.988-82.827-93.496-93.503l-78.56-18.03l78.55-18.026
			c46.519-10.675,82.827-46.994,93.507-93.506l18.026-78.562l18.026,78.562c10.681,46.512,46.988,82.832,93.507,93.506l78.55,18.026
			l-78.561,18.03c-46.507,10.676-82.815,46.99-93.495,93.503l-18.026,78.544L297.794,1586.26z"/>
	</g>
	<g>
		<g>
			<path style="fill:#FFFFFF;" d="M2065.38,1344.104l-103.637,73.742l-103.65-73.742l-103.63,73.742l-103.723-73.742l-87.704,62.442
				v-62.583l87.704-62.414l103.723,73.721l103.63-73.721l103.65,73.717l103.637-73.717l103.547,73.721l87.614-62.223v62.49
				l-87.617,62.31L2065.38,1344.104z M1961.743,1409.759l103.637-73.743l103.543,73.743l81.029-57.62v-46.335l-81.032,57.546
				l-103.54-73.713l-103.637,73.717l-103.65-73.717l-103.63,73.713l-103.723-73.713l-81.116,57.723v46.409l81.116-57.752
				l103.723,73.743l103.63-73.743L1961.743,1409.759z"/>
		</g>
		<g>
			<path style="fill:#FFFFFF;" d="M1858.093,1456.033l-103.63,73.823l-103.723-73.823l-87.704,62.468v-62.374l87.704-62.439
				l103.723,73.772l103.63-73.772l103.65,73.772l103.637-73.772l103.547,73.772l87.614-62.252v62.342l-87.62,62.307l-103.54-73.823
				l-103.637,73.823L1858.093,1456.033z M2249.952,1417.972l-81.032,57.574l-103.54-73.771l-103.637,73.771l-103.65-73.771
				l-103.63,73.771l-103.723-73.771l-81.116,57.748v46.194l81.116-57.771l103.723,73.823l103.63-73.823l103.65,73.823
				l103.637-73.823l103.547,73.823l81.025-57.617V1417.972z"/>
		</g>
		<g>
			<path style="fill:#FFFFFF;" d="M1858.093,1568.227l-103.63,73.769l-103.723-73.769l-87.704,62.435v-62.554l87.704-62.41
				l103.723,73.742l103.63-73.742l103.65,73.742l103.637-73.742l103.547,73.742l87.614-62.278v62.548l-87.62,62.284l-103.54-73.769
				l-103.637,73.769L1858.093,1568.227z M1961.743,1633.908l103.637-73.768l103.547,73.768l81.025-57.594v-46.387l-81.032,57.601
				l-103.54-73.743l-103.637,73.743l-103.65-73.743l-103.63,73.743l-103.723-73.743l-81.116,57.72v46.38l81.116-57.745
				l103.723,73.768l103.63-73.768L1961.743,1633.908z"/>
		</g>
		<g>
			<path style="fill:#FFFFFF;" d="M1858.093,1680.208l-103.63,73.768l-103.723-73.768l-87.704,62.438v-62.371l87.704-62.438
				l103.723,73.742l103.63-73.742l103.65,73.742l103.637-73.742l103.547,73.742l87.614-62.223v62.339l-87.62,62.281l-103.54-73.768
				l-103.637,73.768L1858.093,1680.208z M1961.743,1745.89l103.637-73.769l103.547,73.769l81.025-57.591v-46.184l-81.032,57.553
				l-103.54-73.743l-103.637,73.743l-103.65-73.743l-103.63,73.743l-103.723-73.743l-81.116,57.748v46.197l81.116-57.748
				l103.723,73.769l103.63-73.769L1961.743,1745.89z"/>
		</g>
	</g>
	<g>
		<g>
			<path style="fill:#FFFFFF;" d="M1088.675,1461.273c0-25.902,21.077-46.976,46.982-46.976h162.498
				c25.906,0,46.982,21.074,46.982,46.976c0,25.905-21.077,46.979-46.982,46.979h-162.498
				C1109.751,1508.252,1088.675,1487.178,1088.675,1461.273z M1135.656,1420.886c-22.273,0-40.393,18.117-40.393,40.388
				c0,22.27,18.12,40.391,40.393,40.391h162.498c22.274,0,40.394-18.12,40.394-40.391c0-22.27-18.121-40.388-40.394-40.388H1135.656
				z"/>
		</g>
		<g>
			<path style="fill:#FFFFFF;" d="M996.442,1461.273c0-25.902,21.077-46.976,46.982-46.976h162.498
				c25.906,0,46.982,21.074,46.982,46.976c0,25.905-21.076,46.979-46.982,46.979h-162.498
				C1017.518,1508.252,996.442,1487.178,996.442,1461.273z M1043.423,1420.886c-22.273,0-40.393,18.117-40.393,40.388
				c0,22.27,18.12,40.391,40.393,40.391h162.498c22.274,0,40.394-18.12,40.394-40.391c0-22.27-18.121-40.388-40.394-40.388H1043.423
				z"/>
		</g>
		<g>
			<path style="fill:#FFFFFF;" d="M904.208,1461.273c0-25.902,21.077-46.976,46.982-46.976h162.498
				c25.906,0,46.982,21.074,46.982,46.976c0,25.905-21.077,46.979-46.982,46.979H951.19
				C925.285,1508.252,904.208,1487.178,904.208,1461.273z M951.19,1420.886c-22.273,0-40.393,18.117-40.393,40.388
				c0,22.27,18.12,40.391,40.393,40.391h162.498c22.274,0,40.394-18.12,40.394-40.391c0-22.27-18.121-40.388-40.394-40.388H951.19z"
				/>
		</g>
	</g>
	<g>
		<g>
			<path style="fill:#FFFFFF;" d="M1323.465,320.297c0-94.581,76.947-171.528,171.525-171.528
				c94.588,0,171.541,76.947,171.541,171.528c0,94.578-76.953,171.525-171.541,171.525
				C1400.411,491.823,1323.465,414.876,1323.465,320.297z M1330.053,320.297c0,90.947,73.991,164.937,164.937,164.937
				c90.956,0,164.953-73.991,164.953-164.937c0-90.949-73.997-164.94-164.953-164.94
				C1404.043,155.357,1330.053,229.348,1330.053,320.297z"/>
		</g>
		<g>
			<path style="fill:#FFFFFF;" d="M1395.815,349.246c0-66.65,54.226-120.876,120.882-120.876
				c66.653,0,120.879,54.227,120.879,120.876c0,66.653-54.226,120.879-120.879,120.879
				C1450.041,470.125,1395.815,415.899,1395.815,349.246z M1402.403,349.246c0,63.021,51.273,114.291,114.294,114.291
				s114.291-51.27,114.291-114.291c0-63.018-51.27-114.288-114.291-114.288S1402.403,286.228,1402.403,349.246z"/>
		</g>
		<path style="fill:#FFFFFF;" d="M1308.664,222.617c0,44.949,36.439,81.395,81.402,81.395c44.963,0,81.406-36.447,81.406-81.395
			c0-44.962-36.443-81.409-81.406-81.409C1345.103,141.208,1308.664,177.655,1308.664,222.617z"/>
	</g>
	<g>
		<g>
			<path style="fill:#FFFFFF;" d="M701.856,1345.818c18.915,0,32.799-13.851,42.958-23.988c1.638-1.634,3.185-3.178,4.652-4.562
				c1.586-1.492,3.258-3.165,5.021-4.931c9.85-9.863,22.109-22.139,38.354-22.328c1.817-0.022,3.278-1.512,3.255-3.332
				c-0.019-1.818-1.502-3.253-3.332-3.256c-18.932,0.222-32.805,14.116-42.938,24.259c-1.715,1.718-3.34,3.345-4.877,4.796
				c-1.509,1.422-3.104,3.011-4.786,4.69c-9.863,9.837-22.119,22.064-38.306,22.064c-0.125,0-0.251,0-0.376-0.003
				c-16.245-0.19-28.505-12.465-38.354-22.328c-1.763-1.766-3.436-3.439-5.021-4.932c-1.466-1.383-3.014-2.927-4.651-4.561
				c-10.159-10.136-24.046-23.989-42.958-23.989c-0.151,0-0.302,0.003-0.453,0.003c-1.818,0.022-3.278,1.512-3.255,3.333
				c0.022,1.805,1.492,3.255,3.294,3.255c0.141-0.016,0.277-0.003,0.414-0.003c16.191,0,28.443,12.227,38.306,22.065
				c1.683,1.679,3.275,3.268,4.787,4.69c1.538,1.451,3.162,3.079,4.877,4.796c10.133,10.143,24.007,24.036,42.938,24.258
				C701.554,1345.815,701.706,1345.818,701.856,1345.818z"/>
		</g>
		<g>
			<path style="fill:#FFFFFF;" d="M610.36,1345.818c18.915,0,32.799-13.851,42.957-23.988c1.638-1.634,3.185-3.178,4.652-4.562
				c1.586-1.492,3.258-3.165,5.021-4.931c9.85-9.863,22.11-22.139,38.354-22.328c16.267-0.492,28.739,12.15,38.683,22.062
				c1.682,1.679,3.277,3.268,4.786,4.69c1.538,1.451,3.162,3.079,4.877,4.796c10.133,10.143,24.007,24.036,42.938,24.258
				c1.924-0.215,3.311-1.438,3.333-3.255c0.022-1.821-1.438-3.311-3.255-3.333c-16.246-0.19-28.505-12.465-38.355-22.328
				c-1.763-1.766-3.436-3.439-5.021-4.932c-1.467-1.383-3.014-2.927-4.652-4.561c-10.159-10.136-24.046-23.989-42.958-23.989
				c-0.151,0-0.302,0.003-0.453,0.003c-18.932,0.222-32.805,14.116-42.938,24.259c-1.715,1.718-3.339,3.345-4.877,4.796
				c-1.512,1.422-3.104,3.011-4.787,4.69c-9.863,9.837-22.119,22.064-38.306,22.064c-0.138,0-0.277-0.013-0.414-0.003
				c-1.802,0-3.272,1.451-3.294,3.256c-0.023,1.82,1.438,3.31,3.255,3.332C610.057,1345.815,610.209,1345.818,610.36,1345.818z"/>
		</g>
	</g>
	<g>
		<rect x="908.493" y="1698.078" style="fill:#FFFFFF;" width="433.349" height="6.588"/>
	</g>
	<g>
		<rect x="908.493" y="1649.278" style="fill:#FFFFFF;" width="433.349" height="6.588"/>
	</g>
	<g>
		<rect x="908.493" y="1600.479" style="fill:#FFFFFF;" width="433.349" height="6.588"/>
	</g>
	<g>
		<g>
			<path style="fill:#FFFFFF;" d="M1709.44,475.989c0-12.311,10.014-22.325,22.324-22.325c12.311,0,22.325,10.014,22.325,22.325
				c0,12.311-10.014,22.328-22.325,22.328C1719.454,498.317,1709.44,488.3,1709.44,475.989z M1716.028,475.989
				c0,8.678,7.06,15.74,15.736,15.74c8.676,0,15.737-7.061,15.737-15.74c0-8.676-7.061-15.737-15.737-15.737
				C1723.089,460.252,1716.028,467.314,1716.028,475.989z"/>
		</g>
		<g>
			<path style="fill:#FFFFFF;" d="M1747.502,1212.39c0-13.118,10.673-23.789,23.792-23.789s23.792,10.671,23.792,23.789
				s-10.674,23.792-23.792,23.792S1747.502,1225.508,1747.502,1212.39z M1754.09,1212.39c0,9.486,7.717,17.203,17.203,17.203
				c9.487,0,17.204-7.717,17.204-17.203c0-9.484-7.717-17.201-17.204-17.201C1761.807,1195.189,1754.09,1202.907,1754.09,1212.39z"
				/>
		</g>
		<g>
			<path style="fill:#FFFFFF;" d="M400.607,1648.667c0-19.575,15.926-35.501,35.504-35.501c19.574,0,35.501,15.927,35.501,35.501
				c0,19.577-15.927,35.504-35.501,35.504C416.533,1684.171,400.607,1668.244,400.607,1648.667z M407.195,1648.667
				c0,15.946,12.97,28.916,28.916,28.916c15.943,0,28.913-12.97,28.913-28.916c0-15.943-12.971-28.913-28.913-28.913
				C420.165,1619.754,407.195,1632.724,407.195,1648.667z"/>
		</g>
		<g>
			<path style="fill:#FFFFFF;" d="M403.534,1246.064c0-9.081,7.389-16.47,16.47-16.47s16.47,7.389,16.47,16.47
				c0,9.081-7.389,16.47-16.47,16.47S403.534,1255.145,403.534,1246.064z M410.122,1246.064c0,5.45,4.432,9.882,9.882,9.882
				c5.449,0,9.882-4.432,9.882-9.882c0-5.449-4.433-9.882-9.882-9.882C414.554,1236.182,410.122,1240.615,410.122,1246.064z"/>
		</g>
		<g>
			<path style="fill:#FFFFFF;" d="M675.842,96.811c0-21.193,17.239-38.432,38.432-38.432c21.189,0,38.428,17.239,38.428,38.432
				c0,21.189-17.239,38.428-38.428,38.428C693.081,135.239,675.842,118,675.842,96.811z M682.43,96.811
				c0,17.557,14.286,31.84,31.843,31.84c17.557,0,31.84-14.283,31.84-31.84c0-17.558-14.283-31.844-31.84-31.844
				C696.716,64.968,682.43,79.253,682.43,96.811z"/>
		</g>
		<g>
			<path style="fill:#FFFFFF;" d="M2154.499,111.451c0-16.348,13.299-29.646,29.646-29.646c16.348,0,29.646,13.299,29.646,29.646
				c0,16.348-13.298,29.646-29.646,29.646C2167.797,141.097,2154.499,127.799,2154.499,111.451z M2161.087,111.451
				c0,12.713,10.345,23.058,23.058,23.058c12.713,0,23.058-10.345,23.058-23.058c0-12.712-10.345-23.058-23.058-23.058
				C2171.432,88.392,2161.087,98.738,2161.087,111.451z"/>
		</g>
		<g>
			<path style="fill:#FFFFFF;" d="M2239.414,1139.191c0-11.503,9.358-20.864,20.861-20.864s20.861,9.361,20.861,20.864
				c0,11.503-9.358,20.862-20.861,20.862S2239.414,1150.694,2239.414,1139.191z M2246.002,1139.191
				c0,7.872,6.402,14.274,14.273,14.274c7.871,0,14.273-6.402,14.273-14.274c0-7.871-6.402-14.276-14.273-14.276
				C2252.403,1124.915,2246.002,1131.319,2246.002,1139.191z"/>
		</g>
		<g>
			<path style="fill:#FFFFFF;" d="M134.156,414.502c0-13.925,11.33-25.255,25.255-25.255c13.926,0,25.252,11.329,25.252,25.255
				c0,13.926-11.326,25.253-25.252,25.253C145.486,439.755,134.156,428.428,134.156,414.502z M140.744,414.502
				c0,10.291,8.373,18.665,18.667,18.665c10.291,0,18.664-8.373,18.664-18.665c0-10.294-8.373-18.667-18.664-18.667
				C149.117,395.836,140.744,404.208,140.744,414.502z"/>
		</g>
		
			<ellipse transform="matrix(0.9732 -0.2298 0.2298 0.9732 -92.4328 295.7351)" style="fill:#FFFFFF;" cx="1223.751" cy="544.799" rx="14.64" ry="14.64"/>
		
			<ellipse transform="matrix(0.9144 -0.4047 0.4047 0.9144 -399.9554 687.9689)" style="fill:#FFFFFF;" cx="1427.249" cy="1289.984" rx="27.816" ry="27.816"/>
		<path style="fill:#FFFFFF;" d="M1425.785,1737.973c0,8.894,7.21,16.105,16.104,16.105c8.895,0,16.104-7.211,16.104-16.105
			s-7.21-16.104-16.104-16.104C1432.995,1721.869,1425.785,1729.079,1425.785,1737.973z"/>
		<path style="fill:#FFFFFF;" d="M1091.989,957.652c0,9.702,7.865,17.568,17.568,17.568s17.568-7.866,17.568-17.568
			c0-9.703-7.865-17.568-17.568-17.568S1091.989,947.949,1091.989,957.652z"/>
		<path style="fill:#FFFFFF;" d="M1739.085,143.658c0,11.32,9.177,20.496,20.497,20.496c11.32,0,20.496-9.176,20.496-20.496
			c0-11.32-9.177-20.496-20.496-20.496C1748.261,123.162,1739.085,132.339,1739.085,143.658z"/>
		<path style="fill:#FFFFFF;" d="M149.162,959.116c0,8.894,7.21,16.104,16.105,16.104c8.894,0,16.104-7.21,16.104-16.104
			c0-8.894-7.21-16.105-16.104-16.105C156.372,943.012,149.162,950.222,149.162,959.116z"/>
	</g>
</g>-->
</svg>
