<?xml version="1.0" encoding="UTF-8" standalone="no"?><svg xmlns="http://www.w3.org/2000/svg" xmlns:xlink="http://www.w3.org/1999/xlink" contentScriptType="text/ecmascript" fill="#000000" width="18" zoomAndPan="magnify" contentStyleType="text/css" viewBox="3.0 0.0 18.0 24.0" height="24" preserveAspectRatio="xMidYMid meet" version="1"><g id="change1_1"><path fill="#f26843" d="M20 11L20 10 18 10 18 9 17 9 17 8 15 8 15 7 14 7 14 6 12 6 12 5 11 5 11 4 9 4 9 3 8 3 8 2 6 2 6 1 5 1 5 0 3 0 3 24 5 24 5 23 6 23 6 22 8 22 8 21 9 21 9 20 11 20 11 19 12 19 12 18 14 18 14 17 15 17 15 16 17 16 17 15 18 15 18 14 20 14 20 13 21 13 21 11 20 11z"/></g></svg>