<?xml version="1.0" encoding="UTF-8" standalone="no"?><svg xmlns="http://www.w3.org/2000/svg" xmlns:xlink="http://www.w3.org/1999/xlink" contentScriptType="text/ecmascript" fill="#000000" width="312.1" zoomAndPan="magnify" contentStyleType="text/css" viewBox="0.0 0.0 312.1 264.1" height="264.1" preserveAspectRatio="xMidYMid meet" version="1"><g><g><g id="change1_1"><path d="M300.1 180.06H312.1V192.06H300.1z"/></g><g id="change1_2"><path d="M300.1 168.05H312.1V180.05H300.1z"/></g><g id="change1_3"><path d="M300.1 156.05H312.1V168.05H300.1z"/></g><g id="change1_4"><path d="M300.1 144.04H312.1V156.04H300.1z"/></g><g id="change1_5"><path d="M300.1 132.05H312.1V144.05H300.1z"/></g><g id="change1_6"><path d="M300.1 120.04H312.1V132.04000000000002H300.1z"/></g><g id="change1_7"><path d="M300.1 108.04H312.1V120.04H300.1z"/></g><g id="change1_8"><path d="M300.1 96.03H312.1V108.03H300.1z"/></g><g id="change1_9"><path d="M300.1 84.03H312.1V96.03H300.1z"/></g><g id="change1_10"><path d="M300.1 72.02H312.1V84.02H300.1z"/></g><g id="change1_11"><path d="M300.1 60.02H312.1V72.02000000000001H300.1z"/></g><g id="change1_12"><path d="M300.1 48.01H312.1V60.01H300.1z"/></g><g id="change1_13"><path d="M300.1 36.01H312.1V48.01H300.1z"/></g><g id="change1_14"><path d="M300.1 24.01H312.1V36.010000000000005H300.1z"/></g><g id="change1_15"><path d="M300.1 12H312.1V24H300.1z"/></g><g id="change1_16"><path d="M300.1 0H312.1V12H300.1z"/></g><g id="change1_17"><path d="M288.1 192.06H300.1V204.06H288.1z"/></g><g id="change2_1"><path fill="#ef4434" d="M288.1 180.06H300.1V192.06H288.1z"/></g><g id="change2_2"><path fill="#ef4434" d="M288.1 168.05H300.1V180.05H288.1z"/></g><g id="change2_3"><path fill="#ef4434" d="M288.1 156.05H300.1V168.05H288.1z"/></g><g id="change2_4"><path fill="#ef4434" d="M288.1 144.04H300.1V156.04H288.1z"/></g><g id="change2_5"><path fill="#ef4434" d="M288.1 132.05H300.1V144.05H288.1z"/></g><g id="change2_6"><path fill="#ef4434" d="M288.1 120.04H300.1V132.04000000000002H288.1z"/></g><g id="change2_7"><path fill="#ef4434" d="M288.1 108.04H300.1V120.04H288.1z"/></g><g id="change2_8"><path fill="#ef4434" d="M288.1 96.03H300.1V108.03H288.1z"/></g><g id="change2_9"><path fill="#ef4434" d="M288.1 84.03H300.1V96.03H288.1z"/></g><g id="change2_10"><path fill="#ef4434" d="M288.1 72.02H300.1V84.02H288.1z"/></g><g id="change2_11"><path fill="#ef4434" d="M288.1 60.02H300.1V72.02000000000001H288.1z"/></g><g id="change2_12"><path fill="#ef4434" d="M288.1 48.01H300.1V60.01H288.1z"/></g><g id="change2_13"><path fill="#ef4434" d="M288.1 36.01H300.1V48.01H288.1z"/></g><g id="change2_14"><path fill="#ef4434" d="M288.1 24.01H300.1V36.010000000000005H288.1z"/></g><g id="change1_18"><path d="M288.1 12H300.1V24H288.1z"/></g><g id="change1_19"><path d="M288.1 0H300.1V12H288.1z"/></g><g id="change1_20"><path d="M276.1 204.07H288.1V216.07H276.1z"/></g><g id="change1_21"><path d="M276.1 192.06H288.1V204.06H276.1z"/></g><g id="change1_22"><path d="M276.1 180.06H288.1V192.06H276.1z"/></g><g id="change1_23"><path d="M276.1 168.05H288.1V180.05H276.1z"/></g><g id="change1_24"><path d="M276.1 156.05H288.1V168.05H276.1z"/></g><g id="change1_25"><path d="M276.1 144.04H288.1V156.04H276.1z"/></g><g id="change1_26"><path d="M276.1 132.05H288.1V144.05H276.1z"/></g><g id="change1_27"><path d="M276.1 120.04H288.1V132.04000000000002H276.1z"/></g><g id="change1_28"><path d="M276.1 108.04H288.1V120.04H276.1z"/></g><g id="change1_29"><path d="M276.1 96.03H288.1V108.03H276.1z"/></g><g id="change1_30"><path d="M276.1 84.03H288.1V96.03H276.1z"/></g><g id="change1_31"><path d="M276.1 72.02H288.1V84.02H276.1z"/></g><g id="change1_32"><path d="M276.1 60.02H288.1V72.02000000000001H276.1z"/></g><g id="change1_33"><path d="M276.1 48.01H288.1V60.01H276.1z"/></g><g id="change1_34"><path d="M276.1 36.01H288.1V48.01H276.1z"/></g><g id="change1_35"><path d="M276.1 24.01H288.1V36.010000000000005H276.1z"/></g><g id="change3_1"><path fill="#ffffff" d="M276.1 12H288.1V24H276.1z"/></g><g id="change1_36"><path d="M276.1 0H288.1V12H276.1z"/></g><g id="change1_37"><path d="M264.09 228.08H276.09V240.08H264.09z"/></g><g id="change1_38"><path d="M264.09 216.07H276.09V228.07H264.09z"/></g><g id="change1_39"><path d="M264.09 204.07H276.09V216.07H264.09z"/></g><g id="change1_40"><path d="M264.09 192.06H276.09V204.06H264.09z"/></g><g id="change1_41"><path d="M264.09 180.06H276.09V192.06H264.09z"/></g><g id="change1_42"><path d="M264.09 168.05H276.09V180.05H264.09z"/></g><g id="change1_43"><path d="M264.09 156.05H276.09V168.05H264.09z"/></g><g id="change1_44"><path d="M264.09 144.04H276.09V156.04H264.09z"/></g><g id="change1_45"><path d="M264.09 132.05H276.09V144.05H264.09z"/></g><g id="change1_46"><path d="M264.09 120.04H276.09V132.04000000000002H264.09z"/></g><g id="change1_47"><path d="M264.09 108.04H276.09V120.04H264.09z"/></g><g id="change1_48"><path d="M264.09 96.03H276.09V108.03H264.09z"/></g><g id="change1_49"><path d="M264.09 84.03H276.09V96.03H264.09z"/></g><g id="change2_15"><path fill="#ef4434" d="M264.09 72.02H276.09V84.02H264.09z"/></g><g id="change2_16"><path fill="#ef4434" d="M264.09 60.02H276.09V72.02000000000001H264.09z"/></g><g id="change1_50"><path d="M264.09 48.01H276.09V60.01H264.09z"/></g><g id="change1_51"><path d="M264.09 36.01H276.09V48.01H264.09z"/></g><g id="change2_17"><path fill="#ef4434" d="M264.09 24.01H276.09V36.010000000000005H264.09z"/></g><g id="change3_2"><path fill="#ffffff" d="M264.09 12H276.09V24H264.09z"/></g><g id="change1_52"><path d="M264.09 0H276.09V12H264.09z"/></g><g id="change1_53"><path d="M252.09 240.08H264.09000000000003V252.08H252.09z"/></g><g id="change2_18"><path fill="#ef4434" d="M252.09 228.08H264.09000000000003V240.08H252.09z"/></g><g id="change2_19"><path fill="#ef4434" d="M252.09 216.07H264.09000000000003V228.07H252.09z"/></g><g id="change2_20"><path fill="#ef4434" d="M252.09 204.07H264.09000000000003V216.07H252.09z"/></g><g id="change2_21"><path fill="#ef4434" d="M252.09 192.06H264.09000000000003V204.06H252.09z"/></g><g id="change2_22"><path fill="#ef4434" d="M252.09 180.06H264.09000000000003V192.06H252.09z"/></g><g id="change2_23"><path fill="#ef4434" d="M252.09 168.05H264.09000000000003V180.05H252.09z"/></g><g id="change2_24"><path fill="#ef4434" d="M252.09 156.05H264.09000000000003V168.05H252.09z"/></g><g id="change2_25"><path fill="#ef4434" d="M252.09 144.04H264.09000000000003V156.04H252.09z"/></g><g id="change2_26"><path fill="#ef4434" d="M252.09 132.05H264.09000000000003V144.05H252.09z"/></g><g id="change2_27"><path fill="#ef4434" d="M252.09 120.04H264.09000000000003V132.04000000000002H252.09z"/></g><g id="change2_28"><path fill="#ef4434" d="M252.09 108.04H264.09000000000003V120.04H252.09z"/></g><g id="change2_29"><path fill="#ef4434" d="M252.09 96.03H264.09000000000003V108.03H252.09z"/></g><g id="change2_30"><path fill="#ef4434" d="M252.09 84.03H264.09000000000003V96.03H252.09z"/></g><g id="change1_54"><path d="M252.09 72.02H264.09000000000003V84.02H252.09z"/></g><g id="change2_31"><path fill="#ef4434" d="M252.09 60.02H264.09000000000003V72.02000000000001H252.09z"/></g><g id="change2_32"><path fill="#ef4434" d="M252.09 48.01H264.09000000000003V60.01H252.09z"/></g><g id="change1_55"><path d="M252.09 36.01H264.09000000000003V48.01H252.09z"/></g><g id="change2_33"><path fill="#ef4434" d="M252.09 24.01H264.09000000000003V36.010000000000005H252.09z"/></g><g id="change3_3"><path fill="#ffffff" d="M252.09 12H264.09000000000003V24H252.09z"/></g><g id="change1_56"><path d="M252.09 0H264.09000000000003V12H252.09z"/></g><g id="change1_57"><path d="M240.08 252.08H252.08V264.08000000000004H240.08z"/></g><g id="change1_58"><path d="M240.08 240.08H252.08V252.08H240.08z"/></g><g id="change1_59"><path d="M240.08 228.08H252.08V240.08H240.08z"/></g><g id="change1_60"><path d="M240.08 216.07H252.08V228.07H240.08z"/></g><g id="change1_61"><path d="M240.08 204.07H252.08V216.07H240.08z"/></g><g id="change1_62"><path d="M240.08 192.06H252.08V204.06H240.08z"/></g><g id="change1_63"><path d="M240.08 180.06H252.08V192.06H240.08z"/></g><g id="change1_64"><path d="M240.08 168.05H252.08V180.05H240.08z"/></g><g id="change1_65"><path d="M240.08 156.05H252.08V168.05H240.08z"/></g><g id="change1_66"><path d="M240.08 144.04H252.08V156.04H240.08z"/></g><g id="change1_67"><path d="M240.08 132.05H252.08V144.05H240.08z"/></g><g id="change1_68"><path d="M240.08 120.04H252.08V132.04000000000002H240.08z"/></g><g id="change1_69"><path d="M240.08 108.04H252.08V120.04H240.08z"/></g><g id="change1_70"><path d="M240.08 96.03H252.08V108.03H240.08z"/></g><g id="change1_71"><path d="M240.08 84.03H252.08V96.03H240.08z"/></g><g id="change1_72"><path d="M240.08 72.02H252.08V84.02H240.08z"/></g><g id="change2_34"><path fill="#ef4434" d="M240.08 60.02H252.08V72.02000000000001H240.08z"/></g><g id="change2_35"><path fill="#ef4434" d="M240.08 48.01H252.08V60.01H240.08z"/></g><g id="change1_73"><path d="M240.08 36.01H252.08V48.01H240.08z"/></g><g id="change2_36"><path fill="#ef4434" d="M240.08 24.01H252.08V36.010000000000005H240.08z"/></g><g id="change3_4"><path fill="#ffffff" d="M240.08 12H252.08V24H240.08z"/></g><g id="change1_74"><path d="M240.08 0H252.08V12H240.08z"/></g><g id="change1_75"><path d="M228.08 252.08H240.08V264.08000000000004H228.08z"/></g><g id="change1_76"><path d="M228.08 240.08H240.08V252.08H228.08z"/></g><g id="change4_1"><path fill="#3e3467" d="M228.08 228.08H240.08V240.08H228.08z"/></g><g id="change1_77"><path d="M228.08 216.07H240.08V228.07H228.08z"/></g><g id="change1_78"><path d="M228.08 204.07H240.08V216.07H228.08z"/></g><g id="change2_37"><path fill="#ef4434" d="M228.08 192.06H240.08V204.06H228.08z"/></g><g id="change2_38"><path fill="#ef4434" d="M228.08 180.06H240.08V192.06H228.08z"/></g><g id="change2_39"><path fill="#ef4434" d="M228.08 168.05H240.08V180.05H228.08z"/></g><g id="change2_40"><path fill="#ef4434" d="M228.08 156.05H240.08V168.05H228.08z"/></g><g id="change2_41"><path fill="#ef4434" d="M228.08 144.04H240.08V156.04H228.08z"/></g><g id="change2_42"><path fill="#ef4434" d="M228.08 132.05H240.08V144.05H228.08z"/></g><g id="change2_43"><path fill="#ef4434" d="M228.08 120.04H240.08V132.04000000000002H228.08z"/></g><g id="change1_79"><path d="M228.08 108.04H240.08V120.04H228.08z"/></g><g id="change1_80"><path d="M228.08 96.03H240.08V108.03H228.08z"/></g><g id="change3_5"><path fill="#ffffff" d="M228.08 84.03H240.08V96.03H228.08z"/></g><g id="change1_81"><path d="M228.08 72.02H240.08V84.02H228.08z"/></g><g id="change1_82"><path d="M228.08 60.02H240.08V72.02000000000001H228.08z"/></g><g id="change2_44"><path fill="#ef4434" d="M228.08 48.01H240.08V60.01H228.08z"/></g><g id="change1_83"><path d="M228.08 36.01H240.08V48.01H228.08z"/></g><g id="change2_45"><path fill="#ef4434" d="M228.08 24.01H240.08V36.010000000000005H228.08z"/></g><g id="change3_6"><path fill="#ffffff" d="M228.08 12H240.08V24H228.08z"/></g><g id="change1_84"><path d="M228.08 0H240.08V12H228.08z"/></g><g id="change1_85"><path d="M216.07 252.08H228.07V264.08000000000004H216.07z"/></g><g id="change1_86"><path d="M216.07 240.08H228.07V252.08H216.07z"/></g><g id="change4_2"><path fill="#3e3467" d="M216.07 228.08H228.07V240.08H216.07z"/></g><g id="change1_87"><path d="M216.07 216.07H228.07V228.07H216.07z"/></g><g id="change2_46"><path fill="#ef4434" d="M216.07 204.07H228.07V216.07H216.07z"/></g><g id="change2_47"><path fill="#ef4434" d="M216.07 192.06H228.07V204.06H216.07z"/></g><g id="change2_48"><path fill="#ef4434" d="M216.07 180.06H228.07V192.06H216.07z"/></g><g id="change1_88"><path d="M216.07 168.05H228.07V180.05H216.07z"/></g><g id="change1_89"><path d="M216.07 156.05H228.07V168.05H216.07z"/></g><g id="change1_90"><path d="M216.07 144.04H228.07V156.04H216.07z"/></g><g id="change2_49"><path fill="#ef4434" d="M216.07 132.05H228.07V144.05H216.07z"/></g><g id="change2_50"><path fill="#ef4434" d="M216.07 120.04H228.07V132.04000000000002H216.07z"/></g><g id="change2_51"><path fill="#ef4434" d="M216.07 108.04H228.07V120.04H216.07z"/></g><g id="change1_91"><path d="M216.07 96.03H228.07V108.03H216.07z"/></g><g id="change3_7"><path fill="#ffffff" d="M216.07 84.03H228.07V96.03H216.07z"/></g><g id="change1_92"><path d="M216.07 72.02H228.07V84.02H216.07z"/></g><g id="change1_93"><path d="M216.07 60.02H228.07V72.02000000000001H216.07z"/></g><g id="change2_52"><path fill="#ef4434" d="M216.07 48.01H228.07V60.01H216.07z"/></g><g id="change1_94"><path d="M216.07 36.01H228.07V48.01H216.07z"/></g><g id="change2_53"><path fill="#ef4434" d="M216.07 24.01H228.07V36.010000000000005H216.07z"/></g><g id="change3_8"><path fill="#ffffff" d="M216.07 12H228.07V24H216.07z"/></g><g id="change1_95"><path d="M216.07 0H228.07V12H216.07z"/></g><g id="change1_96"><path d="M204.07 252.08H216.07V264.08000000000004H204.07z"/></g><g id="change1_97"><path d="M204.07 240.08H216.07V252.08H204.07z"/></g><g id="change4_3"><path fill="#3e3467" d="M204.07 228.08H216.07V240.08H204.07z"/></g><g id="change1_98"><path d="M204.07 216.07H216.07V228.07H204.07z"/></g><g id="change2_54"><path fill="#ef4434" d="M204.07 204.07H216.07V216.07H204.07z"/></g><g id="change2_55"><path fill="#ef4434" d="M204.07 192.06H216.07V204.06H204.07z"/></g><g id="change1_99"><path d="M204.07 180.06H216.07V192.06H204.07z"/></g><g id="change1_100"><path d="M204.07 168.05H216.07V180.05H204.07z"/></g><g id="change1_101"><path d="M204.07 156.05H216.07V168.05H204.07z"/></g><g id="change1_102"><path d="M204.07 144.04H216.07V156.04H204.07z"/></g><g id="change1_103"><path d="M204.07 132.05H216.07V144.05H204.07z"/></g><g id="change2_56"><path fill="#ef4434" d="M204.07 120.04H216.07V132.04000000000002H204.07z"/></g><g id="change2_57"><path fill="#ef4434" d="M204.07 108.04H216.07V120.04H204.07z"/></g><g id="change1_104"><path d="M204.07 96.03H216.07V108.03H204.07z"/></g><g id="change3_9"><path fill="#ffffff" d="M204.07 84.03H216.07V96.03H204.07z"/></g><g id="change1_105"><path d="M204.07 72.02H216.07V84.02H204.07z"/></g><g id="change1_106"><path d="M204.07 60.02H216.07V72.02000000000001H204.07z"/></g><g id="change2_58"><path fill="#ef4434" d="M204.07 48.01H216.07V60.01H204.07z"/></g><g id="change1_107"><path d="M204.07 36.01H216.07V48.01H204.07z"/></g><g id="change2_59"><path fill="#ef4434" d="M204.07 24.01H216.07V36.010000000000005H204.07z"/></g><g id="change3_10"><path fill="#ffffff" d="M204.07 12H216.07V24H204.07z"/></g><g id="change1_108"><path d="M204.07 0H216.07V12H204.07z"/></g><g id="change1_109"><path d="M192.06 252.08H204.06V264.08000000000004H192.06z"/></g><g id="change1_110"><path d="M192.06 240.08H204.06V252.08H192.06z"/></g><g id="change4_4"><path fill="#3e3467" d="M192.06 228.08H204.06V240.08H192.06z"/></g><g id="change1_111"><path d="M192.06 216.07H204.06V228.07H192.06z"/></g><g id="change2_60"><path fill="#ef4434" d="M192.06 204.07H204.06V216.07H192.06z"/></g><g id="change1_112"><path d="M192.06 192.06H204.06V204.06H192.06z"/></g><g id="change1_113"><path d="M192.06 180.06H204.06V192.06H192.06z"/></g><g id="change1_114"><path d="M192.06 168.05H204.06V180.05H192.06z"/></g><g id="change3_11"><path fill="#ffffff" d="M192.06 156.05H204.06V168.05H192.06z"/></g><g id="change1_115"><path d="M192.06 144.04H204.06V156.04H192.06z"/></g><g id="change1_116"><path d="M192.06 132.05H204.06V144.05H192.06z"/></g><g id="change1_117"><path d="M192.06 120.04H204.06V132.04000000000002H192.06z"/></g><g id="change2_61"><path fill="#ef4434" d="M192.06 108.04H204.06V120.04H192.06z"/></g><g id="change1_118"><path d="M192.06 96.03H204.06V108.03H192.06z"/></g><g id="change3_12"><path fill="#ffffff" d="M192.06 84.03H204.06V96.03H192.06z"/></g><g id="change1_119"><path d="M192.06 72.02H204.06V84.02H192.06z"/></g><g id="change2_62"><path fill="#ef4434" d="M192.06 60.02H204.06V72.02000000000001H192.06z"/></g><g id="change2_63"><path fill="#ef4434" d="M192.06 48.01H204.06V60.01H192.06z"/></g><g id="change1_120"><path d="M192.06 36.01H204.06V48.01H192.06z"/></g><g id="change2_64"><path fill="#ef4434" d="M192.06 24.01H204.06V36.010000000000005H192.06z"/></g><g id="change3_13"><path fill="#ffffff" d="M192.06 12H204.06V24H192.06z"/></g><g id="change1_121"><path d="M192.06 0H204.06V12H192.06z"/></g><g id="change1_122"><path d="M180.07 252.08H192.07V264.08000000000004H180.07z"/></g><g id="change1_123"><path d="M180.07 240.08H192.07V252.08H180.07z"/></g><g id="change4_5"><path fill="#3e3467" d="M180.07 228.08H192.07V240.08H180.07z"/></g><g id="change1_124"><path d="M180.07 216.07H192.07V228.07H180.07z"/></g><g id="change2_65"><path fill="#ef4434" d="M180.07 204.07H192.07V216.07H180.07z"/></g><g id="change1_125"><path d="M180.07 192.06H192.07V204.06H180.07z"/></g><g id="change1_126"><path d="M180.07 180.06H192.07V192.06H180.07z"/></g><g id="change3_14"><path fill="#ffffff" d="M180.07 168.05H192.07V180.05H180.07z"/></g><g id="change1_127"><path d="M180.07 156.05H192.07V168.05H180.07z"/></g><g id="change3_15"><path fill="#ffffff" d="M180.07 144.04H192.07V156.04H180.07z"/></g><g id="change1_128"><path d="M180.07 132.05H192.07V144.05H180.07z"/></g><g id="change1_129"><path d="M180.07 120.04H192.07V132.04000000000002H180.07z"/></g><g id="change2_66"><path fill="#ef4434" d="M180.07 108.04H192.07V120.04H180.07z"/></g><g id="change1_130"><path d="M180.07 96.03H192.07V108.03H180.07z"/></g><g id="change3_16"><path fill="#ffffff" d="M180.07 84.03H192.07V96.03H180.07z"/></g><g id="change1_131"><path d="M180.07 72.02H192.07V84.02H180.07z"/></g><g id="change2_67"><path fill="#ef4434" d="M180.07 60.02H192.07V72.02000000000001H180.07z"/></g><g id="change2_68"><path fill="#ef4434" d="M180.07 48.01H192.07V60.01H180.07z"/></g><g id="change1_132"><path d="M180.07 36.01H192.07V48.01H180.07z"/></g><g id="change2_69"><path fill="#ef4434" d="M180.07 24.01H192.07V36.010000000000005H180.07z"/></g><g id="change3_17"><path fill="#ffffff" d="M180.07 12H192.07V24H180.07z"/></g><g id="change1_133"><path d="M180.07 0H192.07V12H180.07z"/></g><g id="change1_134"><path d="M168.06 252.08H180.06V264.08000000000004H168.06z"/></g><g id="change1_135"><path d="M168.06 240.08H180.06V252.08H168.06z"/></g><g id="change4_6"><path fill="#3e3467" d="M168.06 228.08H180.06V240.08H168.06z"/></g><g id="change1_136"><path d="M168.06 216.07H180.06V228.07H168.06z"/></g><g id="change2_70"><path fill="#ef4434" d="M168.06 204.07H180.06V216.07H168.06z"/></g><g id="change1_137"><path d="M168.06 192.06H180.06V204.06H168.06z"/></g><g id="change1_138"><path d="M168.06 180.06H180.06V192.06H168.06z"/></g><g id="change1_139"><path d="M168.06 168.05H180.06V180.05H168.06z"/></g><g id="change3_18"><path fill="#ffffff" d="M168.06 156.05H180.06V168.05H168.06z"/></g><g id="change1_140"><path d="M168.06 144.04H180.06V156.04H168.06z"/></g><g id="change1_141"><path d="M168.06 132.05H180.06V144.05H168.06z"/></g><g id="change1_142"><path d="M168.06 120.04H180.06V132.04000000000002H168.06z"/></g><g id="change2_71"><path fill="#ef4434" d="M168.06 108.04H180.06V120.04H168.06z"/></g><g id="change1_143"><path d="M168.06 96.03H180.06V108.03H168.06z"/></g><g id="change3_19"><path fill="#ffffff" d="M168.06 84.03H180.06V96.03H168.06z"/></g><g id="change1_144"><path d="M168.06 72.02H180.06V84.02H168.06z"/></g><g id="change2_72"><path fill="#ef4434" d="M168.06 60.02H180.06V72.02000000000001H168.06z"/></g><g id="change2_73"><path fill="#ef4434" d="M168.06 48.01H180.06V60.01H168.06z"/></g><g id="change1_145"><path d="M168.06 36.01H180.06V48.01H168.06z"/></g><g id="change2_74"><path fill="#ef4434" d="M168.06 24.01H180.06V36.010000000000005H168.06z"/></g><g id="change3_20"><path fill="#ffffff" d="M168.06 12H180.06V24H168.06z"/></g><g id="change1_146"><path d="M168.06 0H180.06V12H168.06z"/></g><g id="change1_147"><path d="M156.06 252.08H168.06V264.08000000000004H156.06z"/></g><g id="change1_148"><path d="M156.06 240.08H168.06V252.08H156.06z"/></g><g id="change4_7"><path fill="#3e3467" d="M156.06 228.08H168.06V240.08H156.06z"/></g><g id="change1_149"><path d="M156.06 216.07H168.06V228.07H156.06z"/></g><g id="change2_75"><path fill="#ef4434" d="M156.06 204.07H168.06V216.07H156.06z"/></g><g id="change2_76"><path fill="#ef4434" d="M156.06 192.06H168.06V204.06H156.06z"/></g><g id="change1_150"><path d="M156.06 180.06H168.06V192.06H156.06z"/></g><g id="change1_151"><path d="M156.06 168.05H168.06V180.05H156.06z"/></g><g id="change1_152"><path d="M156.06 156.05H168.06V168.05H156.06z"/></g><g id="change1_153"><path d="M156.06 144.04H168.06V156.04H156.06z"/></g><g id="change1_154"><path d="M156.06 132.05H168.06V144.05H156.06z"/></g><g id="change2_77"><path fill="#ef4434" d="M156.06 120.04H168.06V132.04000000000002H156.06z"/></g><g id="change2_78"><path fill="#ef4434" d="M156.06 108.04H168.06V120.04H156.06z"/></g><g id="change1_155"><path d="M156.06 96.03H168.06V108.03H156.06z"/></g><g id="change3_21"><path fill="#ffffff" d="M156.06 84.03H168.06V96.03H156.06z"/></g><g id="change1_156"><path d="M156.06 72.02H168.06V84.02H156.06z"/></g><g id="change2_79"><path fill="#ef4434" d="M156.06 60.02H168.06V72.02000000000001H156.06z"/></g><g id="change2_80"><path fill="#ef4434" d="M156.06 48.01H168.06V60.01H156.06z"/></g><g id="change1_157"><path d="M156.06 36.01H168.06V48.01H156.06z"/></g><g id="change2_81"><path fill="#ef4434" d="M156.06 24.01H168.06V36.010000000000005H156.06z"/></g><g id="change3_22"><path fill="#ffffff" d="M156.06 12H168.06V24H156.06z"/></g><g id="change1_158"><path d="M156.06 0H168.06V12H156.06z"/></g><g id="change1_159"><path d="M144.05 252.08H156.05V264.08000000000004H144.05z"/></g><g id="change1_160"><path d="M144.05 240.08H156.05V252.08H144.05z"/></g><g id="change4_8"><path fill="#3e3467" d="M144.05 228.08H156.05V240.08H144.05z"/></g><g id="change1_161"><path d="M144.05 216.07H156.05V228.07H144.05z"/></g><g id="change2_82"><path fill="#ef4434" d="M144.05 204.07H156.05V216.07H144.05z"/></g><g id="change2_83"><path fill="#ef4434" d="M144.05 192.06H156.05V204.06H144.05z"/></g><g id="change2_84"><path fill="#ef4434" d="M144.05 180.06H156.05V192.06H144.05z"/></g><g id="change1_162"><path d="M144.05 168.05H156.05V180.05H144.05z"/></g><g id="change1_163"><path d="M144.05 156.05H156.05V168.05H144.05z"/></g><g id="change1_164"><path d="M144.05 144.04H156.05V156.04H144.05z"/></g><g id="change2_85"><path fill="#ef4434" d="M144.05 132.05H156.05V144.05H144.05z"/></g><g id="change2_86"><path fill="#ef4434" d="M144.05 120.04H156.05V132.04000000000002H144.05z"/></g><g id="change2_87"><path fill="#ef4434" d="M144.05 108.04H156.05V120.04H144.05z"/></g><g id="change1_165"><path d="M144.05 96.03H156.05V108.03H144.05z"/></g><g id="change3_23"><path fill="#ffffff" d="M144.05 84.03H156.05V96.03H144.05z"/></g><g id="change1_166"><path d="M144.05 72.02H156.05V84.02H144.05z"/></g><g id="change2_88"><path fill="#ef4434" d="M144.05 60.02H156.05V72.02000000000001H144.05z"/></g><g id="change2_89"><path fill="#ef4434" d="M144.05 48.01H156.05V60.01H144.05z"/></g><g id="change1_167"><path d="M144.05 36.01H156.05V48.01H144.05z"/></g><g id="change2_90"><path fill="#ef4434" d="M144.05 24.01H156.05V36.010000000000005H144.05z"/></g><g id="change3_24"><path fill="#ffffff" d="M144.05 12H156.05V24H144.05z"/></g><g id="change1_168"><path d="M144.05 0H156.05V12H144.05z"/></g><g id="change1_169"><path d="M132.05 252.08H144.05V264.08000000000004H132.05z"/></g><g id="change1_170"><path d="M132.05 240.08H144.05V252.08H132.05z"/></g><g id="change4_9"><path fill="#3e3467" d="M132.05 228.08H144.05V240.08H132.05z"/></g><g id="change1_171"><path d="M132.05 216.07H144.05V228.07H132.05z"/></g><g id="change2_91"><path fill="#ef4434" d="M132.05 204.07H144.05V216.07H132.05z"/></g><g id="change2_92"><path fill="#ef4434" d="M132.05 192.06H144.05V204.06H132.05z"/></g><g id="change2_93"><path fill="#ef4434" d="M132.05 180.06H144.05V192.06H132.05z"/></g><g id="change2_94"><path fill="#ef4434" d="M132.05 168.05H144.05V180.05H132.05z"/></g><g id="change2_95"><path fill="#ef4434" d="M132.05 156.05H144.05V168.05H132.05z"/></g><g id="change2_96"><path fill="#ef4434" d="M132.05 144.04H144.05V156.04H132.05z"/></g><g id="change2_97"><path fill="#ef4434" d="M132.05 132.05H144.05V144.05H132.05z"/></g><g id="change2_98"><path fill="#ef4434" d="M132.05 120.04H144.05V132.04000000000002H132.05z"/></g><g id="change2_99"><path fill="#ef4434" d="M132.05 108.04H144.05V120.04H132.05z"/></g><g id="change1_172"><path d="M132.05 96.03H144.05V108.03H132.05z"/></g><g id="change3_25"><path fill="#ffffff" d="M132.05 84.03H144.05V96.03H132.05z"/></g><g id="change1_173"><path d="M132.05 72.02H144.05V84.02H132.05z"/></g><g id="change2_100"><path fill="#ef4434" d="M132.05 60.02H144.05V72.02000000000001H132.05z"/></g><g id="change2_101"><path fill="#ef4434" d="M132.05 48.01H144.05V60.01H132.05z"/></g><g id="change1_174"><path d="M132.05 36.01H144.05V48.01H132.05z"/></g><g id="change2_102"><path fill="#ef4434" d="M132.05 24.01H144.05V36.010000000000005H132.05z"/></g><g id="change3_26"><path fill="#ffffff" d="M132.05 12H144.05V24H132.05z"/></g><g id="change1_175"><path d="M132.05 0H144.05V12H132.05z"/></g><g id="change1_176"><path d="M120.04 252.08H132.04000000000002V264.08000000000004H120.04z"/></g><g id="change1_177"><path d="M120.04 240.08H132.04000000000002V252.08H120.04z"/></g><g id="change4_10"><path fill="#3e3467" d="M120.04 228.08H132.04000000000002V240.08H120.04z"/></g><g id="change1_178"><path d="M120.04 216.07H132.04000000000002V228.07H120.04z"/></g><g id="change2_103"><path fill="#ef4434" d="M120.04 204.07H132.04000000000002V216.07H120.04z"/></g><g id="change2_104"><path fill="#ef4434" d="M120.04 192.06H132.04000000000002V204.06H120.04z"/></g><g id="change2_105"><path fill="#ef4434" d="M120.04 180.06H132.04000000000002V192.06H120.04z"/></g><g id="change2_106"><path fill="#ef4434" d="M120.04 168.05H132.04000000000002V180.05H120.04z"/></g><g id="change2_107"><path fill="#ef4434" d="M120.04 156.05H132.04000000000002V168.05H120.04z"/></g><g id="change2_108"><path fill="#ef4434" d="M120.04 144.04H132.04000000000002V156.04H120.04z"/></g><g id="change2_109"><path fill="#ef4434" d="M120.04 132.05H132.04000000000002V144.05H120.04z"/></g><g id="change2_110"><path fill="#ef4434" d="M120.04 120.04H132.04000000000002V132.04000000000002H120.04z"/></g><g id="change2_111"><path fill="#ef4434" d="M120.04 108.04H132.04000000000002V120.04H120.04z"/></g><g id="change1_179"><path d="M120.04 96.03H132.04000000000002V108.03H120.04z"/></g><g id="change3_27"><path fill="#ffffff" d="M120.04 84.03H132.04000000000002V96.03H120.04z"/></g><g id="change1_180"><path d="M120.04 72.02H132.04000000000002V84.02H120.04z"/></g><g id="change2_112"><path fill="#ef4434" d="M120.04 60.02H132.04000000000002V72.02000000000001H120.04z"/></g><g id="change2_113"><path fill="#ef4434" d="M120.04 48.01H132.04000000000002V60.01H120.04z"/></g><g id="change1_181"><path d="M120.04 36.01H132.04000000000002V48.01H120.04z"/></g><g id="change2_114"><path fill="#ef4434" d="M120.04 24.01H132.04000000000002V36.010000000000005H120.04z"/></g><g id="change3_28"><path fill="#ffffff" d="M120.04 12H132.04000000000002V24H120.04z"/></g><g id="change1_182"><path d="M120.04 0H132.04000000000002V12H120.04z"/></g><g id="change1_183"><path d="M108.04 252.08H120.04V264.08000000000004H108.04z"/></g><g id="change1_184"><path d="M108.04 240.08H120.04V252.08H108.04z"/></g><g id="change4_11"><path fill="#3e3467" d="M108.04 228.08H120.04V240.08H108.04z"/></g><g id="change1_185"><path d="M108.04 216.07H120.04V228.07H108.04z"/></g><g id="change2_115"><path fill="#ef4434" d="M108.04 204.07H120.04V216.07H108.04z"/></g><g id="change2_116"><path fill="#ef4434" d="M108.04 192.06H120.04V204.06H108.04z"/></g><g id="change2_117"><path fill="#ef4434" d="M108.04 180.06H120.04V192.06H108.04z"/></g><g id="change2_118"><path fill="#ef4434" d="M108.04 168.05H120.04V180.05H108.04z"/></g><g id="change2_119"><path fill="#ef4434" d="M108.04 156.05H120.04V168.05H108.04z"/></g><g id="change2_120"><path fill="#ef4434" d="M108.04 144.04H120.04V156.04H108.04z"/></g><g id="change2_121"><path fill="#ef4434" d="M108.04 132.05H120.04V144.05H108.04z"/></g><g id="change2_122"><path fill="#ef4434" d="M108.04 120.04H120.04V132.04000000000002H108.04z"/></g><g id="change2_123"><path fill="#ef4434" d="M108.04 108.04H120.04V120.04H108.04z"/></g><g id="change1_186"><path d="M108.04 96.03H120.04V108.03H108.04z"/></g><g id="change3_29"><path fill="#ffffff" d="M108.04 84.03H120.04V96.03H108.04z"/></g><g id="change1_187"><path d="M108.04 72.02H120.04V84.02H108.04z"/></g><g id="change1_188"><path d="M108.04 60.02H120.04V72.02000000000001H108.04z"/></g><g id="change2_124"><path fill="#ef4434" d="M108.04 48.01H120.04V60.01H108.04z"/></g><g id="change1_189"><path d="M108.04 36.01H120.04V48.01H108.04z"/></g><g id="change2_125"><path fill="#ef4434" d="M108.04 24.01H120.04V36.010000000000005H108.04z"/></g><g id="change3_30"><path fill="#ffffff" d="M108.04 12H120.04V24H108.04z"/></g><g id="change1_190"><path d="M108.04 0H120.04V12H108.04z"/></g><g id="change1_191"><path d="M96.03 252.08H108.03V264.08000000000004H96.03z"/></g><g id="change1_192"><path d="M96.03 240.08H108.03V252.08H96.03z"/></g><g id="change4_12"><path fill="#3e3467" d="M96.03 228.08H108.03V240.08H96.03z"/></g><g id="change1_193"><path d="M96.03 216.07H108.03V228.07H96.03z"/></g><g id="change2_126"><path fill="#ef4434" d="M96.03 204.07H108.03V216.07H96.03z"/></g><g id="change2_127"><path fill="#ef4434" d="M96.03 192.06H108.03V204.06H96.03z"/></g><g id="change2_128"><path fill="#ef4434" d="M96.03 180.06H108.03V192.06H96.03z"/></g><g id="change1_194"><path d="M96.03 168.05H108.03V180.05H96.03z"/></g><g id="change1_195"><path d="M96.03 156.05H108.03V168.05H96.03z"/></g><g id="change1_196"><path d="M96.03 144.04H108.03V156.04H96.03z"/></g><g id="change2_129"><path fill="#ef4434" d="M96.03 132.05H108.03V144.05H96.03z"/></g><g id="change2_130"><path fill="#ef4434" d="M96.03 120.04H108.03V132.04000000000002H96.03z"/></g><g id="change2_131"><path fill="#ef4434" d="M96.03 108.04H108.03V120.04H96.03z"/></g><g id="change1_197"><path d="M96.03 96.03H108.03V108.03H96.03z"/></g><g id="change3_31"><path fill="#ffffff" d="M96.03 84.03H108.03V96.03H96.03z"/></g><g id="change1_198"><path d="M96.03 72.02H108.03V84.02H96.03z"/></g><g id="change1_199"><path d="M96.03 60.02H108.03V72.02000000000001H96.03z"/></g><g id="change2_132"><path fill="#ef4434" d="M96.03 48.01H108.03V60.01H96.03z"/></g><g id="change1_200"><path d="M96.03 36.01H108.03V48.01H96.03z"/></g><g id="change2_133"><path fill="#ef4434" d="M96.03 24.01H108.03V36.010000000000005H96.03z"/></g><g id="change3_32"><path fill="#ffffff" d="M96.03 12H108.03V24H96.03z"/></g><g id="change1_201"><path d="M96.03 0H108.03V12H96.03z"/></g><g id="change1_202"><path d="M84.03 252.08H96.03V264.08000000000004H84.03z"/></g><g id="change1_203"><path d="M84.03 240.08H96.03V252.08H84.03z"/></g><g id="change4_13"><path fill="#3e3467" d="M84.03 228.08H96.03V240.08H84.03z"/></g><g id="change1_204"><path d="M84.03 216.07H96.03V228.07H84.03z"/></g><g id="change2_134"><path fill="#ef4434" d="M84.03 204.07H96.03V216.07H84.03z"/></g><g id="change2_135"><path fill="#ef4434" d="M84.03 192.06H96.03V204.06H84.03z"/></g><g id="change1_205"><path d="M84.03 180.06H96.03V192.06H84.03z"/></g><g id="change1_206"><path d="M84.03 168.05H96.03V180.05H84.03z"/></g><g id="change1_207"><path d="M84.03 156.05H96.03V168.05H84.03z"/></g><g id="change1_208"><path d="M84.03 144.04H96.03V156.04H84.03z"/></g><g id="change1_209"><path d="M84.03 132.05H96.03V144.05H84.03z"/></g><g id="change2_136"><path fill="#ef4434" d="M84.03 120.04H96.03V132.04000000000002H84.03z"/></g><g id="change2_137"><path fill="#ef4434" d="M84.03 108.04H96.03V120.04H84.03z"/></g><g id="change1_210"><path d="M84.03 96.03H96.03V108.03H84.03z"/></g><g id="change3_33"><path fill="#ffffff" d="M84.03 84.03H96.03V96.03H84.03z"/></g><g id="change1_211"><path d="M84.03 72.02H96.03V84.02H84.03z"/></g><g id="change1_212"><path d="M84.03 60.02H96.03V72.02000000000001H84.03z"/></g><g id="change2_138"><path fill="#ef4434" d="M84.03 48.01H96.03V60.01H84.03z"/></g><g id="change1_213"><path d="M84.03 36.01H96.03V48.01H84.03z"/></g><g id="change2_139"><path fill="#ef4434" d="M84.03 24.01H96.03V36.010000000000005H84.03z"/></g><g id="change3_34"><path fill="#ffffff" d="M84.03 12H96.03V24H84.03z"/></g><g id="change1_214"><path d="M84.03 0H96.03V12H84.03z"/></g><g id="change1_215"><path d="M72.03 252.08H84.03V264.08000000000004H72.03z"/></g><g id="change1_216"><path d="M72.03 240.08H84.03V252.08H72.03z"/></g><g id="change4_14"><path fill="#3e3467" d="M72.03 228.08H84.03V240.08H72.03z"/></g><g id="change1_217"><path d="M72.03 216.07H84.03V228.07H72.03z"/></g><g id="change2_140"><path fill="#ef4434" d="M72.03 204.07H84.03V216.07H72.03z"/></g><g id="change1_218"><path d="M72.03 192.06H84.03V204.06H72.03z"/></g><g id="change1_219"><path d="M72.03 180.06H84.03V192.06H72.03z"/></g><g id="change1_220"><path d="M72.03 168.05H84.03V180.05H72.03z"/></g><g id="change3_35"><path fill="#ffffff" d="M72.03 156.05H84.03V168.05H72.03z"/></g><g id="change1_221"><path d="M72.03 144.04H84.03V156.04H72.03z"/></g><g id="change1_222"><path d="M72.03 132.05H84.03V144.05H72.03z"/></g><g id="change1_223"><path d="M72.03 120.04H84.03V132.04000000000002H72.03z"/></g><g id="change2_141"><path fill="#ef4434" d="M72.03 108.04H84.03V120.04H72.03z"/></g><g id="change1_224"><path d="M72.03 96.03H84.03V108.03H72.03z"/></g><g id="change3_36"><path fill="#ffffff" d="M72.03 84.03H84.03V96.03H72.03z"/></g><g id="change1_225"><path d="M72.03 72.02H84.03V84.02H72.03z"/></g><g id="change2_142"><path fill="#ef4434" d="M72.03 60.02H84.03V72.02000000000001H72.03z"/></g><g id="change2_143"><path fill="#ef4434" d="M72.03 48.01H84.03V60.01H72.03z"/></g><g id="change1_226"><path d="M72.03 36.01H84.03V48.01H72.03z"/></g><g id="change2_144"><path fill="#ef4434" d="M72.03 24.01H84.03V36.010000000000005H72.03z"/></g><g id="change3_37"><path fill="#ffffff" d="M72.03 12H84.03V24H72.03z"/></g><g id="change1_227"><path d="M72.03 0H84.03V12H72.03z"/></g><g id="change1_228"><path d="M60.02 252.08H72.02000000000001V264.08000000000004H60.02z"/></g><g id="change1_229"><path d="M60.02 240.08H72.02000000000001V252.08H60.02z"/></g><g id="change4_15"><path fill="#3e3467" d="M60.02 228.08H72.02000000000001V240.08H60.02z"/></g><g id="change1_230"><path d="M60.02 216.07H72.02000000000001V228.07H60.02z"/></g><g id="change2_145"><path fill="#ef4434" d="M60.02 204.07H72.02000000000001V216.07H60.02z"/></g><g id="change1_231"><path d="M60.02 192.06H72.02000000000001V204.06H60.02z"/></g><g id="change1_232"><path d="M60.02 180.06H72.02000000000001V192.06H60.02z"/></g><g id="change3_38"><path fill="#ffffff" d="M60.02 168.05H72.02000000000001V180.05H60.02z"/></g><g id="change1_233"><path d="M60.02 156.05H72.02000000000001V168.05H60.02z"/></g><g id="change3_39"><path fill="#ffffff" d="M60.02 144.04H72.02000000000001V156.04H60.02z"/></g><g id="change1_234"><path d="M60.02 132.05H72.02000000000001V144.05H60.02z"/></g><g id="change1_235"><path d="M60.02 120.04H72.02000000000001V132.04000000000002H60.02z"/></g><g id="change2_146"><path fill="#ef4434" d="M60.02 108.04H72.02000000000001V120.04H60.02z"/></g><g id="change1_236"><path d="M60.02 96.03H72.02000000000001V108.03H60.02z"/></g><g id="change3_40"><path fill="#ffffff" d="M60.02 84.03H72.02000000000001V96.03H60.02z"/></g><g id="change1_237"><path d="M60.02 72.02H72.02000000000001V84.02H60.02z"/></g><g id="change2_147"><path fill="#ef4434" d="M60.02 60.02H72.02000000000001V72.02000000000001H60.02z"/></g><g id="change2_148"><path fill="#ef4434" d="M60.02 48.01H72.02000000000001V60.01H60.02z"/></g><g id="change1_238"><path d="M60.02 36.01H72.02000000000001V48.01H60.02z"/></g><g id="change2_149"><path fill="#ef4434" d="M60.02 24.01H72.02000000000001V36.010000000000005H60.02z"/></g><g id="change3_41"><path fill="#ffffff" d="M60.02 12H72.02000000000001V24H60.02z"/></g><g id="change1_239"><path d="M60.02 0H72.02000000000001V12H60.02z"/></g><g id="change1_240"><path d="M48.02 252.08H60.02V264.08000000000004H48.02z"/></g><g id="change1_241"><path d="M48.02 240.08H60.02V252.08H48.02z"/></g><g id="change4_16"><path fill="#3e3467" d="M48.02 228.08H60.02V240.08H48.02z"/></g><g id="change1_242"><path d="M48.02 216.07H60.02V228.07H48.02z"/></g><g id="change2_150"><path fill="#ef4434" d="M48.02 204.07H60.02V216.07H48.02z"/></g><g id="change1_243"><path d="M48.02 192.06H60.02V204.06H48.02z"/></g><g id="change1_244"><path d="M48.02 180.06H60.02V192.06H48.02z"/></g><g id="change1_245"><path d="M48.02 168.05H60.02V180.05H48.02z"/></g><g id="change3_42"><path fill="#ffffff" d="M48.02 156.05H60.02V168.05H48.02z"/></g><g id="change1_246"><path d="M48.02 144.04H60.02V156.04H48.02z"/></g><g id="change1_247"><path d="M48.02 132.05H60.02V144.05H48.02z"/></g><g id="change1_248"><path d="M48.02 120.04H60.02V132.04000000000002H48.02z"/></g><g id="change2_151"><path fill="#ef4434" d="M48.02 108.04H60.02V120.04H48.02z"/></g><g id="change1_249"><path d="M48.02 96.03H60.02V108.03H48.02z"/></g><g id="change3_43"><path fill="#ffffff" d="M48.02 84.03H60.02V96.03H48.02z"/></g><g id="change1_250"><path d="M48.02 72.02H60.02V84.02H48.02z"/></g><g id="change2_152"><path fill="#ef4434" d="M48.02 60.02H60.02V72.02000000000001H48.02z"/></g><g id="change1_251"><path d="M48.02 48.01H60.02V60.01H48.02z"/></g><g id="change1_252"><path d="M48.02 36.01H60.02V48.01H48.02z"/></g><g id="change2_153"><path fill="#ef4434" d="M48.02 24.01H60.02V36.010000000000005H48.02z"/></g><g id="change1_253"><path d="M48.02 12H60.02V24H48.02z"/></g><g id="change1_254"><path d="M36.01 252.08H48.01V264.08000000000004H36.01z"/></g><g id="change1_255"><path d="M36.01 240.08H48.01V252.08H36.01z"/></g><g id="change4_17"><path fill="#3e3467" d="M36.01 228.08H48.01V240.08H36.01z"/></g><g id="change1_256"><path d="M36.01 216.07H48.01V228.07H36.01z"/></g><g id="change2_154"><path fill="#ef4434" d="M36.01 204.07H48.01V216.07H36.01z"/></g><g id="change2_155"><path fill="#ef4434" d="M36.01 192.06H48.01V204.06H36.01z"/></g><g id="change1_257"><path d="M36.01 180.06H48.01V192.06H36.01z"/></g><g id="change1_258"><path d="M36.01 168.05H48.01V180.05H36.01z"/></g><g id="change1_259"><path d="M36.01 156.05H48.01V168.05H36.01z"/></g><g id="change1_260"><path d="M36.01 144.04H48.01V156.04H36.01z"/></g><g id="change1_261"><path d="M36.01 132.05H48.01V144.05H36.01z"/></g><g id="change2_156"><path fill="#ef4434" d="M36.01 120.04H48.01V132.04000000000002H36.01z"/></g><g id="change2_157"><path fill="#ef4434" d="M36.01 108.04H48.01V120.04H36.01z"/></g><g id="change1_262"><path d="M36.01 96.03H48.01V108.03H36.01z"/></g><g id="change3_44"><path fill="#ffffff" d="M36.01 84.03H48.01V96.03H36.01z"/></g><g id="change1_263"><path d="M36.01 72.02H48.01V84.02H36.01z"/></g><g id="change1_264"><path d="M36.01 60.02H48.01V72.02000000000001H36.01z"/></g><g id="change1_265"><path d="M36.01 48.01H48.01V60.01H36.01z"/></g><g id="change1_266"><path d="M36.01 36.01H48.01V48.01H36.01z"/></g><g id="change1_267"><path d="M36.01 24.01H48.01V36.010000000000005H36.01z"/></g><g id="change1_268"><path d="M24.01 252.08H36.010000000000005V264.08000000000004H24.01z"/></g><g id="change1_269"><path d="M24.01 240.08H36.010000000000005V252.08H24.01z"/></g><g id="change4_18"><path fill="#3e3467" d="M24.01 228.08H36.010000000000005V240.08H24.01z"/></g><g id="change1_270"><path d="M24.01 216.07H36.010000000000005V228.07H24.01z"/></g><g id="change2_158"><path fill="#ef4434" d="M24.01 204.07H36.010000000000005V216.07H24.01z"/></g><g id="change2_159"><path fill="#ef4434" d="M24.01 192.06H36.010000000000005V204.06H24.01z"/></g><g id="change2_160"><path fill="#ef4434" d="M24.01 180.06H36.010000000000005V192.06H24.01z"/></g><g id="change1_271"><path d="M24.01 168.05H36.010000000000005V180.05H24.01z"/></g><g id="change1_272"><path d="M24.01 156.05H36.010000000000005V168.05H24.01z"/></g><g id="change1_273"><path d="M24.01 144.04H36.010000000000005V156.04H24.01z"/></g><g id="change2_161"><path fill="#ef4434" d="M24.01 132.05H36.010000000000005V144.05H24.01z"/></g><g id="change2_162"><path fill="#ef4434" d="M24.01 120.04H36.010000000000005V132.04000000000002H24.01z"/></g><g id="change2_163"><path fill="#ef4434" d="M24.01 108.04H36.010000000000005V120.04H24.01z"/></g><g id="change1_274"><path d="M24.01 96.03H36.010000000000005V108.03H24.01z"/></g><g id="change3_45"><path fill="#ffffff" d="M24.01 84.03H36.010000000000005V96.03H24.01z"/></g><g id="change1_275"><path d="M24.01 72.02H36.010000000000005V84.02H24.01z"/></g><g id="change1_276"><path d="M12 252.08H24V264.08000000000004H12z"/></g><g id="change1_277"><path d="M12 240.08H24V252.08H12z"/></g><g id="change4_19"><path fill="#3e3467" d="M12 228.08H24V240.08H12z"/></g><g id="change1_278"><path d="M12 216.07H24V228.07H12z"/></g><g id="change1_279"><path d="M12 204.07H24V216.07H12z"/></g><g id="change2_164"><path fill="#ef4434" d="M12 192.06H24V204.06H12z"/></g><g id="change2_165"><path fill="#ef4434" d="M12 180.06H24V192.06H12z"/></g><g id="change2_166"><path fill="#ef4434" d="M12 168.05H24V180.05H12z"/></g><g id="change2_167"><path fill="#ef4434" d="M12 156.05H24V168.05H12z"/></g><g id="change2_168"><path fill="#ef4434" d="M12 144.04H24V156.04H12z"/></g><g id="change2_169"><path fill="#ef4434" d="M12 132.05H24V144.05H12z"/></g><g id="change2_170"><path fill="#ef4434" d="M12 120.04H24V132.04000000000002H12z"/></g><g id="change1_280"><path d="M12 108.04H24V120.04H12z"/></g><g id="change1_281"><path d="M12 96.03H24V108.03H12z"/></g><g id="change3_46"><path fill="#ffffff" d="M12 84.03H24V96.03H12z"/></g><g id="change1_282"><path d="M12 72.02H24V84.02H12z"/></g><g id="change1_283"><path d="M0 252.08H12V264.08000000000004H0z"/></g><g id="change1_284"><path d="M0 240.08H12V252.08H0z"/></g><g id="change1_285"><path d="M0 228.08H12V240.08H0z"/></g><g id="change1_286"><path d="M0 216.07H12V228.07H0z"/></g><g id="change1_287"><path d="M0 204.07H12V216.07H0z"/></g><g id="change1_288"><path d="M0 192.06H12V204.06H0z"/></g><g id="change1_289"><path d="M0 180.06H12V192.06H0z"/></g><g id="change1_290"><path d="M0 168.05H12V180.05H0z"/></g><g id="change1_291"><path d="M0 156.05H12V168.05H0z"/></g><g id="change1_292"><path d="M0 144.04H12V156.04H0z"/></g><g id="change1_293"><path d="M0 132.05H12V144.05H0z"/></g><g id="change1_294"><path d="M0 120.04H12V132.04000000000002H0z"/></g><g id="change1_295"><path d="M0 108.04H12V120.04H0z"/></g><g id="change1_296"><path d="M0 96.03H12V108.03H0z"/></g><g id="change1_297"><path d="M0 84.03H12V96.03H0z"/></g></g></g></svg>