<?xml version="1.0" encoding="UTF-8" standalone="no"?><svg xmlns="http://www.w3.org/2000/svg" xmlns:xlink="http://www.w3.org/1999/xlink" contentScriptType="text/ecmascript" fill="#000000" width="482.1" zoomAndPan="magnify" contentStyleType="text/css" viewBox="0.0 0.0 482.1 500.0" height="500" preserveAspectRatio="xMidYMid meet" version="1"><g id="change1_1"><path fill="#372c5e" d="M473.2,196.4v134l-8.9,8.9l-8.9,8.9h-17.9V169.6l-8.9-8.9l-17.9-17.8l-8.9-21.6L375,107.1l-17.9-17.8 l-35.7-17.9l-35.7-17.8l-8.9-9h-35.7h-35.7l-9,9l-35.7,17.8L125,89.3l-17.9,17.8l-26.7,14.2l-9,21.6l-17.8,17.8l-9,8.9v178.6H26.8 l-8.9-8.9l-9-8.9v-134l9-17.8l8.9-12.8v-49.7l8.9-9l17.9-17.8l17.8-17.9l35.7-17.8l35.8-17.9l35.7-17.8l17.8-9h44.7h44.6l17.9,9 l35.7,17.8L375,53.6l35.7,17.8l17.9,17.9l17.8,17.8l9,9v49.7l8.9,12.8L473.2,196.4z M89.3,321.4H71.4v17.9H89v17.8V375h17.9v-17.9 v-17.8H89.3V321.4z M107,392.9h17.9V375H107V392.9z M392.9,339.3h17.9v-17.9h-17.9V339.3z M357.1,392.9H375V375h-17.9V392.9z M375,357.1V375h17.9v-17.9v-17.8H375V357.1z"/></g><g id="change2_1"><path fill="#ef4434" d="M191,419.6v-17.9l-12.5-8.9l-8.9-17.9V366l-8.9-8.9l-6-8.9v-35.7l-11.9-8.9l-8.9-12.9v-17.5l-8.9-5.3l-8.9-8.9 h-15.2l-11.6,8.9l-11.4,8.9H44.6v84.1l8.9,14.1l17.9,35.7l17.9,35.7l17.9,35.7l8.9,5.8h53.6l8.9-5.8l17.9-17.9l8.9-6.6v-20.2 l-8.9-8.9L191,419.6z M106.9,357.1V375H89v-17.9v-17.9H71.4v-17.9h17.9v17.9h17.6V357.1z M124.9,392.9H107V375h17.9V392.9z M404.2,276.8L404.2,276.8l-11.4-8.9l-11.6-8.9H366l-8.9,8.9l-8.9,5.3v17.5l-8.9,12.9l-11.9,8.9v35.7l-6,8.9l-8.9,8.9v8.9l-8.9,17.9 l-12.5,8.9v17.9l-5.4,8.9l-8.9,8.9v20.2l8.9,6.6l17.9,17.9l8.9,5.8h53.6l8.9-5.8l17.9-35.7l17.9-35.7l17.9-35.7l8.9-14.1v-84.1 L404.2,276.8L404.2,276.8z M374.9,392.9H357V375h17.9V392.9z M410.7,339.3h-17.8v17.8V375H375v-17.9v-17.9h17.8v-17.8h17.9 L410.7,339.3L410.7,339.3z M392.9,339.2L392.9,339.2L392.9,339.2L392.9,339.2L392.9,339.2z"/></g><g id="change3_1"><path fill="#3e3467" d="M142.9,71.4h17.8v17.9h-17.8H125V71.4H142.9z M107.1,107.1H89.3H71.4V125v17.9H53.6v17.8H35.7v-17.8V125v-17.8 h17.9V89.3H35.7v17.8H17.9V125v17.9v17.8v17.9h17.8v17.8v17.9v17.8V250v17.9v17.8v17.9v17.8v17.9H17.9v17.8h17.8V375h17.9v17.9v17.8 h17.8v17.9v17.8h17.9v17.9v17.8h17.8V500H125h17.9h17.8h17.9v-17.8h17.9v-17.9h17.8v-17.9v-17.8h-17.9v17.8v17.9h-17.8v17.8h-17.9 v-17.8h-17.8v-17.9H125v-17.8v-17.9h-17.9v-17.8V375H89.3v-17.9v-17.8H71.4v-17.9H53.6v-17.8v-17.9h17.8h17.9v-17.8H71.4H53.6V250 v-17.9v-17.8v-17.9v-17.8v-17.8h17.9v-17.9h17.8V125h17.8L107.1,107.1l17.9,0.1V89.3h-17.9V107.1z M160.7,53.6v17.8h17.9h17.8V53.6 h-17.8H160.7z M142.9,53.6V35.7H125h-17.9v17.9H125H142.9z M71.5,71.4h17.8h17.8V53.6H89.3H71.4L71.5,71.4H53.6v17.9h17.9V71.4z M214.3,17.9h17.8H250h17.9h17.8h17.9V0h-17.9h-17.8H250h-17.9h-17.8h-17.9h-17.8v17.9h17.8H214.3z M178.6,35.7V17.9h-17.9h-17.8 v17.8h17.8C160.7,35.7,178.6,35.7,178.6,35.7z M17.9,303.6v-17.9v-17.8V250v-17.9v-17.8v-17.9v-17.8H0v17.8v17.9v17.8V250v17.9v17.8 v17.9v17.8v17.9h17.9v-17.9V303.6z M125,267.9V250h-17.9H89.3v17.9h17.8H125z M125,303.6h17.9v-17.9v-17.8H125v17.8V303.6z M142.9,339.3v17.8h17.8v-17.8v-17.9v-17.8h-17.8v17.8V339.3z M160.7,392.9h17.9V375v-17.9h-17.9V375V392.9z M178.6,428.6h17.8 v-17.9v-17.8h-17.8v17.8V428.6z M339.3,71.4h-17.9v17.9h17.9h17.8V71.4H339.3z M410.7,107.1h-17.8H375V89.3h-17.9v17.9H375V125h17.9 v17.9h17.8V125L410.7,107.1L410.7,107.1z M267.9,35.7H250h-17.9h-17.8h-17.9v17.9h17.9h17.8H250h17.9h17.8V35.7H267.9z M303.6,53.6 h-17.9v17.8h17.9h17.8V53.6H303.6z M357.1,53.6H375V35.7h-17.9h-17.8v17.9H357.1z M392.9,71.4h17.8V53.6h-17.8H375v17.8 C375,71.4,392.9,71.4,392.9,71.4z M428.6,89.3V71.4h-17.9v17.9H428.6z M321.4,35.7h17.9V17.9h-17.9h-17.8v17.8 C303.6,35.7,321.4,35.7,321.4,35.7z M464.3,178.6v17.8v17.9v17.8V250v17.9v17.8v17.9v17.8v17.9h17.8v-17.9v-17.8v-17.9v-17.8V250 v-17.9v-17.8v-17.9v-17.8H464.3z M392.9,267.9V250H375h-17.9v17.9H375H392.9z M357.1,285.7v-17.8h-17.8v17.8v17.9h17.8V285.7z M339.3,339.3v-17.9v-17.8h-17.9v17.8v17.9v17.8h17.9V339.3z M321.4,375v-17.9h-17.8V375v17.9h17.8V375z M303.6,410.7v-17.8h-17.9 v17.8v17.9h17.9V410.7z M285.7,428.6h-17.8v17.8v17.9h17.8v-17.9V428.6z M446.4,321.4v-17.8v-17.9v-17.8V250v-17.9v-17.8v-17.9 v-17.8h17.9v-17.9v-17.8V125v-17.9h-17.8V89.3h-17.9v17.9h17.8V125v17.9v17.8h-17.8v-17.8h-17.9v17.9h17.9v17.8v17.8v17.9v17.8V250 v17.9h-17.9h-17.8v17.8h17.8h17.9v17.9v17.8h-17.9v17.9h-17.8v17.8V375H375v17.9v17.8h-17.9v17.9v17.8h-17.8v17.9h-17.9v17.8h-17.8 v-17.8h-17.9v17.9h17.9V500h17.8h17.9h17.8H375v-17.9h17.9v-17.8v-17.9h17.8v-17.8v-17.9h17.9v-17.8V375h17.8v-17.9h17.9v-17.8 h-17.9L446.4,321.4L446.4,321.4z"/></g></svg>