<?xml version="1.0" encoding="UTF-8" standalone="no"?><svg xmlns="http://www.w3.org/2000/svg" xmlns:xlink="http://www.w3.org/1999/xlink" contentScriptType="text/ecmascript" fill="#000000" width="470" zoomAndPan="magnify" contentStyleType="text/css" viewBox="0.0 0.0 470.0 270.0" height="270" preserveAspectRatio="xMidYMid meet" version="1"><g id="change1_1"><path fill="#ef4434" d="M470,75v5v25v5h-5v5h-10v5h-10v5h-10v5h-10v5h-10v5h-10v5h-10v5h-10v5h-10v5h-10v5h-10v5h-10v5h-10v5h-10v5h-10 v5h-10v5h-10v5h-10v5h-10v5h-10v5h-10v5h-10v5h-10v5h-10v5h-10v5h-10v5h-10v5h-10v5h-10v5h-10v5h-10v5h-10v-5h-10v-5h-10v-5h-10v-5 h-10v-5H95v-5H85v-5H75v-5H65v-5H55v-5H45v-5H35v-5H25v-5H15v-5H5v-5H0v-5v-25v-5h5v-5h10v-5h10v-5h10v-5h10v-5h10v-5h10v-5h10v-5 h10v-5h10v-5h10v-5h10v-5h10v-5h10v-5h10v-5h10v-5h10v-5h10v-5h10v-5h10v-5h10v-5h10v-5h10v-5h10v-5h10v-5h10v-5h10v-5h10v-5h10v-5 h10v-5h10V5h10V0h10v5h10v5h10v5h10v5h10v5h10v5h10v5h10v5h10v5h10v5h10v5h10v5h10v5h10v5h10v5H470z"/></g><g id="change2_1"><path fill="#2e1b5b" d="M465,75v5h-10v5h-10v5h-10v5h-10v5h-10v5h-10v5h-10v5h-10v5h-10v5h-10v5h-10v5h-10v5h-10v5h-10v5h-10v5h-10v5 h-10v5h-10v5h-10v5h-10v5h-10v5h-10v5h-10v5h-10v5h-10v5h-10v5h-10v5h-10v5h-10v5h-10v5h-10v5h-10v-5h-10v-5h-10v-5h-10v-5h-10v-5 H95v-5H85v-5H75v-5H65v-5H55v-5H45v-5H35v-5H25v-5H15v-5H5v-5h10v-5h10v-5h10v-5h10v-5h10v-5h10v-5h10v-5h10v-5h10v-5h10v-5h10v-5 h10v-5h10v-5h10v-5h10v-5h10v-5h10v-5h10v-5h10v-5h10v-5h10v-5h10v-5h10v-5h10v-5h10v-5h10v-5h10v-5h10v-5h10v-5h10v-5h10V5h10v5h10 v5h10v5h10v5h10v5h10v5h10v5h10v5h10v5h10v5h10v5h10v5h10v5h10v5H465z M145,240v-5h-10v-5h-10v-5h-10v-5h-10v-5H95v-5H85v-5H75v-5 H65v-5H55v-5H45v-5H35v-5H25v-5H15v-5H5v25h10v5h10v5h10v5h10v5h10v5h10v5h10v5h10v5h10v5h10v5h10v5h10v5h10v5h10v5h5v-25H145z"/></g><g id="change3_1"><path d="M35,160v5h-5v-5H35z M35,165v5h10v-5H35z M35,155v5h10v-5H35z M45,160v5h5v-5H45z M60,175v5h5v-5H60z M65,180v5h10v-5H65z M65,170v5h10v-5H65z M70,140v5h5v-5H70z M75,145v5h10v-5H75z M75,135v5h10v-5H75z M85,140v5h5v-5H85z M95,155v5h5v-5H95z M100,160 v5h10v-5H100z M100,150v5h10v-5H100z M110,155v5h5v-5H110z M115,145v5h5v-5H115z M120,150v5h10v-5H120z M120,140v5h10v-5H120z M130,145v5h5v-5H130z M135,135v5h5v-5H135z M140,140v5h10v-5H140z M140,130v5h10v-5H140z M150,135v5h5v-5H150z M155,125v5h5v-5H155 z M160,130v5h10v-5H160z M160,120v5h10v-5H160z M170,125v5h5v-5H170z M175,115v5h5v-5H175z M180,120v5h10v-5H180z M180,110v5h10v-5 H180z M190,115v5h5v-5H190z M195,105v5h5v-5H195z M200,110v5h10v-5H200z M200,100v5h10v-5H200z M210,105v5h5v-5H210z M215,95v5h5v-5 H215z M220,100v5h10v-5H220z M220,90v5h10v-5H220z M230,95v5h5v-5H230z M235,85v5h5v-5H235z M240,90v5h10v-5H240z M240,80v5h10v-5 H240z M260,80v5h10v-5H260z M260,70v5h10v-5H260z M270,75v5h5v-5H270z M295,55v5h5v-5H295z M300,60v5h10v-5H300z M300,50v5h10v-5 H300z M310,55v5h5v-5H310z M315,45v5h5v-5H315z M320,50v5h10v-5H320z M320,40v5h10v-5H320z M330,45v5h5v-5H330z M335,35v5h5v-5H335z M340,40v5h10v-5H340z M340,30v5h10v-5H340z M350,35v5h5v-5H350z M90,130v5h5v-5H90z M95,135v5h10v-5H95z M95,125v5h10v-5H95z M105,130v5h5v-5H105z M110,120v5h5v-5H110z M115,125v5h10v-5H115z M115,115v5h10v-5H115z M125,120v5h5v-5H125z M130,110v5h5v-5H130 z M135,115v5h10v-5H135z M135,105v5h10v-5H135z M145,110v5h5v-5H145z M170,90v5h5v-5H170z M175,95v5h10v-5H175z M175,85v5h10v-5H175 z M185,90v5h5v-5H185z M190,80v5h5v-5H190z M195,85v5h10v-5H195z M195,75v5h10v-5H195z M205,80v5h5v-5H205z M210,70v5h5v-5H210z M215,75v5h10v-5H215z M215,65v5h10v-5H215z M225,70v5h5v-5H225z M230,60v5h5v-5H230z M235,65v5h10v-5H235z M235,55v5h10v-5H235z M245,60v5h5v-5H245z M270,40v5h5v-5H270z M275,45v5h10v-5H275z M275,35v5h10v-5H275z M285,40v5h5v-5H285z M290,30v5h5v-5H290z M295,35v5h10v-5H295z M295,25v5h10v-5H295z M305,30v5h5v-5H305z M310,20v5h5v-5H310z M315,25v5h10v-5H315z M315,15v5h10v-5H315z M325,20v5h5v-5H325z M75,165v5h10v-5H75z M75,175v5h10v-5H75z M85,170v5h5v-5H85z M80,185v5h5v-5H80z M85,190v5h10v-5H85z M85,180 v5h10v-5H85z M120,170v5h10v-5H120z M120,160v5h10v-5H120z M130,165v5h5v-5H130z M135,155v5h5v-5H135z M140,160v5h10v-5H140z M140,150v5h10v-5H140z M150,155v5h5v-5H150z M155,145v5h5v-5H155z M160,150v5h10v-5H160z M160,140v5h10v-5H160z M170,145v5h5v-5 H170z M175,135v5h5v-5H175z M180,140v5h10v-5H180z M180,130v5h10v-5H180z M190,135v5h5v-5H190z M195,125v5h5v-5H195z M200,130v5h10 v-5H200z M200,120v5h10v-5H200z M210,125v5h5v-5H210z M215,115v5h5v-5H215z M220,120v5h10v-5H220z M220,110v5h10v-5H220z M230,115v5 h5v-5H230z M235,105v5h5v-5H235z M240,110v5h10v-5H240z M240,100v5h10v-5H240z M250,105v5h5v-5H250z M255,95v5h5v-5H255z M260,100v5 h10v-5H260z M260,90v5h10v-5H260z M270,95v5h5v-5H270z M275,85v5h5v-5H275z M280,90v5h10v-5H280z M280,80v5h10v-5H280z M290,85v5h5 v-5H290z M315,65v5h5v-5H315z M320,70v5h10v-5H320z M320,60v5h10v-5H320z M330,65v5h5v-5H330z M335,55v5h5v-5H335z M340,60v5h10v-5 H340z M340,50v5h10v-5H340z M350,55v5h5v-5H350z M355,45v5h5v-5H355z M360,50v5h10v-5H360z M360,40v5h10v-5H360z M370,45v5h5v-5H370 z M95,175v5h10v-5H95z M95,185v5h10v-5H95z M105,180v5h5v-5H105z M250,75v5h10v-5H250z M250,85v5h10v-5H250z M115,165v5h5v-5H115z M100,195v5h5v-5H100z M105,200v5h10v-5H105z M105,190v5h10v-5H105z M140,180v5h10v-5H140z M140,170v5h10v-5H140z M150,175v5h5v-5 H150z M155,165v5h5v-5H155z M160,170v5h10v-5H160z M160,160v5h10v-5H160z M170,165v5h5v-5H170z M175,155v5h5v-5H175z M180,160v5h10 v-5H180z M180,150v5h10v-5H180z M190,155v5h5v-5H190z M195,145v5h5v-5H195z M200,150v5h10v-5H200z M200,140v5h10v-5H200z M210,145v5 h5v-5H210z M215,135v5h5v-5H215z M220,140v5h10v-5H220z M220,130v5h10v-5H220z M230,135v5h5v-5H230z M235,125v5h5v-5H235z M240,130 v5h10v-5H240z M240,120v5h10v-5H240z M250,125v5h5v-5H250z M255,115v5h5v-5H255z M260,120v5h10v-5H260z M260,110v5h10v-5H260z M270,115v5h5v-5H270z M275,105v5h5v-5H275z M280,110v5h10v-5H280z M280,100v5h10v-5H280z M290,105v5h5v-5H290z M295,95v5h5v-5H295z M300,100v5h10v-5H300z M300,90v5h10v-5H300z M310,95v5h5v-5H310z M115,185v5h10v-5H115z M115,195v5h10v-5H115z M125,190v5h5v-5H125 z M135,175v5h5v-5H135z M120,205v5h5v-5H120z M125,210v5h10v-5H125z M125,200v5h10v-5H125z M160,190v5h10v-5H160z M160,180v5h10v-5 H160z M170,185v5h5v-5H170z M175,175v5h5v-5H175z M180,180v5h10v-5H180z M180,170v5h10v-5H180z M190,175v5h5v-5H190z M195,165v5h5 v-5H195z M200,170v5h10v-5H200z M200,160v5h10v-5H200z M210,165v5h5v-5H210z M215,155v5h5v-5H215z M220,160v5h10v-5H220z M220,150v5 h10v-5H220z M230,155v5h5v-5H230z M235,145v5h5v-5H235z M240,150v5h10v-5H240z M240,140v5h10v-5H240z M250,145v5h5v-5H250z M255,135 v5h5v-5H255z M260,140v5h10v-5H260z M260,130v5h10v-5H260z M270,135v5h5v-5H270z M275,125v5h5v-5H275z M280,130v5h10v-5H280z M280,120v5h10v-5H280z M290,125v5h5v-5H290z M295,115v5h5v-5H295z M300,120v5h10v-5H300z M300,110v5h10v-5H300z M310,115v5h5v-5 H310z M315,105v5h5v-5H315z M320,110v5h10v-5H320z M320,100v5h10v-5H320z M330,105v5h5v-5H330z M375,75v5h5v-5H375z M380,80v5h10v-5 H380z M380,70v5h10v-5H380z M390,75v5h5v-5H390z M135,195v5h10v-5H135z M135,205v5h10v-5H135z M145,200v5h5v-5H145z M155,185v5h5v-5 H155z M140,215v5h5v-5H140z M145,220v5h10v-5H145z M145,210v5h10v-5H145z M180,200v5h10v-5H180z M180,190v5h10v-5H180z M190,195v5h5 v-5H190z M195,185v5h5v-5H195z M200,190v5h10v-5H200z M200,180v5h10v-5H200z M210,185v5h5v-5H210z M215,175v5h5v-5H215z M220,180v5 h10v-5H220z M230,175v5h10v-5H230z M240,170v5h10v-5H240z M250,165v5h10v-5H250z M260,160v5h10v-5H260z M270,155v5h10v-5H270z M280,150v5h10v-5H280z M280,140v5h10v-5H280z M290,145v5h5v-5H290z M295,135v5h5v-5H295z M300,140v5h10v-5H300z M300,130v5h10v-5 H300z M310,135v5h5v-5H310z M315,125v5h5v-5H315z M320,130v5h10v-5H320z M320,120v5h10v-5H320z M330,125v5h5v-5H330z M335,115v5h5 v-5H335z M340,120v5h10v-5H340z M340,110v5h10v-5H340z M350,115v5h5v-5H350z M375,95v5h5v-5H375z M380,100v5h10v-5H380z M380,90v5 h10v-5H380z M390,95v5h5v-5H390z M395,85v5h5v-5H395z M400,90v5h10v-5H400z M400,80v5h10v-5H400z M410,85v5h5v-5H410z M415,75v5h5 v-5H415z M420,80v5h10v-5H420z M420,70v5h10v-5H420z M430,75v5h5v-5H430z M155,205v5h10v-5H155z M155,215v5h10v-5H155z M165,210v5h5 v-5H165z M175,195v5h5v-5H175z M220,170v5h10v-5H220z M230,165v5h10v-5H230z M240,160v5h10v-5H240z M250,155v5h10v-5H250z M260,150 v5h10v-5H260z M270,145v5h10v-5H270z"/></g><g id="change1_2"><path fill="#ef4434" d="M45,165H35v-5h10V165z M85,140H75v5h10V140z M110,155h-10v5h10V155z M120,145v5h10v-5H120z M150,135h-10v5h10 V135z M170,125h-10v5h10V125z M180,115v5h10v-5H180z M200,105v5h10v-5H200z M220,95v5h10v-5H220z M300,55v5h10v-5H300z M330,45h-10 v5h10V45z M350,35h-10v5h10V35z M105,130H95v5h10V130z M125,120h-10v5h10V120z M145,110h-10v5h10V110z M185,90h-10v5h10V90z M205,80 h-10v5h10V80z M225,70h-10v5h10V70z M245,60h-10v5h10V60z M285,40h-10v5h10V40z M305,30h-10v5h10V30z M325,20h-10v5h10V20z M75,175 H65v5h10V175z M85,170H75v5h10V170z M140,155v5h10v-5H140z M160,145v5h10v-5H160z M190,135h-10v5h10V135z M210,125h-10v5h10V125z M230,115h-10v5h10V115z M240,105v5h10v-5H240z M270,100v-5h-10v5H270z M280,85v5h10v-5H280z M330,65h-10v5h10V65z M350,55h-10v5h10 V55z M370,45h-10v5h10V45z M95,190v-5H85v5H95z M105,180H95v5h10V180z M270,75h-10v5h10V75z M250,85h-10v5h10V85z M250,85h10v-5h-10 V85z M130,165h-10v5h10V165z M170,165h-10v5h10V165z M190,155h-10v5h10V155z M210,145h-10v5h10V145z M230,135h-10v5h10V135z M250,125h-10v5h10V125z M260,115v5h10v-5H260z M280,110h10v-5h-10V110z M300,95v5h10v-5H300z M115,200v-5h-10v5H115z M125,190h-10 v5h10V190z M150,175h-10v5h10V175z M190,175h-10v5h10V175z M210,165h-10v5h10V165z M230,155h-10v5h10V155z M250,145h-10v5h10V145z M270,135h-10v5h10V135z M290,125h-10v5h10V125z M310,115h-10v5h10V115z M320,105v5h10v-5H320z M390,75h-10v5h10V75z M135,210v-5 h-10v5H135z M145,200h-10v5h10V200z M170,185h-10v5h10V185z M210,185h-10v5h10V185z M310,135h-10v5h10V135z M330,125h-10v5h10V125z M340,115v5h10v-5H340z M390,95h-10v5h10V95z M410,85h-10v5h10V85z M430,75h-10v5h10V75z M155,220v-5h-10v5H155z M165,210h-10v5h10 V210z M190,195h-10v5h10V195z M220,180h10v-5h-10V180z M240,170h10v-5h-10V170z M260,160h10v-5h-10V160z M290,145h-10v5h10V145z M455,85v5h-10v5h-10v5h-10v5h-10v5h-10v5h-10v5h-10v5h-10v5h-10v5h-10v5h-10v5h-10v5h-10v5h-10v5h-10v5h-10v5h-10v5h-10v5h-10v5 h-10v5h-10v5h-10v5h-10v5h-10v5h-10v5h-10v5h-10v5h-10v5h-10v5h-10v25h10v-5h10v-5h10v-5h10v-5h10v-5h10v-5h10v-5h10v-5h10v-5h10v-5 h10v-5h10v-5h10v-5h10v-5h10v-5h10v-5h10v-5h10v-5h10v-5h10v-5h10v-5h10v-5h10v-5h10v-5h10v-5h10v-5h10v-5h10v-5h10v-5h10v-5h10V85 H455z M35,175h10v-5H35V175z M50,170v-5h-5v5H50z M35,165h-5v5h5V165z M65,190h10v-5H65V190z M75,185h10v-5H75V185z M65,180h-5v5h5 V180z M75,155h10v-5H75V155z M90,150v-5h-5v5H90z M75,145h-5v5h5V145z M110,170v-5h-10v5H110z M115,165v-5h-5v5H115z M95,160v5h5v-5 H95z M120,160h10v-5h-10V160z M135,155v-5h-5v5H135z M115,150v5h5v-5H115z M140,150h10v-5h-10V150z M150,145h5v-5h-5V145z M135,140 v5h5v-5H135z M160,140h10v-5h-10V140z M175,135v-5h-5v5H175z M160,130h-5v5h5V130z M180,130h10v-5h-10V130z M195,125v-5h-5v5H195z M175,120v5h5v-5H175z M200,120h10v-5h-10V120z M215,115v-5h-5v5H215z M195,110v5h5v-5H195z M220,110h10v-5h-10V110z M235,105v-5h-5 v5H235z M215,100v5h5v-5H215z M240,100h10v-5h-10V100z M250,95h10v-5h-10V95z M235,90v5h5v-5H235z M260,90h10v-5h-10V90z M275,85v-5 h-5v5H275z M300,70h10v-5h-10V70z M315,65v-5h-5v5H315z M295,60v5h5v-5H295z M320,60h10v-5h-10V60z M330,55h5v-5h-5V55z M315,50v5h5 v-5H315z M340,50h10v-5h-10V50z M355,45v-5h-5v5H355z M340,40h-5v5h5V40z M95,145h10v-5H95V145z M110,140v-5h-5v5H110z M95,135h-5v5 h5V135z M115,135h10v-5h-10V135z M130,130v-5h-5v5H130z M115,125h-5v5h5V125z M135,125h10v-5h-10V125z M150,120v-5h-5v5H150z M135,115h-5v5h5V115z M175,105h10v-5h-10V105z M190,100v-5h-5v5H190z M175,95h-5v5h5V95z M195,95h10v-5h-10V95z M210,90v-5h-5v5 H210z M195,85h-5v5h5V85z M215,85h10v-5h-10V85z M230,80v-5h-5v5H230z M215,75h-5v5h5V75z M235,75h10v-5h-10V75z M250,70v-5h-5v5 H250z M235,65h-5v5h5V65z M275,55h10v-5h-10V55z M290,50v-5h-5v5H290z M275,45h-5v5h5V45z M295,45h10v-5h-10V45z M310,40v-5h-5v5 H310z M295,35h-5v5h5V35z M315,35h10v-5h-10V35z M330,30v-5h-5v5H330z M315,25h-5v5h5V25z M90,180v-5h-5v5H90z M85,200h10v-5H85V200 z M95,195h10v-5H95V195z M80,190v5h5v-5H80z M130,180v-5h-10v5H130z M135,175v-5h-5v5H135z M115,170v5h5v-5H115z M140,170h10v-5h-10 V170z M155,165v-5h-5v5H155z M135,160v5h5v-5H135z M160,160h10v-5h-10V160z M175,155v-5h-5v5H175z M155,150v5h5v-5H155z M180,150h10 v-5h-10V150z M195,145v-5h-5v5H195z M175,145h5v-5h-5V145z M200,140h10v-5h-10V140z M215,135v-5h-5v5H215z M195,135h5v-5h-5V135z M220,130h10v-5h-10V130z M235,125v-5h-5v5H235z M215,125h5v-5h-5V125z M240,120h10v-5h-10V120z M255,115v-5h-5v5H255z M235,110v5h5 v-5H235z M260,110h10v-5h-10V110z M275,105v-5h-5v5H275z M255,100v5h5v-5H255z M280,100h10v-5h-10V100z M295,95v-5h-5v5H295z M320,80h10v-5h-10V80z M335,70h-5v5h5V70z M315,70v5h5v-5H315z M340,70h10v-5h-10V70z M355,60h-5v5h5V60z M335,60v5h5v-5H335z M360,60h10v-5h-10V60z M375,55v-5h-5v5H375z M355,55h5v-5h-5V55z M110,190v-5h-5v5H110z M105,210h10v-5h-10V210z M115,205h10v-5 h-10V205z M100,200v5h5v-5H100z M150,190v-5h-10v5H150z M155,185v-5h-5v5H155z M135,180v5h5v-5H135z M160,180h10v-5h-10V180z M175,175v-5h-5v5H175z M155,175h5v-5h-5V175z M180,170h10v-5h-10V170z M195,165v-5h-5v5H195z M175,165h5v-5h-5V165z M210,160v-5 h-10v5H210z M215,155v-5h-5v5H215z M195,150v5h5v-5H195z M230,150v-5h-10v5H230z M235,145v-5h-5v5H235z M215,140v5h5v-5H215z M250,140v-5h-10v5H250z M255,135v-5h-5v5H255z M235,130v5h5v-5H235z M260,130h10v-5h-10V130z M275,125v-5h-5v5H275z M255,120v5h5 v-5H255z M280,120h10v-5h-10V120z M295,115v-5h-5v5H295z M275,110v5h5v-5H275z M300,110h10v-5h-10V110z M315,105v-5h-5v5H315z M130,200v-5h-5v5H130z M125,220h10v-5h-10V220z M135,215h10v-5h-10V215z M120,210v5h5v-5H120z M170,200v-5h-10v5H170z M175,195v-5 h-5v5H175z M155,190v5h5v-5H155z M180,190h10v-5h-10V190z M195,180h-5v5h5V180z M175,180v5h5v-5H175z M200,180h10v-5h-10V180z M215,170h-5v5h5V170z M195,170v5h5v-5H195z M220,165v5h10v-5H220z M235,165v-5h-5v5H235z M215,160v5h5v-5H215z M240,155v5h10v-5 H240z M255,155v-5h-5v5H255z M235,150v5h5v-5H235z M260,145v5h10v-5H260z M275,145v-5h-5v5H275z M255,140v5h5v-5H255z M280,140h10 v-5h-10V140z M295,130h-5v5h5V130z M275,130v5h5v-5H275z M300,130h10v-5h-10V130z M315,120h-5v5h5V120z M295,120v5h5v-5H295z M320,120h10v-5h-10V120z M335,110h-5v5h5V110z M380,90h10v-5h-10V90z M395,85v-5h-5v5H395z M375,85h5v-5h-5V85z M150,210v-5h-5v5 H150z M145,230h10v-5h-10V230z M155,225h10v-5h-10V225z M140,220v5h5v-5H140z M190,210v-5h-10v5H190z M195,205v-5h-5v5H195z M175,200v5h5v-5H175z M210,200v-5h-10v5H210z M215,195v-5h-5v5H215z M195,190v5h5v-5H195z M220,190h10v-5h-10V190z M235,185v-5h-5 v5H235z M215,180v5h5v-5H215z M240,180h10v-5h-10V180z M255,175v-5h-5v5H255z M235,170h-5v5h5h5v-5H235z M260,170h10v-5h-10V170z M275,165v-5h-5v5H275z M255,160h-5v5h5h5v-5H255z M290,160v-5h-10v5H290z M295,155v-5h-5v5H295z M275,150h-5v5h5h5v-5H275z M310,150v-5h-10v5H310z M315,145v-5h-5v5H315z M295,140v5h5v-5H295z M330,140v-5h-10v5H330z M335,135v-5h-5v5H335z M315,130v5h5v-5 H315z M340,130h10v-5h-10V130z M355,125v-5h-5v5H355z M390,110v-5h-10v5H390z M395,105v-5h-5v5H395z M375,100v5h5v-5H375z M400,100 h10v-5h-10V100z M415,95v-5h-5v5H415z M395,95h5v-5h-5V95z M420,90h10v-5h-10V90z M435,85v-5h-5v5H435z M420,80h-5v5h5V80z M170,220 v-5h-5v5H170z M150,260v-5h-5v5H150z M135,260h5v-5h-5V260z M140,255h5v-5h-5V255z M145,250h5v-5h-5V250z M135,250h5v-5h-5V250z M140,240v-5h-5v5H140z M145,245v-5h-5v5H145z M130,250v5h5v-5H130z M135,230h-5v5h5V230z M125,245v5h5v-5H125z M130,240v5h5v-5H130 z M120,240v5h5v-5H120z M125,235v-5h-5v5H125z M130,240v-5h-5v5H130z M115,250h5v-5h-5V250z M120,230v-5h-5v5H120z M110,240v5h5v-5 H110z M115,235v5h5v-5H115z M105,235v5h5v-5H105z M110,230v-5h-5v5H110z M115,220h-5v5h5V220z M110,230v5h5v-5H110z M100,220v-5h-5 v5H100z M105,225v-5h-5v5H105z M95,240h5v-5h-5V240z M100,230v5h5v-5H100z M90,230v5h5v-5H90z M90,220v5h5v-5H90z M95,225v5h5v-5H95 z M85,215v-5h-5v5H85z M90,220v-5h-5v5H90z M95,210h-5v5h5V210z M85,225v5h5v-5H85z M75,230h5v-5h-5V230z M75,215v5h5v-5H75z M80,220v5h5v-5H80z M70,210v-5h-5v5H70z M75,200h-5v5h5V200z M70,210v5h5v-5H70z M70,220v5h5v-5H70z M80,210v-5h-5v5H80z M60,210v5 h5v-5H60z M55,220h5v-5h-5V220z M55,205v5h5v-5H55z M65,205v-5h-5v5H65z M50,210v5h5v-5H50z M50,200v5h5v-5H50z M60,200v-5h-5v5H60z M45,205v5h5v-5H45z M50,200v-5h-5v5H50z M55,190h-5v5h5V190z M40,200v5h5v-5H40z M35,210h5v-5h-5V210z M35,195v5h5v-5H35z M45,195 v-5h-5v5H45z M30,200v5h5v-5H30z M30,190v5h5v-5H30z M40,190v-5h-5v5H40z M25,195v5h5v-5H25z M35,180h-5v5h5V180z M20,190v5h5v-5H20 z M30,190v-5h-5v5H30z M15,200h5v-5h-5V200z M20,185h-5v5h5V185z M25,185v-5h-5v5H25z M10,190v5h5v-5H10z M20,175h-5v5h5V175z M10,170v5h5v-5H10z M10,180v5h5v-5H10z M65,215v5h5v-5H65z"/></g><g id="change4_1"><path fill="#fefefe" d="M5,160h10v5H5V160z M15,160h10v-5H15V160z M25,155h10v-5H25V155z M35,150h10v-5H35V150z M45,145h10v-5H45V145z M65,135H55v5h10V135z M75,130H65v5h10V130z M85,125H75v5h10V125z M95,120H85v5h10V120z M105,115H95v5h10V115z M115,110h-10v5h10 V110z M125,105h-10v5h10V105z M135,100h-10v5h10V100z M145,95h-10v5h10V95z M155,90h-10v5h10V90z M165,85h-10v5h10V85z M175,80h-10 v5h10V80z M185,75h-10v5h10V75z M195,70h-10v5h10V70z M205,65h-10v5h10V65z M215,60h-10v5h10V60z M225,55h-10v5h10V55z M235,50h-10 v5h10V50z M245,45h-10v5h10V45z M255,40h-10v5h10V40z M265,35h-10v5h10V35z M275,30h-10v5h10V30z M285,25h-10v5h10V25z M295,20h-10 v5h10V20z M305,15h-10v5h10V15z M315,10h-10v5h10V10z M325,5h-10v5h10V5z M5,195h5v-25H5V195z M335,15v-5h-10v5H335z M345,20v-5h-10 v5H345z M355,25v-5h-10v5H355z M365,30v-5h-10v5H365z M455,80v5h10v-5H455z M445,90h10v-5h-10V90z M435,95h10v-5h-10V95z M425,100 h10v-5h-10V100z M415,105h10v-5h-10V105z M405,110h10v-5h-10V110z M395,115h10v-5h-10V115z M385,120h10v-5h-10V120z M375,125h10v-5 h-10V125z M365,130h10v-5h-10V130z M355,135h10v-5h-10V135z M345,140h10v-5h-10V140z M335,145h10v-5h-10V145z M325,150h10v-5h-10 V150z M315,155h10v-5h-10V155z M305,160h10v-5h-10V160z M295,165h10v-5h-10V165z M285,170h10v-5h-10V170z M275,175h10v-5h-10V175z M265,180h10v-5h-10V180z M255,185h10v-5h-10V185z M245,190h10v-5h-10V190z M235,195h10v-5h-10V195z M225,200h10v-5h-10V200z M215,205h10v-5h-10V205z M205,210h10v-5h-10V210z M195,215h10v-5h-10V215z M185,220h10v-5h-10V220z M175,225h10v-5h-10V225z M165,230h10v-5h-10V230z M155,235h10v-5h-10V235z M150,265h5v-30h-5V265z M35,165h5v-5h-5V165z M75,145h5v-5h-5V145z M95,135h5v-5 h-5V135z M120,120h-5v5h5V120z M140,110h-5v5h5V110z M180,90h-5v5h5V90z M200,80h-5v5h5V80z M220,70h-5v5h5V70z M240,60h-5v5h5V60z M280,40h-5v5h5V40z M300,30h-5v5h5V30z M320,20h-5v5h5V20z M65,180h5v-5h-5V180z M75,175h5v-5h-5V175z M105,155h-5v5h5V155z M125,145h-5v5h5V145z M145,135h-5v5h5V135z M165,125h-5v5h5V125z M185,115h-5v5h5V115z M205,105h-5v5h5V105z M225,95h-5v5h5V95z M245,85h-5v5h5V85z M255,80h-5v5h5V80z M265,75h-5v5h5V75z M305,55h-5v5h5V55z M325,45h-5v5h5V45z M345,35h-5v5h5V35z M85,190h5v-5 h-5V190z M95,185h5v-5h-5V185z M125,165h-5v5h5V165z M145,155h-5v5h5V155z M165,145h-5v5h5V145z M185,135h-5v5h5V135z M205,125h-5v5 h5V125z M225,115h-5v5h5V115z M245,105h-5v5h5V105z M265,95h-5v5h5V95z M285,85h-5v5h5V85z M325,65h-5v5h5V65z M345,55h-5v5h5V55z M365,50v-5h-5v5H365z M105,200h5v-5h-5V200z M115,195h5v-5h-5V195z M145,175h-5v5h5V175z M165,165h-5v5h5V165z M185,155h-5v5h5V155 z M205,145h-5v5h5V145z M225,135h-5v5h5V135z M245,125h-5v5h5V125z M265,115h-5v5h5V115z M285,105h-5v5h5V105z M305,95h-5v5h5V95z M125,210h5v-5h-5V210z M135,205h5v-5h-5V205z M160,190h5v-5h-5V190z M185,175h-5v5h5V175z M205,165h-5v5h5V165z M225,155h-5v5h5 V155z M245,145h-5v5h5V145z M265,135h-5v5h5V135z M285,125h-5v5h5V125z M305,115h-5v5h5V115z M325,105h-5v5h5V105z M385,75h-5v5h5 V75z M150,215h-5v5h5V215z M155,215h5v-5h-5V215z M185,195h-5v5h5V195z M205,185h-5v5h5V185z M225,175h-5v5h5V175z M245,165h-5v5h5 V165z M250,165h5v-5h-5V165z M235,175v-5h-5v5H235z M260,160h5v-5h-5V160z M275,155v-5h-5v5H275z M285,145h-5v5h5V145z M305,135h-5 v5h5V135z M325,125h-5v5h5V125z M340,120h5v-5h-5V120z M385,95h-5v5h5V95z M405,85h-5v5h5V85z M425,75h-5v5h5V75z"/></g><g id="change3_2"><path d="M375,30h-10v-5h10V30z M395,35h-10v5h10V35z M405,45v5h10v-5H405z M415,50v5h10v-5H415z M425,55v5h10v-5H425z M435,60v5h10 v-5H435z M445,65v5h10v-5H445z M455,70v5h10v-5H455z M465,75v5v25v5h5v-5V80v-5H465z M455,115h10v-5h-10V115z M445,120h10v-5h-10 V120z M435,125h10v-5h-10V125z M425,130h10v-5h-10V130z M415,135h10v-5h-10V135z M405,140h10v-5h-10V140z M395,145h10v-5h-10V145z M385,150h10v-5h-10V150z M375,155h10v-5h-10V155z M365,160h10v-5h-10V160z M355,165h10v-5h-10V165z M345,170h10v-5h-10V170z M335,175h10v-5h-10V175z M325,180h10v-5h-10V180z M315,185h10v-5h-10V185z M305,190h10v-5h-10V190z M295,195h10v-5h-10V195z M285,200h10v-5h-10V200z M275,205h10v-5h-10V205z M265,210h10v-5h-10V210z M255,215h10v-5h-10V215z M245,220h10v-5h-10V220z M235,225h10v-5h-10V225z M225,230h10v-5h-10V230z M215,235h10v-5h-10V235z M205,240h10v-5h-10V240z M195,245h10v-5h-10V245z M185,250h10v-5h-10V250z M175,255h10v-5h-10V255z M165,260h10v-5h-10V260z M5,195v5h10v-5H5z M15,200v5h10v-5H15z M25,205v5h10v-5 H25z M35,210v5h10v-5H35z M45,215v5h10v-5H45z M55,220v5h10v-5H55z M65,225v5h10v-5H65z M75,230v5h10v-5H75z M85,235v5h10v-5H85z M95,240v5h10v-5H95z M105,245v5h10v-5H105z M115,250v5h10v-5H115z M125,255v5h10v-5H125z M135,260v5h10v-5H135z M155,265h10v-5h-10 V265z M145,270h10v-5h-10V270z M75,200v-5H65v5H75z M95,210v-5H85v5H95z M115,220v-5h-10v5H115z M125,225v-5h-10v5H125z M135,230v-5 h-10v5H135z M145,235v-5h-10v5H145z M150,240v-5h-5v5H150z M15,165H5v5h10V165z M25,175v-5H15v5H25z M35,180v-5H25v5H35z M45,185v-5 H35v5H45z M55,190v-5H45v5H55z M65,195v-5H55v5H65z M85,205v-5H75v5H85z M105,215v-5H95v5H105z"/></g><g id="change1_3"><path fill="#ef4434" d="M325,0v5h-10V0H325z M305,10h10V5h-10V10z M295,15h10v-5h-10V15z M285,20h10v-5h-10V20z M275,25h10v-5h-10V25z M265,30h10v-5h-10V30z M255,35h10v-5h-10V35z M245,40h10v-5h-10V40z M235,45h10v-5h-10V45z M225,50h10v-5h-10V50z M215,55h10v-5 h-10V55z M205,60h10v-5h-10V60z M195,65h10v-5h-10V65z M185,70h10v-5h-10V70z M175,75h10v-5h-10V75z M165,80h10v-5h-10V80z M155,85 h10v-5h-10V85z M145,90h10v-5h-10V90z M135,95h10v-5h-10V95z M125,100h10v-5h-10V100z M115,105h10v-5h-10V105z M105,110h10v-5h-10 V110z M95,115h10v-5H95V115z M85,120h10v-5H85V120z M75,125h10v-5H75V125z M65,130h10v-5H65V130z M55,135h10v-5H55V135z M45,140h10 v-5H45V140z M35,145h10v-5H35V145z M25,150h10v-5H25V150z M15,155h10v-5H15V155z M5,160h10v-5H5V160z M0,165v25v5h5v-5v-25v-5H0V165 z M325,5v5h10V5H325z M335,10v5h10v-5H335z M345,15v5h10v-5H345z M355,25h10v-5h-10V25z M375,35h10v-5h-10V35z M395,40v5h10v-5H395z"/></g></svg>