<?xml version="1.0" encoding="UTF-8" standalone="no"?><svg xmlns="http://www.w3.org/2000/svg" xmlns:xlink="http://www.w3.org/1999/xlink" contentScriptType="text/ecmascript" fill="#ef4434" width="500" zoomAndPan="magnify" contentStyleType="text/css" viewBox="0.0 0.0 500.0 421.9" height="421.9" preserveAspectRatio="xMidYMid meet" version="1"><g><g id="change1_1"><path opacity="0.3" d="M468.75 109.375L468.75 93.75 453.125 93.75 453.125 78.125 437.5 78.125 421.875 78.125 406.25 78.125 390.625 78.125 375 78.125 375 62.5 359.375 62.5 359.375 46.875 343.75 46.875 343.75 31.25 328.125 31.25 328.125 15.625 312.5 15.625 296.875 15.625 281.25 15.625 265.625 15.625 250 15.625 234.375 15.625 218.75 15.625 203.125 15.625 187.5 15.625 171.875 15.625 156.25 15.625 156.25 31.25 140.625 31.25 140.625 46.875 125 46.875 125 62.5 109.375 62.5 109.375 78.125 93.75 78.125 78.125 78.125 62.5 78.125 46.875 78.125 31.25 78.125 31.25 93.75 15.625 93.75 15.625 109.375 0 109.375 0 125 0 140.625 0 156.25 0 171.875 0 187.5 0 203.125 0 218.75 0 234.375 0 250 0 265.625 0 281.25 0 296.875 0 312.5 0 328.125 0 343.75 0 359.375 0 375 0 390.625 15.625 390.625 15.625 406.25 31.25 406.25 31.25 421.875 46.875 421.875 62.5 421.875 78.125 421.875 93.75 421.875 109.375 421.875 125 421.875 140.625 421.875 156.25 421.875 171.875 421.875 187.5 421.875 203.125 421.875 218.75 421.875 234.375 421.875 250 421.875 265.625 421.875 281.25 421.875 296.875 421.875 312.5 421.875 328.125 421.875 343.75 421.875 359.375 421.875 375 421.875 390.625 421.875 406.25 421.875 421.875 421.875 437.5 421.875 453.125 421.875 453.125 406.25 468.75 406.25 468.75 390.625 484.375 390.625 484.375 375 484.375 359.375 484.375 343.75 484.375 328.125 484.375 312.5 484.375 296.875 484.375 281.25 484.375 265.625 484.375 250 484.375 234.375 484.375 218.75 484.375 203.125 484.375 187.5 484.375 171.875 484.375 156.25 484.375 140.625 484.375 125 484.375 109.375z"/></g><g id="change1_2"><path d="M484.375 93.75L484.375 78.125 468.75 78.125 468.75 62.5 453.125 62.5 437.5 62.5 421.875 62.5 406.25 62.5 390.625 62.5 390.625 46.875 375 46.875 375 31.25 359.375 31.25 359.375 15.625 343.75 15.625 343.75 0 328.125 0 312.5 0 296.875 0 281.25 0 265.625 0 250 0 234.375 0 218.75 0 203.125 0 187.5 0 171.875 0 171.875 15.625 156.25 15.625 156.25 31.25 140.625 31.25 140.625 46.875 125 46.875 125 62.5 109.375 62.5 93.75 62.5 78.125 62.5 62.5 62.5 46.875 62.5 46.875 78.125 31.25 78.125 31.25 93.75 15.625 93.75 15.625 109.375 15.625 125 15.625 140.625 15.625 156.25 15.625 171.875 15.625 187.5 15.625 203.125 15.625 218.75 15.625 234.375 15.625 250 15.625 265.625 15.625 281.25 15.625 296.875 15.625 312.5 15.625 328.125 15.625 343.75 15.625 359.375 15.625 375 31.25 375 31.25 390.625 46.875 390.625 46.875 406.25 62.5 406.25 78.125 406.25 93.75 406.25 109.375 406.25 125 406.25 140.625 406.25 156.25 406.25 171.875 406.25 187.5 406.25 203.125 406.25 218.75 406.25 234.375 406.25 250 406.25 265.625 406.25 281.25 406.25 296.875 406.25 312.5 406.25 328.125 406.25 343.75 406.25 359.375 406.25 375 406.25 390.625 406.25 406.25 406.25 421.875 406.25 437.5 406.25 453.125 406.25 468.75 406.25 468.75 390.625 484.375 390.625 484.375 375 500 375 500 359.375 500 343.75 500 328.125 500 312.5 500 296.875 500 281.25 500 265.625 500 250 500 234.375 500 218.75 500 203.125 500 187.5 500 171.875 500 156.25 500 140.625 500 125 500 109.375 500 93.75z"/></g><g id="change2_1"><path fill="#2e1b5b" d="M468.75 93.75L468.75 78.125 453.125 78.125 437.5 78.125 421.875 78.125 406.25 78.125 390.625 78.125 375 78.125 375 62.5 375 46.875 359.375 46.875 359.375 31.25 343.75 31.25 343.75 15.625 328.125 15.625 312.5 15.625 296.875 15.625 281.25 15.625 265.625 15.625 250 15.625 234.375 15.625 218.75 15.625 203.125 15.625 187.5 15.625 171.875 15.625 171.875 31.25 156.25 31.25 156.25 46.875 140.625 46.875 140.625 62.5 140.625 78.125 125 78.125 109.375 78.125 93.75 78.125 78.125 78.125 62.5 78.125 46.875 78.125 46.875 93.75 31.25 93.75 31.25 109.375 31.25 125 31.25 140.625 31.25 156.25 31.25 171.875 31.25 187.5 31.25 203.125 31.25 218.75 31.25 234.375 31.25 250 31.25 265.625 31.25 281.25 31.25 296.875 31.25 312.5 31.25 328.125 31.25 343.75 31.25 359.375 31.25 375 46.875 375 46.875 390.625 62.5 390.625 78.125 390.625 93.75 390.625 109.375 390.625 125 390.625 140.625 390.625 156.25 390.625 171.875 390.625 187.5 390.625 203.125 390.625 218.75 390.625 234.375 390.625 250 390.625 265.625 390.625 281.25 390.625 296.875 390.625 312.5 390.625 328.125 390.625 343.75 390.625 359.375 390.625 375 390.625 390.625 390.625 406.25 390.625 421.875 390.625 437.5 390.625 453.125 390.625 468.75 390.625 468.75 375 484.375 375 484.375 359.375 484.375 343.75 484.375 328.125 484.375 312.5 484.375 296.875 484.375 281.25 484.375 265.625 484.375 250 484.375 234.375 484.375 218.75 484.375 203.125 484.375 187.5 484.375 171.875 484.375 156.25 484.375 140.625 484.375 125 484.375 109.375 484.375 93.75z"/></g><g id="change3_1"><path fill="#d1d3d4" d="M375,187.5v15.625v15.625v15.625V250v15.625v15.625h-15.625v15.625V312.5H343.75v15.625h-15.625H312.5 v15.625h-15.625H281.25h-15.625H250h-15.625H218.75h-15.625v-15.625H187.5h-15.625V312.5H156.25v-15.625V281.25h-15.625v-15.625 V250v-15.625V218.75v-15.625V187.5h15.625v-15.625V156.25h15.625v-15.625H187.5h15.625V125h15.625h15.625H250h15.625h15.625h15.625 H312.5v15.625h15.625h15.625v15.625h15.625v15.625V187.5H375z M250,78.125h15.625h15.625h15.625V62.5V46.875H281.25h-15.625H250 h-15.625H218.75V62.5v15.625h15.625H250z"/></g><g id="change4_1"><path fill="#ef4434" d="M312.5 187.5L312.5 171.875 296.875 171.875 281.25 171.875 265.625 171.875 250 171.875 234.375 171.875 218.75 171.875 203.125 171.875 203.125 187.5 187.5 187.5 187.5 203.125 187.5 218.75 187.5 234.375 187.5 250 187.5 265.625 187.5 281.25 203.125 281.25 203.125 296.875 218.75 296.875 234.375 296.875 250 296.875 265.625 296.875 281.25 296.875 296.875 296.875 312.5 296.875 312.5 281.25 328.125 281.25 328.125 265.625 328.125 250 328.125 234.375 328.125 218.75 328.125 203.125 328.125 187.5z"/></g><g id="change1_3"><path d="M500,93.75v15.625V125v15.625v15.625v15.625V187.5v15.625v15.625v15.625V250v15.625v15.625v15.625V312.5v15.625v15.625 v15.625V375h-15.625v-15.625V343.75v-15.625V312.5v-15.625V281.25v-15.625V250v-15.625V218.75v-15.625V187.5v-15.625V156.25 v-15.625V125v-15.625V93.75H500z M468.75,390.625h15.625V375H468.75V390.625z M484.375,93.75V78.125H468.75V93.75H484.375z M437.5,390.625h-15.625H406.25h-15.625H375h-15.625H343.75h-15.625H312.5h-15.625H281.25h-15.625H250h-15.625H218.75h-15.625 H187.5h-15.625H156.25h-15.625H125h-15.625H93.75H78.125H62.5H46.875v15.625H62.5h15.625H93.75h15.625H125h15.625h15.625h15.625 H187.5h15.625h15.625h15.625H250h15.625h15.625h15.625H312.5h15.625h15.625h15.625H375h15.625h15.625h15.625H437.5h15.625h15.625 v-15.625h-15.625H437.5z M375,203.125v15.625v15.625V250v15.625v15.625h15.625v-15.625V250v-15.625V218.75v-15.625V187.5H375 V203.125z M375,78.125h15.625h15.625h15.625H437.5h15.625h15.625V62.5h-15.625H437.5h-15.625H406.25h-15.625V46.875H375V62.5 V78.125z M359.375,296.875V312.5H375v-15.625V281.25h-15.625V296.875z M359.375,187.5H375v-15.625V156.25h-15.625v15.625V187.5z M375,46.875V31.25h-15.625v15.625H375z M343.75,328.125h15.625V312.5H343.75V328.125z M359.375,156.25v-15.625H343.75v15.625 H359.375z M359.375,31.25V15.625H343.75V31.25H359.375z M328.125,203.125v15.625v15.625V250v15.625v15.625h15.625v-15.625V250 v-15.625V218.75v-15.625V187.5h-15.625V203.125z M312.5,328.125v15.625h15.625h15.625v-15.625h-15.625H312.5z M312.5,296.875 h15.625V281.25H312.5V296.875z M328.125,187.5v-15.625H312.5V187.5H328.125z M328.125,140.625h15.625V125h-15.625H312.5v15.625 H328.125z M296.875,78.125H312.5V62.5V46.875h-15.625V62.5V78.125z M281.25,343.75h-15.625H250h-15.625H218.75h-15.625v15.625 h15.625h15.625H250h15.625h15.625h15.625H312.5V343.75h-15.625H281.25z M281.25,296.875h-15.625H250h-15.625H218.75h-15.625V312.5 h15.625h15.625H250h15.625h15.625h15.625H312.5v-15.625h-15.625H281.25z M265.625,78.125H250h-15.625H218.75V93.75h15.625H250 h15.625h15.625h15.625V78.125H281.25H265.625z M250,46.875h15.625h15.625h15.625V31.25H281.25h-15.625H250h-15.625H218.75v15.625 h15.625H250z M234.375,171.875H250h15.625h15.625h15.625H312.5V156.25h-15.625H281.25h-15.625H250h-15.625H218.75h-15.625v15.625 h15.625H234.375z M234.375,125H250h15.625h15.625h15.625H312.5v-15.625h-15.625H281.25h-15.625H250h-15.625H218.75h-15.625V125 h15.625H234.375z M218.75,62.5V46.875h-15.625V62.5v15.625h15.625V62.5z M187.5,328.125h-15.625v15.625H187.5h15.625v-15.625H187.5 z M187.5,281.25v15.625h15.625V281.25H187.5z M203.125,171.875H187.5V187.5h15.625V171.875z M203.125,140.625V125H187.5h-15.625 v15.625H187.5H203.125z M203.125,15.625h15.625h15.625H250h15.625h15.625h15.625H312.5h15.625h15.625V0h-15.625H312.5h-15.625 H281.25h-15.625H250h-15.625H218.75h-15.625H187.5h-15.625v15.625H187.5H203.125z M187.5,250v-15.625V218.75v-15.625V187.5h-15.625 v15.625v15.625v15.625V250v15.625v15.625H187.5v-15.625V250z M156.25,312.5v15.625h15.625V312.5H156.25z M171.875,140.625H156.25 v15.625h15.625V140.625z M171.875,15.625H156.25V31.25h15.625V15.625z M156.25,281.25h-15.625v15.625V312.5h15.625v-15.625V281.25z M156.25,171.875V156.25h-15.625v15.625V187.5h15.625V171.875z M156.25,31.25h-15.625v15.625h15.625V31.25z M140.625,250v-15.625 V218.75v-15.625V187.5H125v15.625v15.625v15.625V250v15.625v15.625h15.625v-15.625V250z M78.125,78.125H93.75h15.625H125h15.625 V62.5V46.875H125V62.5h-15.625H93.75H78.125H62.5H46.875v15.625H62.5H78.125z M31.25,375v15.625h15.625V375H31.25z M46.875,78.125 H31.25V93.75h15.625V78.125z M31.25,343.75v-15.625V312.5v-15.625V281.25v-15.625V250v-15.625V218.75v-15.625V187.5v-15.625V156.25 v-15.625V125v-15.625V93.75H15.625v15.625V125v15.625v15.625v15.625V187.5v15.625v15.625v15.625V250v15.625v15.625v15.625V312.5 v15.625v15.625v15.625V375H31.25v-15.625V343.75z"/></g><g id="change1_4"><path opacity="0.5" d="M328.125,187.5v15.625v15.625v15.625V250v15.625v15.625H312.5v15.625h-15.625H281.25h-15.625H250h-15.625 H218.75h-15.625V281.25h15.625h15.625H250h15.625h15.625h15.625v-15.625H312.5V250v-15.625V218.75v-15.625h-15.625V187.5H281.25 h-15.625H250h-15.625H218.75h-15.625v-15.625h15.625h15.625H250h15.625h15.625h15.625H312.5V187.5H328.125z"/></g><g id="change1_5"><path opacity="0.3" d="M296.875,328.125v15.625H281.25h-15.625H250h-15.625H218.75h-15.625v-15.625h15.625h15.625H250h15.625 h15.625H296.875z M218.75,125h-15.625v15.625h15.625V125z M187.5,312.5h-15.625v15.625H187.5h15.625V312.5H187.5z M203.125,156.25 v-15.625H187.5h-15.625v15.625H187.5H203.125z M171.875,281.25H156.25v15.625V312.5h15.625v-15.625V281.25z M171.875,171.875 V156.25H156.25v15.625V187.5h15.625V171.875z M156.25,250v-15.625V218.75v-15.625V187.5h-15.625v15.625v15.625v15.625V250v15.625 v15.625h15.625v-15.625V250z"/></g><g id="change1_6"><path opacity="0.3" d="M171.875,46.875H156.25V31.25h15.625V46.875z M156.25,62.5V46.875h-15.625V62.5v15.625h15.625V62.5z M46.875,343.75v-15.625V312.5v-15.625V281.25v-15.625V250v-15.625V218.75v-15.625V187.5v-15.625V156.25v-15.625V125v-15.625H62.5 V93.75h15.625H93.75h15.625H125h15.625V78.125H125h-15.625H93.75H78.125H62.5H46.875V93.75H31.25v15.625V125v15.625v15.625v15.625 V187.5v15.625v15.625v15.625V250v15.625v15.625v15.625V312.5v15.625v15.625v15.625V375h15.625v-15.625V343.75z M171.875,125H156.25 v15.625h15.625V125z M187.5,15.625h-15.625V31.25H187.5V15.625z M187.5,62.5v15.625V93.75h15.625v15.625h15.625h15.625H250h15.625 h15.625V93.75h-15.625H250h-15.625H218.75V78.125h-15.625V62.5H187.5z M328.125,343.75H312.5v15.625h15.625V343.75z M156.25,328.125v15.625h15.625v-15.625H156.25z M296.875,375v-15.625H281.25h-15.625H250h-15.625H218.75h-15.625V343.75H187.5 h-15.625v15.625H187.5V375H46.875v15.625h406.25V375H296.875z M140.625,312.5v15.625h15.625V312.5H140.625z M140.625,281.25H125 v-15.625V250v-15.625V218.75v-15.625V187.5h-15.625v15.625v15.625v15.625V250v15.625v15.625v15.625H125V312.5h15.625v-15.625 V281.25z M156.25,140.625h-15.625v15.625h15.625V140.625z M140.625,171.875V156.25H125v15.625V187.5h15.625V171.875z"/></g><g id="change5_1"><path fill="#ffffff" opacity="0.9" d="M375,187.5v15.625v15.625v15.625V250v15.625v15.625h-15.625v-15.625V250v-15.625V218.75 v-15.625V187.5H375z M343.75,296.875V312.5h15.625v-15.625V281.25H343.75V296.875z M359.375,156.25H343.75v15.625V187.5h15.625 v-15.625V156.25z M328.125,140.625H312.5v15.625h15.625h15.625v-15.625H328.125z M312.5,312.5v15.625h15.625h15.625V312.5h-15.625 H312.5z M296.875,343.75H312.5v-15.625h-15.625V343.75z M296.875,125v15.625H312.5V125H296.875z M296.875,78.125V62.5V46.875 H281.25h-15.625H250h-15.625H218.75V62.5h15.625H250h15.625h15.625v15.625H296.875z"/></g><g id="change5_2"><path fill="#ffffff" opacity="0.4" d="M484.375,93.75v15.625V125v15.625v15.625v15.625V187.5v15.625v15.625v15.625V250v15.625 v15.625v15.625V312.5v15.625v15.625v15.625V375H468.75v-15.625V343.75v-15.625V312.5v-15.625V281.25v-15.625V250v-15.625V218.75 v-15.625V187.5v-15.625V156.25v-15.625V125v-15.625h-15.625V93.75H437.5h-15.625H406.25h-15.625H375V78.125h15.625h15.625h15.625 H437.5h15.625h15.625V93.75H484.375z M453.125,390.625h15.625V375h-15.625V390.625z M375,46.875h-15.625V62.5v15.625H375V62.5 V46.875z M343.75,31.25v15.625h15.625V31.25H343.75z M328.125,15.625V31.25h15.625V15.625H328.125z"/></g><g id="change2_2"><path fill="#2e1b5b" opacity="0.6" d="M296.875,203.125v15.625v15.625H281.25h-15.625H250V218.75v-15.625h15.625h15.625H296.875z M234.375,265.625H250V250h-15.625V265.625z"/></g><g id="change1_7"><path opacity="0.2" d="M234.375,46.875H218.75V62.5h15.625V46.875z M250,62.5h-15.625v15.625H250V62.5z M265.625,46.875H250V62.5 h15.625V46.875z M281.25,62.5h-15.625v15.625h15.625V62.5z M296.875,46.875H281.25V62.5h15.625V46.875z"/></g></g></svg>