<?xml version="1.0" encoding="UTF-8" standalone="no"?><svg xmlns="http://www.w3.org/2000/svg" xmlns:xlink="http://www.w3.org/1999/xlink" contentScriptType="text/ecmascript" fill="#000000" width="500" zoomAndPan="magnify" contentStyleType="text/css" viewBox="0.0 0.0 500.0 500.0" height="500" preserveAspectRatio="xMidYMid meet" version="1"><g><g id="change1_2"><path fill="#ef4434" d="M476.4 275L475 273.6 475 250 450 250 450 225 425 225 400 225 400 200 425 200 425 175 450 175 450 150 450 125 475 125 475 100 475 75 450 75 450 50 425 50 425 25 400 25 400 25 400 0 375 0 350 0 350 25 350.2 25 350 25.2 350 25 325 25 325 50 300 50 300 75 300.1 75 300 75.1 300 75 275 75 275 100 275.4 100 275 100.6 275 100 250 100 250 75 225 75 225 75 225 75 225 75 225 50 200 50 200 25 175 25 150 25 125 25 100 25 100 50 75 50 75 75 50 75 50 100 50 125 75 125 75 125 75 125 75 125 75 150 100 150 100 175 125 175 125 200 100 200 100 225 75 225 75 250 50 250 50 275 25 275 25 300 25 325 50 325 50 350 75 350 75 350 75 350 75 350 75 375 100 375 125 375 150 375 150 350 175 350 175 375 175 400 175 425 175 450 200 450 200 450 200 450 200 450 200 475 225 475 225 472.7 227.5 475 225 475 225 500 250 500 275 500 300 500 300 476.7 301.3 475 325 475 325 450 325 425 350 425 350 400 350 375 350 350 375 350 375 375 400 375 425 375 450 375 475 375 475 350 500 350 500 325 500 300 500 275z"/></g></g><g id="change1_1"><path fill="#ef4434" d="M75,50l12.6-11.7l66.6-2.5L175,50l25.4,25.4L225,100l17,13.7l8.4-13.7l25-25.3L300,50l25-24.8l14.6-15.3 l35.3,14.9l0,0.1L400,50l25,25l12.7,10.7L425,125l-25,50l-25.3,25.3l-7.7,18.9l8,5.8l50,25l41,38.8l-7.7,50L450,350l-14.5,13 l-66.5,4.4L350,350l-35-20l-1.9,71.9L300,425l-8.8,30.3l-24.3,32.1l-42.3,7.8l-49.5-44.9l-12.7-14.8l9.2-124.4L125,350l-9.5,12 l-47.3,1l-18.1-12.9L25,325l-7.1-8.2l-10-34.1L25,275l25-25l25-25l38.4-13.3l4.1-20.2L100,175l-25-25l-24.9-24.9L50,125l-8.8-8.2 L43,82.3l7-7.3l14.4-13L75,50z"/></g><g id="change2_1"><path d="M350,375v-25h25v25H350z M400,375v-25h-25v25H400z M425,375v-25h-25v25H425z M450,375v-25h-25v25H450z M475,350v-25h-25v25 H475z M475,325v-25h-25v25H475z M475,300v-25h-25v25H475z M450,275v-25h-25v25H450z M400,250v-25h-25v25H400z M425,250v-25h-25v25 H425z M400,200v-25h-25v25H400z M350,225v-25h-25v25H350z M375,225v-25h-25v25H375z M325,275v-25h-25v25H325z M325,250v-25h-25v25 H325z M325,225v-25h-25v25H325z M325,200v-25h-25v25H325z M275,175v-25h-25v25H275z M300,175v-25h-25v25H300z M425,175v-25h-25v25 H425z M425,150v-25h-25v25H425z M450,125v-25h-25v25H450z M275,100V75h-25v25H275z M450,100V75h-25v25H450z M300,75V50h-25v25H300z M425,75V50h-25v25H425z M225,100V75h-25v25H225z M100,175v-25H75v25H100z M75,150v-25H50v25H75z M50,125v-25H25v25H50z M225,300 v-25h-25v25H225z M250,300v-25h-25v25H250z M275,300v-25h-25v25H275z M300,300v-25h-25v25H300z M325,425v-25h-25v25H325z M325,400 v-25h-25v25H325z M325,375v-25h-25v25H325z M300,350v-25h-25v25H300z M325,350v-25h-25v25H325z M350,350v-25h-25v25H350z M300,325 v-25h-25v25H300z M325,325v-25h-25v25H325z M300,475v-25h-25v25H300z M300,450v-25h-25v25H300z M225,500v-25h-25v25H225z M250,500 v-25h-25v25H250z M275,500v-25h-25v25H275z M200,475v-25h-25v25H200z M175,450v-25h-25v25H175z M175,425v-25h-25v25H175z M175,400 v-25h-25v25H175z M175,375v-25h-25v25H175z M150,350v-25h-25v25H150z M175,350v-25h-25v25H175z M200,350v-25h-25v25H200z M175,325 v-25h-25v25H175z M200,325v-25h-25v25H200z M200,300v-25h-25v25H200z M200,275v-25h-25v25H200z M200,250v-25h-25v25H200z M75,375 v-25H50v25H75z M100,375v-25H75v25H100z M125,375v-25h-25v25H125z M50,350v-25H25v25H50z M25,325v-25H0v25H25z M25,300v-25H0v25H25z M50,275v-25H25v25H50z M75,250v-25H50v25H75z M100,225v-25H75v25H100z M125,225v-25h-25v25H125z M150,225v-25h-25v25H150z M175,225 v-25h-25v25H175z M200,225v-25h-25v25H200z M125,200v-25h-25v25H125z M175,200v-25h-25v25H175z M200,200v-25h-25v25H200z M225,175 v-25h-25v25H225z M250,175v-25h-25v25H250z M250,150v-25h-25v25H250z M250,125v-25h-25v25H250z M50,100V75H25v25H50z M75,75V50H50 v25H75z M200,75V50h-25v25H200z M100,50V25H75v25H100z M125,50V25h-25v25H125z M150,50V25h-25v25H150z M175,50V25h-25v25H175z M325,50V25h-25v25H325z M400,50V25h-25v25H400z M350,25V0h-25v25H350z M375,25V0h-25v25H375z"/></g><g id="change3_1"><path fill="#f7f7f0" d="M225.2,449.9v-25h25v25H225.2z M225.2,424.9v-25h-25v25H225.2z M400.2,324.9v-25h-25v25H400.2z M100.2,299.9 v-25h-25v25H100.2z M375.2,299.9v-25h-25v25H375.2z M125.2,274.9v-25h-25v25H125.2z M250.2,224.9v-25h-25v25H250.2z M325.2,124.9 v-25h-25v25H325.2z M125.2,99.9v-25h-25v25H125.2z M150.2,99.9v-25h-25v25H150.2z M350.2,99.9v-25h-25v25H350.2z"/></g></svg>