<?xml version="1.0" encoding="UTF-8" standalone="no"?><svg xmlns="http://www.w3.org/2000/svg" xmlns:xlink="http://www.w3.org/1999/xlink" contentScriptType="text/ecmascript" fill="#000000" width="196.4" zoomAndPan="magnify" contentStyleType="text/css" viewBox="0.0 0.0 196.4 500.0" height="500" preserveAspectRatio="xMidYMid meet" version="1"><g id="change1_1"><path fill="#ef4434" d="M187.5,66.5v71.4l-8.9,5l-17.9,17.8l-13.8,11.4l-21.9,6.5l-17.9,8.9h-8.9h-8.9l-17.9-8.9l-21.9-6.5l-13.8-11.4 l-17.8-17.8l-9-5V66.5l9-12.9l17.8-17.9l17.9-5.1l17.8-12.7l9-9h17.8h17.9l8.9,9l17.9,12.7l17.8,5.1l17.9,17.9L187.5,66.5z M89.3,428.6H71.4v17.8h17.9h17.8H125v-17.8h-17.9H89.3z"/></g><g id="change2_1"><path fill="#f7f7f0" d="M130.6,443.5v38.6H66.4v-38.6h5v2.9h17.9h17.8H125v-2.9H130.6z M71.4,71.4V53.6H53.6H35.7v17.8v17.9h17.9h17.8 C71.4,89.3,71.4,71.4,71.4,71.4z M71.4,285.7v17.9v17.8h17.9v-17.8v-17.9v-17.8H71.4V285.7z"/></g><g id="change3_1"><path fill="#2e1b5b" d="M53.6,17.9h17.8v17.8H53.6H35.8v17.9H17.9V35.7h17.8V17.9H53.6z M17.9,160.8v-17.9h17.9v17.8h17.8h17.8v17.9 h17.9h17.8H125v-17.9v-0.2h17.9h17.8v-17.6h17.9v17.9h-17.8v17.6v17.9v17.9v17.9V250h-17.9v17.6v17.9v17.9v17.9v17.9v17.9V375v17.9 v17.9v17.8v17.8v17.9v17.9H125V500h-17.9H89.3H71.4v-17.8H53.6v-17.9v-17.9v-17.8v-17.8v-17.9V375v-17.6v-17.9v-17.9v-17.9v-17.9 v-17.9V250H35.7v-17.7v-17.9v-17.9v-17.9v-17.8L17.9,160.8L17.9,160.8z M71.5,428.6v8.9v8.9v17.9v17.8h17.8h17.8H125v-17.8v-17.9 v-8.9v-8.9h-17.7H89.4H71.5z M71.4,321.5h17.9v-17.9v-17.9v-17.9H71.4v17.9v17.9V321.5z M0,71.4v17.9v17.8V125v17.9h17.9V125v-17.9 V89.3V71.4V53.6H0V71.4z M160.7,53.6h17.9V35.7h-17.9V53.6z M178.6,53.6v17.8v17.9v17.8V125v17.9h17.8V125v-17.9V89.3V71.4V53.6 H178.6z M107.1,0H89.3H71.4v17.9h17.9h17.8H125V0H107.1z M142.9,17.9H125v17.8h17.9h17.8V17.9H142.9z"/></g></svg>