<?xml version="1.0" encoding="UTF-8" standalone="no"?><svg xmlns="http://www.w3.org/2000/svg" xmlns:xlink="http://www.w3.org/1999/xlink" contentScriptType="text/ecmascript" fill="#ef4434" width="499.7" zoomAndPan="magnify" contentStyleType="text/css" viewBox="0.0 0.0 499.7 471.2" height="471.2" preserveAspectRatio="xMidYMid meet" version="1"><g id="change1_1"><path d="M429.6,176.1v-7h-84.5v-7h-28.2v-14.1h-7v-14.1h-7v-21.1h-7V98.6h-7V77.5h-7V63.4h-7V42.3h-7V28.2h-7V7h-7V0h-7v7h-7v21.1 h-7v14.1h-7v21.1h-7v14.1h-7v21.1h-7v14.1h-7v21.1h-7v14.1h-7V162H162v7H63.4v7H0v7h7v7h7v7h7v7h7v7h7v7h14.1v7h7v7h7v7h7v7h14.1v7 h7v7h7v7h7v7h7v7h14.1v7h7v35.2h-7v28.2h-7v28.2h-7v28.2h-7v28.2h-7v28.2h-7v7h14.1v-7h14.1v-7h14.1v-7h7v-7h14.1v-7h7v-7h14.1v-7h7 v-7h14.1v-7h7v-7h14.1v-7h14.1v-7h7v-7h21.1v7h7v7h14.1v7h7v7h14.1v7h14.1v7h7v7H338v7h7v7h14.1v7h7v7h14.1v7h14.1v7h14.1v-7h-7 v-28.2h-7v-28.2h-7v-28.2h-7v-28.2h-7v-28.2h-7v-35.2h7v-7h14.1v-7h7v-7h7v-7h7v-7h7v-7h7v-7h14.1v-7h7v-7h7v-7h14.1v-7h7v-7h7v-7h7 v-7h7v-7h7v-7H429.6z M394.4,218.3h-7v7h-7v7h-14.1v7h-7v7h-7v7h-7v7H331v7h-7v7h-7v28.2h7V331h7v28.2h7v21.1h-7v-7h-14.1v-7h-14.1 v-7h-7v-7h-14.1v-7h-7v-7h-14.1v-7h-21.1v7h-14.1v7h-7v7h-14.1v7h-7v7h-14.1v7h-7v7H162v-21.1h7v-35.2h7v-21.1h7v-28.2h-7v-7h-7v-7 h-14.1v-7h-7v-7h-7v-7h-7v-7h-7v-7h-14.1v-7h-7v-7h49.3v-7h56.3v-14.1h7v-14.1h7v-21.1h7v-14.1h7v-21.1h7v-14.1h7v14.1h7v21.1h7 v14.1h7v21.1h7v14.1h7v14.1h56.3v7h49.3V218.3z"/></g></svg>