<?xml version='1.0' encoding='UTF-8'?>
<svg xmlns="http://www.w3.org/2000/svg" version="1.1" viewBox="0 0 900 450">
  <path d="M716.175,224.65c-14.57-3.469-31.565,30.186-13.454,39.5,18.111,9.314,37.775-5.865,37.775-5.865,0,0-1.207,13.282,17.939,15.697,19.146,2.415,36.74-14.662,36.74-14.662,0,0-2.242,14.144,13.971,16.214,16.214,2.07,39.5-12.937,38.982-26.736-.517-13.799-15.524-4.905-20.526,1.342-5.002,6.247-13.09,1.073-6.88-7.207s-1.916-21.906-18.82-11.729c-16.904,10.177-27.426,28.633-37.43,24.148-10.004-4.485,11.212-23.976-5.175-28.461-13.841-3.788-33.635,23.458-39.327,20.871-5.692-2.587,10.694-19.664-3.795-23.114Z" style="fill: #78cf4c;"/>
</svg>
