<?xml version='1.0' encoding='UTF-8'?>
<svg xmlns="http://www.w3.org/2000/svg" version="1.1" viewBox="0 0 900 450">
  <path d="M244.559,398.804l-19.947-11.141c11.556-7.601,33.768-27.032,27.666-34.792-7.549-14.753-67.304,4.929-73.443,9.199-.133-.218-21.605-11.965-21.759-12.156,5.146-3.261,35.661-30.828,24.622-39.965-14.322-12.488-65.521,9.572-71.889,12.96l-21.921-11.64c7.067-3.103,39.295-27.29,31.131-34.261-14.311-12.221-66.75,12.007-68.781,13.231l-25.594-14.268c27.007-16.097,73.984-32.189,100.9-23.598,23.814,7.602,24.39,23.745,19.23,34.464,18.554-4.575,42.31-6.002,54.534,6.55,10.003,9.647,11.889,22.982,6.256,35.07,31.177-7.14,57.665-1.983,67.584,11.181,11.566,15.35,1.934,40.854-28.59,59.164Z" style="fill: #78cf4c;"/>
</svg>
