<?xml version='1.0' encoding='UTF-8'?>
<svg xmlns="http://www.w3.org/2000/svg" version="1.1" viewBox="0 0 900 450">
  <path d="M316.953,85.756c-21.558,16.69-24.34,61.197-2.434,76.496,21.906,15.299,40.334-12.17,43.116-24.34,0,0,6.729,26.283,30.251,19.124,23.992-7.302,26.078-31.989,26.078-31.989,0,0,7.65,21.558,30.946,18.081,23.296-3.477,29.555-34.076,29.555-34.076,0,0,6.954,19.82,29.555,17.038,22.601-2.782,38.78-49.635,23.133-73.975s-48.169-2.869-51.993,23.905c0,0-7.65-28.86-32.685-21.21-25.035,7.65-28.683,34.222-28.683,34.222,0,0-3.306-26.225-26.602-21.704-20.551,3.988-29.903,31.294-29.903,31.294,0,0-13.304-33.791-40.334-12.865Z" style="fill: #78cf4c;"/>
</svg>
