<?xml version='1.0' encoding='UTF-8'?>
<svg xmlns="http://www.w3.org/2000/svg" version="1.1" viewBox="0 0 900 450">
  <path d="M767.158,213.306c-.657,0-1.314-.026-1.97-.079-3.787-.305-7.463-1.484-10.925-3.503-8.229-4.8-12.85-12.999-12.678-22.496.144-7.934,3.548-16.338,9.846-24.303,5.912-7.477,14.039-14.11,23.503-19.181,1.167-.625,2.398-1.234,3.688-1.825-.87-.733-3.815-2.643-11.449-3.389-6.664-.652-14.928-.203-23.899,1.297-.891.149-1.782.307-2.674.474.406,3.789.396,7.665-.041,11.572-.617,5.52-2.084,11.044-4.361,16.42-2.336,5.518-5.537,10.898-9.512,15.991-8.544,10.947-18.726,18.539-29.445,21.955-5.229,1.666-10.404,2.289-15.383,1.849-5.145-.454-9.995-2.085-14.027-4.717-6.532-4.264-10.782-10.948-11.967-18.819-1.135-7.541.618-15.897,5.069-24.163,3.041-5.647,7.718-11.064,13.901-16.099,5.336-4.345,11.795-8.416,19.196-12.098,4.907-2.442,10.159-4.678,15.611-6.662-5.88-5.361-14.114-7.924-23.313-7.02l-2.2-22.392c10.7-1.051,21.099.839,30.074,5.466,7.791,4.017,14.285,9.948,18.934,17.26,2.144-.448,4.289-.851,6.428-1.209,10.892-1.822,21.197-2.34,29.8-1.499,10.766,1.053,19.06,4.204,24.652,9.365,2.85,2.631,5.258,5.726,7.187,9.213,3.381-.734,6.892-1.372,10.494-1.905,14.105-2.087,27.853-2.219,37.717-.362l-4.162,22.112c-9.924-1.868-25.063-.86-38.5,1.978.192,7.772-1.193,15.908-4.084,23.834-2.474,6.784-5.933,13.127-10.002,18.344-5.026,6.443-10.664,10.825-16.758,13.026-2.883,1.041-5.818,1.565-8.748,1.565ZM783.677,164.626c-7.429,4.306-12.009,8.98-14.596,12.253-3.079,3.895-4.948,7.916-5,10.757-.025,1.373.301,1.943,1.518,2.653,1.12.653,1.776.61,2.665.289,3.852-1.391,9.645-7.991,13.264-17.916.982-2.692,1.696-5.395,2.148-8.035ZM718.393,146.287c-5.027,1.786-9.856,3.818-14.34,6.049-11.654,5.799-19.933,12.447-23.31,18.72-2.672,4.963-4.237,11.109-.613,13.474,4.762,3.108,17.214.78,28.82-14.09,6.113-7.833,9.319-16.245,9.444-24.154Z" style="fill: #e87c32;"/>
</svg>
