<?xml version='1.0' encoding='UTF-8'?>
<svg xmlns="http://www.w3.org/2000/svg" version="1.1" viewBox="0 0 900 450">
  <path d="M386.919,414.42c-.263,0-.529-.035-.791-.106-1.148-.314-2.002-1.278-2.176-2.456l-3.008-20.376-19.427,18.275c-.814.765-1.985,1.016-3.04.649-1.055-.367-1.819-1.289-1.983-2.394l-3.15-21.261-11.428,15.11c-.999,1.322-2.881,1.583-4.202.583-1.321-.999-1.582-2.881-.583-4.202l15.741-20.813c.729-.964,1.965-1.396,3.136-1.097,1.171.299,2.048,1.272,2.225,2.467l3.356,22.654,19.429-18.278c.814-.766,1.986-1.015,3.041-.648,1.055.367,1.819,1.29,1.982,2.395l2.85,19.306c1.363-1.678,2.92-3.593,4.473-5.498,2.556-3.136,4.601-5.631,6.077-7.418.883-1.068,1.572-1.894,2.05-2.457.273-.321.48-.561.634-.732.107-.119.192-.21.269-.287,1.138-1.143,2.645-1.109,3.632-.568,1.272.697,1.863,2.213,1.405,3.589-.177.532-.489.981-.885,1.323-1.466,1.641-11.265,13.681-17.294,21.129-.578.714-1.44,1.113-2.332,1.113Z" style="fill: #e87c32;"/>
</svg>
