<?xml version='1.0' encoding='UTF-8'?>
<svg xmlns="http://www.w3.org/2000/svg" version="1.1" viewBox="0 0 900 450">
  <path d="M197.495,269.318c-.124,0-.25-.008-.376-.023-1.644-.206-2.81-1.705-2.605-3.349l2.921-23.369c.142-1.137.919-2.094,2.003-2.466,1.084-.372,2.285-.094,3.095.716l12.287,12.287,3.523-19.89c.187-1.055.922-1.93,1.929-2.296,1.007-.366,2.132-.167,2.953.521l13.976,11.722,2.742-19.195c.154-1.08.883-1.991,1.902-2.379,1.02-.388,2.169-.192,3.003.511l17.819,15.043c1.266,1.069,1.426,2.962.357,4.228-1.069,1.266-2.962,1.426-4.228.357l-13.679-11.549-2.739,19.174c-.154,1.078-.88,1.988-1.898,2.378-1.017.389-2.166.197-3-.503l-14.134-11.854-3.622,20.449c-.195,1.101-.986,2.002-2.053,2.338-1.066.336-2.231.05-3.022-.74l-12.021-12.021-2.16,17.282c-.19,1.518-1.482,2.628-2.973,2.628Z" style="fill: #e87c32;"/>
</svg>
