<?xml version='1.0' encoding='UTF-8'?>
<svg xmlns="http://www.w3.org/2000/svg" version="1.1" viewBox="0 0 900 450">
  <path d="M649.044,88.988c-1.599,0-2.928-1.262-2.995-2.875l-.811-19.501-14.48,12.878c-.868.772-2.103.974-3.172.517-1.068-.456-1.777-1.488-1.82-2.649l-.799-21.703-16.144,14.828c-.888.816-2.179,1.02-3.275.52-1.097-.501-1.787-1.61-1.753-2.815l.757-26.35-17.697,15.159c-.941.806-2.281.951-3.373.363-1.091-.587-1.709-1.785-1.555-3.015l3.137-25.057c.206-1.644,1.708-2.81,3.349-2.604,1.644.206,2.81,1.706,2.604,3.349l-2.173,17.359,16.95-14.519c.901-.772,2.174-.94,3.245-.429,1.071.512,1.74,1.607,1.706,2.793l-.748,26.02,15.7-14.42c.862-.792,2.105-1.01,3.185-.559,1.08.451,1.799,1.489,1.842,2.658l.804,21.838,14.451-12.852c.866-.77,2.098-.973,3.165-.52,1.067.453,1.778,1.479,1.826,2.637l1.074,25.823c.069,1.655-1.217,3.053-2.873,3.122-.042.002-.085.003-.127.003Z" style="fill: #de2c60;"/>
</svg>
