<?xml version='1.0' encoding='UTF-8'?>
<svg xmlns="http://www.w3.org/2000/svg" version="1.1" viewBox="0 0 900 450">
  <path d="M179.336,418.057c-.981,0-1.986-.118-3.008-.358-3.349-.786-5.89-2.961-7.551-6.465-1.286-2.714-1.923-5.888-2.538-8.958-1.416-7.064-2.428-10.17-6.164-10.272-.047-.001-.094-.002-.141-.002-3.628,0-5.441,3.891-7.975,10.258-1.382,3.472-2.811,7.063-4.983,9.854-2.773,3.564-6.343,5.209-10.611,4.892-3.861-.287-6.704-2.314-8.449-6.024-1.316-2.799-1.86-6.24-2.385-9.568-1.259-7.974-2.288-11.486-6.865-11.648-4.732-.164-6.509,4.391-8.864,11.919-1.103,3.527-2.244,7.173-4.091,9.924-2.452,3.651-5.795,5.23-9.935,4.695-3.767-.488-6.521-2.601-8.183-6.281-1.265-2.799-1.754-6.157-2.227-9.405-1.081-7.42-1.985-10.688-6.104-10.843-5.805-.217-7.694,3.757-10.532,10.8-1.928,4.785-3.922,9.733-8.194,12.855-4.935,3.607-11.206,3.414-15.975-.491-4.461-3.652-7.391-10.739-3.883-18.34.694-1.504,2.477-2.161,3.981-1.467,1.504.694,2.161,2.477,1.467,3.981-2.164,4.689-.436,8.996,2.236,11.184.999.818,4.574,3.256,8.634.289,2.888-2.111,4.482-6.066,6.169-10.253,1.383-3.432,2.813-6.981,5.12-9.73,2.83-3.373,6.597-4.992,11.202-4.823,4.299.161,7.441,2.183,9.339,6.009,1.452,2.927,1.974,6.505,2.477,9.964,1.001,6.874,1.845,10.161,5.243,10.6,3.706.481,5.139-2.819,7.53-10.459,1.151-3.678,2.341-7.482,4.339-10.499,2.576-3.888,6.096-5.779,10.463-5.625,4.496.159,7.807,2.262,9.843,6.25,1.571,3.078,2.163,6.83,2.736,10.459,1.127,7.138,1.973,10.292,5.352,10.543,4.554.341,6.502-3.261,9.575-10.981,1.281-3.217,2.605-6.544,4.509-9.134,2.466-3.354,5.611-5.005,9.345-4.901,4.031.11,7.071,1.997,9.035,5.609,1.5,2.759,2.185,6.176,2.848,9.481,1.238,6.172,2.231,9.976,5.577,10.761,2.457.576,4.477-.089,6.176-2.034,3.113-3.563,3.772-9.605,2.841-12.038-.592-1.548.183-3.282,1.731-3.873,1.547-.592,3.282.183,3.873,1.731,1.751,4.58.591,12.957-3.927,18.129-2.461,2.817-5.604,4.286-9.057,4.286Z" style="fill: #de2c60;"/>
</svg>
