<?xml version='1.0' encoding='UTF-8'?>
<svg xmlns="http://www.w3.org/2000/svg" version="1.1" viewBox="0 0 900 450">
  <path d="M637.19,343.51c-.485,0-.97-.018-1.457-.055-3.751-.281-7.425-1.682-10.347-3.944-2.684-2.078-4.667-4.798-5.734-7.865-1.156-3.322-1.198-6.988-.123-10.601.473-1.588,2.143-2.492,3.731-2.02,1.588.472,2.492,2.143,2.02,3.731-1.397,4.692-.019,9.07,3.779,12.011,3.575,2.768,9.641,4.08,15.133.77,1.414-.852,2.678-2.212,3.728-3.969-3.205-3.015-6.002-6.868-7.945-10.964-2.237-4.717-3.037-9.174-2.253-12.549.742-3.193,2.855-5.406,5.949-6.231,4.951-1.321,9.286,1.139,11.596,6.578,1.959,4.613,2.386,11.058,1.145,17.239-.291,1.451-.662,2.83-1.106,4.13,2.566,1.635,6.01,2.958,9.461,1.643,3.728-1.422,6.243-4.575,7.861-7.516-4.422-4.842-7.742-10.777-8.841-15.925-.618-2.894-.508-5.404.326-7.461,1.018-2.512,3.123-4.243,5.926-4.874,2.765-.621,5.314-.113,7.373,1.47,1.752,1.347,3.049,3.388,3.856,6.064,1.555,5.158,1.091,12.355-1.212,18.782-.073.204-.147.406-.223.606,4.281,3.704,8.697,5.394,12.312,4.664,4.568-.923,8.125-5.141,10.467-9.843-4.725-5.911-8.063-13.391-6.766-18.749.724-2.994,2.803-5.084,5.854-5.887,2.923-.769,5.571-.104,7.456,1.873,1.805,1.893,2.799,4.939,2.873,8.809.064,3.327-.529,7.076-1.714,10.84-.213.677-.442,1.345-.686,2.001.416.42.846.83,1.289,1.227,4.092,3.679,8.085,5.199,10.955,4.172,4.825-1.727,7.928-4.891,8.739-8.909.655-3.249-.382-5.931-1.328-6.798-1.221-1.12-1.304-3.017-.184-4.239,1.12-1.221,3.017-1.304,4.239-.184,2.856,2.618,4.124,7.604,3.155,12.408-.719,3.567-3.313,10.047-12.598,13.371-1.258.451-2.574.673-3.931.673-4.117,0-8.613-2.048-13.018-5.996-.842,1.454-1.766,2.804-2.76,4.026-3.116,3.831-6.868,6.281-10.851,7.085-.963.195-1.945.291-2.94.291-4.319,0-8.879-1.818-13.272-5.292-2.66,4.285-6.163,7.369-10.215,8.914-4.491,1.714-9.412,1.069-14.191-1.787-1.494,2.328-3.323,4.176-5.424,5.443-3.095,1.866-6.56,2.834-10.099,2.834ZM646.238,307.46c-.415,0-.768.094-1.021.162-.934.249-1.413.769-1.651,1.792-.823,3.541,1.857,10.575,6.748,16.027.077-.322.148-.649.215-.98.998-4.968.697-10.222-.785-13.713-1.166-2.746-2.512-3.288-3.506-3.288ZM672.268,301.368c-.362,0-.679.071-.913.124-.735.165-2.689.605-1.702,5.229.716,3.355,2.748,7.308,5.489,10.851,1.221-4.552,1.388-9.322.38-12.667-.902-2.992-2.252-3.537-3.254-3.537ZM703.995,298.433c-.202,0-.454.033-.772.116-1.056.278-1.375.778-1.549,1.496-.545,2.254.778,6.394,3.439,10.573.633-2.493.953-4.952.913-7.075-.064-3.321-.947-4.501-1.216-4.783-.12-.125-.312-.327-.815-.327Z" style="fill: #de2c60;"/>
</svg>
