<?xml version='1.0' encoding='UTF-8'?>
<svg xmlns="http://www.w3.org/2000/svg" version="1.1" viewBox="0 0 900 450">
  <path d="M52.973,372.271c-6.301,0-12.366-2.707-17.194-7.803-5.669-5.985-8.218-14.077-6.992-22.202,1.164-7.718,5.498-14.375,11.592-17.807l2.945,5.228c-4.429,2.495-7.726,7.658-8.604,13.475-.962,6.377.961,12.479,5.415,17.181,4.661,4.921,10.769,6.908,16.758,5.453,5.693-1.383,10.367-5.72,11.908-11.048,2.303-7.959-.991-13.471-4.511-15.773-3.871-2.531-8.68-1.962-12.865,1.522-3.654,3.042-3.439,5.971-2.986,7.446.599,1.95,2.223,3.431,3.949,3.601,1.815.18,3.588-1.153,4.99-3.753l5.281,2.848c-2.586,4.795-6.545,7.302-10.86,6.875-4.131-.407-7.787-3.546-9.096-7.811-1.494-4.864.332-10.03,4.883-13.819,6.225-5.183,13.884-5.923,19.987-1.933,3.198,2.091,5.665,5.364,6.946,9.214,1.357,4.079,1.373,8.66.046,13.247-1.071,3.704-3.188,7.089-6.119,9.79-2.853,2.629-6.358,4.503-10.135,5.421-1.782.433-3.569.646-5.337.646Z" style="fill: #ffebc7;"/>
</svg>
